<svg width="120" height="120" viewBox="0 0 120 120" fill="none" xmlns="http://www.w3.org/2000/svg">
<path d="M87.644 37.425L45.262 74.194L32.355 62.994C31.4487 62.2458 30.3102 61.8366 29.135 61.8366C27.9598 61.8366 26.8213 62.2458 25.915 62.994C25.4984 63.3307 25.1625 63.7563 24.9316 64.2396C24.7008 64.723 24.5811 65.2518 24.5811 65.7875C24.5811 66.3231 24.7008 66.8519 24.9316 67.3353C25.1625 67.8186 25.4984 68.2442 25.915 68.581L42.042 82.572C42.9484 83.3199 44.0869 83.729 45.262 83.729C46.4371 83.729 47.5756 83.3199 48.482 82.572L94.082 43.008C94.4986 42.6713 94.8345 42.2456 95.0653 41.7623C95.2961 41.2789 95.4159 40.7501 95.4159 40.2145C95.4159 39.6788 95.2961 39.15 95.0653 38.6666C94.8345 38.1833 94.4986 37.7577 94.082 37.421C93.1753 36.6741 92.037 36.266 90.8623 36.2667C89.6876 36.2675 88.5497 36.677 87.644 37.425Z" fill="black"/>
<path d="M60 0C48.1331 0 36.5328 3.51894 26.6658 10.1118C16.7989 16.7047 9.10851 26.0754 4.56726 37.039C0.0259972 48.0026 -1.1622 60.0666 1.15291 71.7054C3.46802 83.3443 9.18247 94.0353 17.5736 102.426C25.9648 110.818 36.6557 116.532 48.2946 118.847C59.9335 121.162 71.9975 119.974 82.961 115.433C93.9246 110.892 103.295 103.201 109.888 93.3342C116.481 83.4673 120 71.8669 120 60C119.982 44.0925 113.655 28.8418 102.407 17.5935C91.1583 6.34519 75.9075 0.0179979 60 0V0ZM60 111.429C49.8283 111.429 39.8851 108.413 31.4276 102.762C22.9701 97.1106 16.3784 89.0784 12.4858 79.681C8.59329 70.2836 7.57482 59.943 9.55922 49.9667C11.5436 39.9905 16.4418 30.8267 23.6342 23.6342C30.8267 16.4417 39.9905 11.5436 49.9667 9.55919C59.943 7.57479 70.2836 8.59326 79.6811 12.4858C89.0785 16.3783 97.1106 22.9701 102.762 31.4276C108.413 39.885 111.429 49.8283 111.429 60C111.414 73.6351 105.99 86.7074 96.3489 96.3488C86.7074 105.99 73.6351 111.414 60 111.429Z" fill="black"/>
</svg>
