<svg width="35" height="51" viewBox="0 0 35 51" fill="none" xmlns="http://www.w3.org/2000/svg">
<path d="M17.5936 30.5441C17.4303 30.5441 17.2666 30.4958 17.1261 30.3986L2.7601 20.4924C2.57301 20.3636 2.44753 20.1626 2.41367 19.9378C2.3798 19.7129 2.43976 19.4837 2.58022 19.3054L16.9462 1.02817C17.1022 0.829413 17.3409 0.713379 17.5936 0.713379C17.8462 0.713379 18.0849 0.829413 18.2409 1.02817L32.6069 19.3054C32.7473 19.4842 32.8073 19.7129 32.7734 19.9378C32.739 20.1626 32.6136 20.3631 32.4265 20.4924L18.061 30.3986C17.9206 30.4952 17.7568 30.5441 17.5936 30.5441ZM4.41733 19.6341L17.5936 28.7197L30.7698 19.6341L17.5936 2.86972L4.41733 19.6341Z" fill="black"/>
<path d="M17.5935 50.6803C17.5924 50.6803 17.5913 50.6803 17.5907 50.6803C17.332 50.6792 17.0889 50.557 16.934 50.3499L1.11783 29.1979C0.870774 28.8676 0.905751 28.4057 1.2 28.117C1.49425 27.8288 1.95616 27.8011 2.28206 28.0537L17.6002 39.9396L32.9311 28.3485C33.2581 28.0998 33.7194 28.1308 34.0104 28.4234C34.3007 28.7143 34.3318 29.1757 34.0831 29.5033L18.2498 50.3544C18.0937 50.5592 17.8511 50.6803 17.5935 50.6803ZM6.08397 33.0887L17.5985 48.4878L29.1575 33.2663L18.0904 41.6341C17.7934 41.8595 17.3831 41.8556 17.0889 41.628L6.08397 33.0887Z" fill="black"/>
</svg>
