<svg width="341" height="135" viewBox="0 0 341 135" fill="none" xmlns="http://www.w3.org/2000/svg">
<path d="M31.2461 101H28.2812L20.6758 88.8945V101H17.7109V83.9375H20.6758L28.3047 96.0898V83.9375H31.2461V101ZM33.9414 94.543C33.9414 93.3008 34.1875 92.1836 34.6797 91.1914C35.1719 90.1914 35.8633 89.4258 36.7539 88.8945C37.6445 88.3555 38.668 88.0859 39.8242 88.0859C41.5352 88.0859 42.9219 88.6367 43.9844 89.7383C45.0547 90.8398 45.6328 92.3008 45.7188 94.1211L45.7305 94.7891C45.7305 96.0391 45.4883 97.1562 45.0039 98.1406C44.5273 99.125 43.8398 99.8867 42.9414 100.426C42.0508 100.965 41.0195 101.234 39.8477 101.234C38.0586 101.234 36.625 100.641 35.5469 99.4531C34.4766 98.2578 33.9414 96.668 33.9414 94.6836V94.543ZM36.7891 94.7891C36.7891 96.0938 37.0586 97.1172 37.5977 97.8594C38.1367 98.5938 38.8867 98.9609 39.8477 98.9609C40.8086 98.9609 41.5547 98.5859 42.0859 97.8359C42.625 97.0859 42.8945 95.9883 42.8945 94.543C42.8945 93.2617 42.6172 92.2461 42.0625 91.4961C41.5156 90.7461 40.7695 90.3711 39.8242 90.3711C38.8945 90.3711 38.1562 90.7422 37.6094 91.4844C37.0625 92.2188 36.7891 93.3203 36.7891 94.7891ZM53.582 94.543C53.582 93.3008 53.8281 92.1836 54.3203 91.1914C54.8125 90.1914 55.5039 89.4258 56.3945 88.8945C57.2852 88.3555 58.3086 88.0859 59.4648 88.0859C61.1758 88.0859 62.5625 88.6367 63.625 89.7383C64.6953 90.8398 65.2734 92.3008 65.3594 94.1211L65.3711 94.7891C65.3711 96.0391 65.1289 97.1562 64.6445 98.1406C64.168 99.125 63.4805 99.8867 62.582 100.426C61.6914 100.965 60.6602 101.234 59.4883 101.234C57.6992 101.234 56.2656 100.641 55.1875 99.4531C54.1172 98.2578 53.582 96.668 53.582 94.6836V94.543ZM56.4297 94.7891C56.4297 96.0938 56.6992 97.1172 57.2383 97.8594C57.7773 98.5938 58.5273 98.9609 59.4883 98.9609C60.4492 98.9609 61.1953 98.5859 61.7266 97.8359C62.2656 97.0859 62.5352 95.9883 62.5352 94.543C62.5352 93.2617 62.2578 92.2461 61.7031 91.4961C61.1562 90.7461 60.4102 90.3711 59.4648 90.3711C58.5352 90.3711 57.7969 90.7422 57.25 91.4844C56.7031 92.2188 56.4297 93.3203 56.4297 94.7891ZM70.4219 88.3203L70.5039 89.7852C71.4414 88.6523 72.6719 88.0859 74.1953 88.0859C76.8359 88.0859 78.1797 89.5977 78.2266 92.6211V101H75.3789V92.7852C75.3789 91.9805 75.2031 91.3867 74.8516 91.0039C74.5078 90.6133 73.9414 90.418 73.1523 90.418C72.0039 90.418 71.1484 90.9375 70.5859 91.9766V101H67.7383V88.3203H70.4219ZM86.7227 101.234C84.918 101.234 83.4531 100.668 82.3281 99.5352C81.2109 98.3945 80.6523 96.8789 80.6523 94.9883V94.6367C80.6523 93.3711 80.8945 92.2422 81.3789 91.25C81.8711 90.25 82.5586 89.4727 83.4414 88.918C84.3242 88.3633 85.3086 88.0859 86.3945 88.0859C88.1211 88.0859 89.4531 88.6367 90.3906 89.7383C91.3359 90.8398 91.8086 92.3984 91.8086 94.4141V95.5625H83.5234C83.6094 96.6094 83.957 97.4375 84.5664 98.0469C85.1836 98.6562 85.957 98.9609 86.8867 98.9609C88.1914 98.9609 89.2539 98.4336 90.0742 97.3789L91.6094 98.8438C91.1016 99.6016 90.4219 100.191 89.5703 100.613C88.7266 101.027 87.7773 101.234 86.7227 101.234ZM86.3828 90.3711C85.6016 90.3711 84.9688 90.6445 84.4844 91.1914C84.0078 91.7383 83.7031 92.5 83.5703 93.4766H88.9961V93.2656C88.9336 92.3125 88.6797 91.5938 88.2344 91.1094C87.7891 90.6172 87.1719 90.3711 86.3828 90.3711ZM105.215 98.9609C105.926 98.9609 106.516 98.7539 106.984 98.3398C107.453 97.9258 107.703 97.4141 107.734 96.8047H110.418C110.387 97.5938 110.141 98.332 109.68 99.0195C109.219 99.6992 108.594 100.238 107.805 100.637C107.016 101.035 106.164 101.234 105.25 101.234C103.477 101.234 102.07 100.66 101.031 99.5117C99.9922 98.3633 99.4727 96.7773 99.4727 94.7539V94.4609C99.4727 92.5312 99.9883 90.9883 101.02 89.832C102.051 88.668 103.457 88.0859 105.238 88.0859C106.746 88.0859 107.973 88.5273 108.918 89.4102C109.871 90.2852 110.371 91.4375 110.418 92.8672H107.734C107.703 92.1406 107.453 91.543 106.984 91.0742C106.523 90.6055 105.934 90.3711 105.215 90.3711C104.293 90.3711 103.582 90.707 103.082 91.3789C102.582 92.043 102.328 93.0547 102.32 94.4141V94.8711C102.32 96.2461 102.566 97.2734 103.059 97.9531C103.559 98.625 104.277 98.9609 105.215 98.9609ZM120.145 101C120.02 100.758 119.91 100.363 119.816 99.8164C118.91 100.762 117.801 101.234 116.488 101.234C115.215 101.234 114.176 100.871 113.371 100.145C112.566 99.418 112.164 98.5195 112.164 97.4492C112.164 96.0977 112.664 95.0625 113.664 94.3438C114.672 93.6172 116.109 93.2539 117.977 93.2539H119.723V92.4219C119.723 91.7656 119.539 91.2422 119.172 90.8516C118.805 90.4531 118.246 90.2539 117.496 90.2539C116.848 90.2539 116.316 90.418 115.902 90.7461C115.488 91.0664 115.281 91.4766 115.281 91.9766H112.434C112.434 91.2812 112.664 90.6328 113.125 90.0312C113.586 89.4219 114.211 88.9453 115 88.6016C115.797 88.2578 116.684 88.0859 117.66 88.0859C119.145 88.0859 120.328 88.4609 121.211 89.2109C122.094 89.9531 122.547 91 122.57 92.3516V98.0703C122.57 99.2109 122.73 100.121 123.051 100.801V101H120.145ZM117.016 98.9492C117.578 98.9492 118.105 98.8125 118.598 98.5391C119.098 98.2656 119.473 97.8984 119.723 97.4375V95.0469H118.188C117.133 95.0469 116.34 95.2305 115.809 95.5977C115.277 95.9648 115.012 96.4844 115.012 97.1562C115.012 97.7031 115.191 98.1406 115.551 98.4688C115.918 98.7891 116.406 98.9492 117.016 98.9492ZM128.195 88.3203L128.277 89.7852C129.215 88.6523 130.445 88.0859 131.969 88.0859C134.609 88.0859 135.953 89.5977 136 92.6211V101H133.152V92.7852C133.152 91.9805 132.977 91.3867 132.625 91.0039C132.281 90.6133 131.715 90.418 130.926 90.418C129.777 90.418 128.922 90.9375 128.359 91.9766V101H125.512V88.3203H128.195ZM151.527 90.9219C151.152 90.8594 150.766 90.8281 150.367 90.8281C149.062 90.8281 148.184 91.3281 147.73 92.3281V101H144.883V88.3203H147.602L147.672 89.7383C148.359 88.6367 149.312 88.0859 150.531 88.0859C150.938 88.0859 151.273 88.1406 151.539 88.25L151.527 90.9219ZM158.676 101.234C156.871 101.234 155.406 100.668 154.281 99.5352C153.164 98.3945 152.605 96.8789 152.605 94.9883V94.6367C152.605 93.3711 152.848 92.2422 153.332 91.25C153.824 90.25 154.512 89.4727 155.395 88.918C156.277 88.3633 157.262 88.0859 158.348 88.0859C160.074 88.0859 161.406 88.6367 162.344 89.7383C163.289 90.8398 163.762 92.3984 163.762 94.4141V95.5625H155.477C155.562 96.6094 155.91 97.4375 156.52 98.0469C157.137 98.6562 157.91 98.9609 158.84 98.9609C160.145 98.9609 161.207 98.4336 162.027 97.3789L163.562 98.8438C163.055 99.6016 162.375 100.191 161.523 100.613C160.68 101.027 159.73 101.234 158.676 101.234ZM158.336 90.3711C157.555 90.3711 156.922 90.6445 156.438 91.1914C155.961 91.7383 155.656 92.5 155.523 93.4766H160.949V93.2656C160.887 92.3125 160.633 91.5938 160.188 91.1094C159.742 90.6172 159.125 90.3711 158.336 90.3711ZM168.66 88.3203L168.742 89.6445C169.633 88.6055 170.852 88.0859 172.398 88.0859C174.094 88.0859 175.254 88.7344 175.879 90.0312C176.801 88.7344 178.098 88.0859 179.77 88.0859C181.168 88.0859 182.207 88.4727 182.887 89.2461C183.574 90.0195 183.926 91.1602 183.941 92.668V101H181.094V92.75C181.094 91.9453 180.918 91.3555 180.566 90.9805C180.215 90.6055 179.633 90.418 178.82 90.418C178.172 90.418 177.641 90.5938 177.227 90.9453C176.82 91.2891 176.535 91.7422 176.371 92.3047L176.383 101H173.535V92.6562C173.496 91.1641 172.734 90.418 171.25 90.418C170.109 90.418 169.301 90.8828 168.824 91.8125V101H165.977V88.3203H168.66ZM186.332 94.543C186.332 93.3008 186.578 92.1836 187.07 91.1914C187.562 90.1914 188.254 89.4258 189.145 88.8945C190.035 88.3555 191.059 88.0859 192.215 88.0859C193.926 88.0859 195.312 88.6367 196.375 89.7383C197.445 90.8398 198.023 92.3008 198.109 94.1211L198.121 94.7891C198.121 96.0391 197.879 97.1562 197.395 98.1406C196.918 99.125 196.23 99.8867 195.332 100.426C194.441 100.965 193.41 101.234 192.238 101.234C190.449 101.234 189.016 100.641 187.938 99.4531C186.867 98.2578 186.332 96.668 186.332 94.6836V94.543ZM189.18 94.7891C189.18 96.0938 189.449 97.1172 189.988 97.8594C190.527 98.5938 191.277 98.9609 192.238 98.9609C193.199 98.9609 193.945 98.5859 194.477 97.8359C195.016 97.0859 195.285 95.9883 195.285 94.543C195.285 93.2617 195.008 92.2461 194.453 91.4961C193.906 90.7461 193.16 90.3711 192.215 90.3711C191.285 90.3711 190.547 90.7422 190 91.4844C189.453 92.2188 189.18 93.3203 189.18 94.7891ZM204.812 97.3906L207.496 88.3203H210.438L206.043 101H203.57L199.141 88.3203H202.094L204.812 97.3906ZM217.645 101.234C215.84 101.234 214.375 100.668 213.25 99.5352C212.133 98.3945 211.574 96.8789 211.574 94.9883V94.6367C211.574 93.3711 211.816 92.2422 212.301 91.25C212.793 90.25 213.48 89.4727 214.363 88.918C215.246 88.3633 216.23 88.0859 217.316 88.0859C219.043 88.0859 220.375 88.6367 221.312 89.7383C222.258 90.8398 222.73 92.3984 222.73 94.4141V95.5625H214.445C214.531 96.6094 214.879 97.4375 215.488 98.0469C216.105 98.6562 216.879 98.9609 217.809 98.9609C219.113 98.9609 220.176 98.4336 220.996 97.3789L222.531 98.8438C222.023 99.6016 221.344 100.191 220.492 100.613C219.648 101.027 218.699 101.234 217.645 101.234ZM217.305 90.3711C216.523 90.3711 215.891 90.6445 215.406 91.1914C214.93 91.7383 214.625 92.5 214.492 93.4766H219.918V93.2656C219.855 92.3125 219.602 91.5938 219.156 91.1094C218.711 90.6172 218.094 90.3711 217.305 90.3711ZM235.363 96.9219L237.941 88.3203H240.977L235.938 102.922C235.164 105.055 233.852 106.121 232 106.121C231.586 106.121 231.129 106.051 230.629 105.91V103.707L231.168 103.742C231.887 103.742 232.426 103.609 232.785 103.344C233.152 103.086 233.441 102.648 233.652 102.031L234.062 100.941L229.609 88.3203H232.68L235.363 96.9219ZM241.902 94.543C241.902 93.3008 242.148 92.1836 242.641 91.1914C243.133 90.1914 243.824 89.4258 244.715 88.8945C245.605 88.3555 246.629 88.0859 247.785 88.0859C249.496 88.0859 250.883 88.6367 251.945 89.7383C253.016 90.8398 253.594 92.3008 253.68 94.1211L253.691 94.7891C253.691 96.0391 253.449 97.1562 252.965 98.1406C252.488 99.125 251.801 99.8867 250.902 100.426C250.012 100.965 248.98 101.234 247.809 101.234C246.02 101.234 244.586 100.641 243.508 99.4531C242.438 98.2578 241.902 96.668 241.902 94.6836V94.543ZM244.75 94.7891C244.75 96.0938 245.02 97.1172 245.559 97.8594C246.098 98.5938 246.848 98.9609 247.809 98.9609C248.77 98.9609 249.516 98.5859 250.047 97.8359C250.586 97.0859 250.855 95.9883 250.855 94.543C250.855 93.2617 250.578 92.2461 250.023 91.4961C249.477 90.7461 248.73 90.3711 247.785 90.3711C246.855 90.3711 246.117 90.7422 245.57 91.4844C245.023 92.2188 244.75 93.3203 244.75 94.7891ZM263.781 99.7578C262.945 100.742 261.758 101.234 260.219 101.234C258.844 101.234 257.801 100.832 257.09 100.027C256.387 99.2227 256.035 98.0586 256.035 96.5352V88.3203H258.883V96.5C258.883 98.1094 259.551 98.9141 260.887 98.9141C262.27 98.9141 263.203 98.418 263.688 97.4258V88.3203H266.535V101H263.852L263.781 99.7578ZM276.414 101V90.4297H274.48V88.3203H276.414V87.1602C276.414 85.7539 276.805 84.668 277.586 83.9023C278.367 83.1367 279.461 82.7539 280.867 82.7539C281.367 82.7539 281.898 82.8242 282.461 82.9648L282.391 85.1914C282.078 85.1289 281.715 85.0977 281.301 85.0977C279.941 85.0977 279.262 85.7969 279.262 87.1953V88.3203H281.84V90.4297H279.262V101H276.414ZM290.559 90.9219C290.184 90.8594 289.797 90.8281 289.398 90.8281C288.094 90.8281 287.215 91.3281 286.762 92.3281V101H283.914V88.3203H286.633L286.703 89.7383C287.391 88.6367 288.344 88.0859 289.562 88.0859C289.969 88.0859 290.305 88.1406 290.57 88.25L290.559 90.9219ZM291.402 94.543C291.402 93.3008 291.648 92.1836 292.141 91.1914C292.633 90.1914 293.324 89.4258 294.215 88.8945C295.105 88.3555 296.129 88.0859 297.285 88.0859C298.996 88.0859 300.383 88.6367 301.445 89.7383C302.516 90.8398 303.094 92.3008 303.18 94.1211L303.191 94.7891C303.191 96.0391 302.949 97.1562 302.465 98.1406C301.988 99.125 301.301 99.8867 300.402 100.426C299.512 100.965 298.48 101.234 297.309 101.234C295.52 101.234 294.086 100.641 293.008 99.4531C291.938 98.2578 291.402 96.668 291.402 94.6836V94.543ZM294.25 94.7891C294.25 96.0938 294.52 97.1172 295.059 97.8594C295.598 98.5938 296.348 98.9609 297.309 98.9609C298.27 98.9609 299.016 98.5859 299.547 97.8359C300.086 97.0859 300.355 95.9883 300.355 94.543C300.355 93.2617 300.078 92.2461 299.523 91.4961C298.977 90.7461 298.23 90.3711 297.285 90.3711C296.355 90.3711 295.617 90.7422 295.07 91.4844C294.523 92.2188 294.25 93.3203 294.25 94.7891ZM308.277 88.3203L308.359 89.6445C309.25 88.6055 310.469 88.0859 312.016 88.0859C313.711 88.0859 314.871 88.7344 315.496 90.0312C316.418 88.7344 317.715 88.0859 319.387 88.0859C320.785 88.0859 321.824 88.4727 322.504 89.2461C323.191 90.0195 323.543 91.1602 323.559 92.668V101H320.711V92.75C320.711 91.9453 320.535 91.3555 320.184 90.9805C319.832 90.6055 319.25 90.418 318.438 90.418C317.789 90.418 317.258 90.5938 316.844 90.9453C316.438 91.2891 316.152 91.7422 315.988 92.3047L316 101H313.152V92.6562C313.113 91.1641 312.352 90.418 310.867 90.418C309.727 90.418 308.918 90.8828 308.441 91.8125V101H305.594V88.3203H308.277ZM38.6875 113.238V116.32H40.9258V118.43H38.6875V125.508C38.6875 125.992 38.7812 126.344 38.9688 126.562C39.1641 126.773 39.5078 126.879 40 126.879C40.3281 126.879 40.6602 126.84 40.9961 126.762V128.965C40.3477 129.145 39.7227 129.234 39.1211 129.234C36.9336 129.234 35.8398 128.027 35.8398 125.613V118.43H33.7539V116.32H35.8398V113.238H38.6875ZM45.918 117.703C46.8477 116.625 48.0234 116.086 49.4453 116.086C52.1484 116.086 53.5195 117.629 53.5586 120.715V129H50.7109V120.82C50.7109 119.945 50.5195 119.328 50.1367 118.969C49.7617 118.602 49.207 118.418 48.4727 118.418C47.332 118.418 46.4805 118.926 45.918 119.941V129H43.0703V111H45.918V117.703ZM62.0312 129.234C60.2266 129.234 58.7617 128.668 57.6367 127.535C56.5195 126.395 55.9609 124.879 55.9609 122.988V122.637C55.9609 121.371 56.2031 120.242 56.6875 119.25C57.1797 118.25 57.8672 117.473 58.75 116.918C59.6328 116.363 60.6172 116.086 61.7031 116.086C63.4297 116.086 64.7617 116.637 65.6992 117.738C66.6445 118.84 67.1172 120.398 67.1172 122.414V123.562H58.832C58.918 124.609 59.2656 125.438 59.875 126.047C60.4922 126.656 61.2656 126.961 62.1953 126.961C63.5 126.961 64.5625 126.434 65.3828 125.379L66.918 126.844C66.4102 127.602 65.7305 128.191 64.8789 128.613C64.0352 129.027 63.0859 129.234 62.0312 129.234ZM61.6914 118.371C60.9102 118.371 60.2773 118.645 59.793 119.191C59.3164 119.738 59.0117 120.5 58.8789 121.477H64.3047V121.266C64.2422 120.312 63.9883 119.594 63.543 119.109C63.0977 118.617 62.4805 118.371 61.6914 118.371ZM86.418 122.789C86.418 124.75 85.9727 126.316 85.082 127.488C84.1914 128.652 82.9961 129.234 81.4961 129.234C80.1055 129.234 78.9922 128.777 78.1562 127.863V133.875H75.3086V116.32H77.9336L78.0508 117.609C78.8867 116.594 80.0234 116.086 81.4609 116.086C83.0078 116.086 84.2188 116.664 85.0938 117.82C85.9766 118.969 86.418 120.566 86.418 122.613V122.789ZM83.582 122.543C83.582 121.277 83.3281 120.273 82.8203 119.531C82.3203 118.789 81.6016 118.418 80.6641 118.418C79.5 118.418 78.6641 118.898 78.1562 119.859V125.484C78.6719 126.469 79.5156 126.961 80.6875 126.961C81.5938 126.961 82.3008 126.598 82.8086 125.871C83.3242 125.137 83.582 124.027 83.582 122.543ZM91.8672 129H89.0195V111H91.8672V129ZM102.555 129C102.43 128.758 102.32 128.363 102.227 127.816C101.32 128.762 100.211 129.234 98.8984 129.234C97.625 129.234 96.5859 128.871 95.7812 128.145C94.9766 127.418 94.5742 126.52 94.5742 125.449C94.5742 124.098 95.0742 123.062 96.0742 122.344C97.082 121.617 98.5195 121.254 100.387 121.254H102.133V120.422C102.133 119.766 101.949 119.242 101.582 118.852C101.215 118.453 100.656 118.254 99.9062 118.254C99.2578 118.254 98.7266 118.418 98.3125 118.746C97.8984 119.066 97.6914 119.477 97.6914 119.977H94.8438C94.8438 119.281 95.0742 118.633 95.5352 118.031C95.9961 117.422 96.6211 116.945 97.4102 116.602C98.207 116.258 99.0938 116.086 100.07 116.086C101.555 116.086 102.738 116.461 103.621 117.211C104.504 117.953 104.957 119 104.98 120.352V126.07C104.98 127.211 105.141 128.121 105.461 128.801V129H102.555ZM99.4258 126.949C99.9883 126.949 100.516 126.812 101.008 126.539C101.508 126.266 101.883 125.898 102.133 125.438V123.047H100.598C99.543 123.047 98.75 123.23 98.2188 123.598C97.6875 123.965 97.4219 124.484 97.4219 125.156C97.4219 125.703 97.6016 126.141 97.9609 126.469C98.3281 126.789 98.8164 126.949 99.4258 126.949ZM111.531 113.238V116.32H113.77V118.43H111.531V125.508C111.531 125.992 111.625 126.344 111.812 126.562C112.008 126.773 112.352 126.879 112.844 126.879C113.172 126.879 113.504 126.84 113.84 126.762V128.965C113.191 129.145 112.566 129.234 111.965 129.234C109.777 129.234 108.684 128.027 108.684 125.613V118.43H106.598V116.32H108.684V113.238H111.531ZM116.957 129V118.43H115.023V116.32H116.957V115.16C116.957 113.754 117.348 112.668 118.129 111.902C118.91 111.137 120.004 110.754 121.41 110.754C121.91 110.754 122.441 110.824 123.004 110.965L122.934 113.191C122.621 113.129 122.258 113.098 121.844 113.098C120.484 113.098 119.805 113.797 119.805 115.195V116.32H122.383V118.43H119.805V129H116.957ZM123.93 122.543C123.93 121.301 124.176 120.184 124.668 119.191C125.16 118.191 125.852 117.426 126.742 116.895C127.633 116.355 128.656 116.086 129.812 116.086C131.523 116.086 132.91 116.637 133.973 117.738C135.043 118.84 135.621 120.301 135.707 122.121L135.719 122.789C135.719 124.039 135.477 125.156 134.992 126.141C134.516 127.125 133.828 127.887 132.93 128.426C132.039 128.965 131.008 129.234 129.836 129.234C128.047 129.234 126.613 128.641 125.535 127.453C124.465 126.258 123.93 124.668 123.93 122.684V122.543ZM126.777 122.789C126.777 124.094 127.047 125.117 127.586 125.859C128.125 126.594 128.875 126.961 129.836 126.961C130.797 126.961 131.543 126.586 132.074 125.836C132.613 125.086 132.883 123.988 132.883 122.543C132.883 121.262 132.605 120.246 132.051 119.496C131.504 118.746 130.758 118.371 129.812 118.371C128.883 118.371 128.145 118.742 127.598 119.484C127.051 120.219 126.777 121.32 126.777 122.789ZM144.766 118.922C144.391 118.859 144.004 118.828 143.605 118.828C142.301 118.828 141.422 119.328 140.969 120.328V129H138.121V116.32H140.84L140.91 117.738C141.598 116.637 142.551 116.086 143.77 116.086C144.176 116.086 144.512 116.141 144.777 116.25L144.766 118.922ZM149.242 116.32L149.324 117.645C150.215 116.605 151.434 116.086 152.98 116.086C154.676 116.086 155.836 116.734 156.461 118.031C157.383 116.734 158.68 116.086 160.352 116.086C161.75 116.086 162.789 116.473 163.469 117.246C164.156 118.02 164.508 119.16 164.523 120.668V129H161.676V120.75C161.676 119.945 161.5 119.355 161.148 118.98C160.797 118.605 160.215 118.418 159.402 118.418C158.754 118.418 158.223 118.594 157.809 118.945C157.402 119.289 157.117 119.742 156.953 120.305L156.965 129H154.117V120.656C154.078 119.164 153.316 118.418 151.832 118.418C150.691 118.418 149.883 118.883 149.406 119.812V129H146.559V116.32H149.242ZM167.852 132.844L166.316 131.93C166.77 131.219 167.078 130.598 167.242 130.066C167.414 129.543 167.504 129.008 167.512 128.461V126.246H170.078L170.066 128.297C170.059 129.125 169.848 129.953 169.434 130.781C169.027 131.617 168.5 132.305 167.852 132.844ZM181.34 116.32L181.422 117.785C182.359 116.652 183.59 116.086 185.113 116.086C187.754 116.086 189.098 117.598 189.145 120.621V129H186.297V120.785C186.297 119.98 186.121 119.387 185.77 119.004C185.426 118.613 184.859 118.418 184.07 118.418C182.922 118.418 182.066 118.938 181.504 119.977V129H178.656V116.32H181.34ZM191.523 122.543C191.523 121.301 191.77 120.184 192.262 119.191C192.754 118.191 193.445 117.426 194.336 116.895C195.227 116.355 196.25 116.086 197.406 116.086C199.117 116.086 200.504 116.637 201.566 117.738C202.637 118.84 203.215 120.301 203.301 122.121L203.312 122.789C203.312 124.039 203.07 125.156 202.586 126.141C202.109 127.125 201.422 127.887 200.523 128.426C199.633 128.965 198.602 129.234 197.43 129.234C195.641 129.234 194.207 128.641 193.129 127.453C192.059 126.258 191.523 124.668 191.523 122.684V122.543ZM194.371 122.789C194.371 124.094 194.641 125.117 195.18 125.859C195.719 126.594 196.469 126.961 197.43 126.961C198.391 126.961 199.137 126.586 199.668 125.836C200.207 125.086 200.477 123.988 200.477 122.543C200.477 121.262 200.199 120.246 199.645 119.496C199.098 118.746 198.352 118.371 197.406 118.371C196.477 118.371 195.738 118.742 195.191 119.484C194.645 120.219 194.371 121.32 194.371 122.789ZM209.289 113.238V116.32H211.527V118.43H209.289V125.508C209.289 125.992 209.383 126.344 209.57 126.562C209.766 126.773 210.109 126.879 210.602 126.879C210.93 126.879 211.262 126.84 211.598 126.762V128.965C210.949 129.145 210.324 129.234 209.723 129.234C207.535 129.234 206.441 128.027 206.441 125.613V118.43H204.355V116.32H206.441V113.238H209.289ZM225.273 129.234C223.469 129.234 222.004 128.668 220.879 127.535C219.762 126.395 219.203 124.879 219.203 122.988V122.637C219.203 121.371 219.445 120.242 219.93 119.25C220.422 118.25 221.109 117.473 221.992 116.918C222.875 116.363 223.859 116.086 224.945 116.086C226.672 116.086 228.004 116.637 228.941 117.738C229.887 118.84 230.359 120.398 230.359 122.414V123.562H222.074C222.16 124.609 222.508 125.438 223.117 126.047C223.734 126.656 224.508 126.961 225.438 126.961C226.742 126.961 227.805 126.434 228.625 125.379L230.16 126.844C229.652 127.602 228.973 128.191 228.121 128.613C227.277 129.027 226.328 129.234 225.273 129.234ZM224.934 118.371C224.152 118.371 223.52 118.645 223.035 119.191C222.559 119.738 222.254 120.5 222.121 121.477H227.547V121.266C227.484 120.312 227.23 119.594 226.785 119.109C226.34 118.617 225.723 118.371 224.934 118.371ZM236.887 125.391L239.57 116.32H242.512L238.117 129H235.645L231.215 116.32H234.168L236.887 125.391ZM249.719 129.234C247.914 129.234 246.449 128.668 245.324 127.535C244.207 126.395 243.648 124.879 243.648 122.988V122.637C243.648 121.371 243.891 120.242 244.375 119.25C244.867 118.25 245.555 117.473 246.438 116.918C247.32 116.363 248.305 116.086 249.391 116.086C251.117 116.086 252.449 116.637 253.387 117.738C254.332 118.84 254.805 120.398 254.805 122.414V123.562H246.52C246.605 124.609 246.953 125.438 247.562 126.047C248.18 126.656 248.953 126.961 249.883 126.961C251.188 126.961 252.25 126.434 253.07 125.379L254.605 126.844C254.098 127.602 253.418 128.191 252.566 128.613C251.723 129.027 250.773 129.234 249.719 129.234ZM249.379 118.371C248.598 118.371 247.965 118.645 247.48 119.191C247.004 119.738 246.699 120.5 246.566 121.477H251.992V121.266C251.93 120.312 251.676 119.594 251.23 119.109C250.785 118.617 250.168 118.371 249.379 118.371ZM259.668 116.32L259.75 117.785C260.688 116.652 261.918 116.086 263.441 116.086C266.082 116.086 267.426 117.598 267.473 120.621V129H264.625V120.785C264.625 119.98 264.449 119.387 264.098 119.004C263.754 118.613 263.188 118.418 262.398 118.418C261.25 118.418 260.395 118.938 259.832 119.977V129H256.984V116.32H259.668ZM284.043 127.758C283.207 128.742 282.02 129.234 280.48 129.234C279.105 129.234 278.062 128.832 277.352 128.027C276.648 127.223 276.297 126.059 276.297 124.535V116.32H279.145V124.5C279.145 126.109 279.812 126.914 281.148 126.914C282.531 126.914 283.465 126.418 283.949 125.426V116.32H286.797V129H284.113L284.043 127.758ZM296.805 125.555C296.805 125.047 296.594 124.66 296.172 124.395C295.758 124.129 295.066 123.895 294.098 123.691C293.129 123.488 292.32 123.23 291.672 122.918C290.25 122.23 289.539 121.234 289.539 119.93C289.539 118.836 290 117.922 290.922 117.188C291.844 116.453 293.016 116.086 294.438 116.086C295.953 116.086 297.176 116.461 298.105 117.211C299.043 117.961 299.512 118.934 299.512 120.129H296.664C296.664 119.582 296.461 119.129 296.055 118.77C295.648 118.402 295.109 118.219 294.438 118.219C293.812 118.219 293.301 118.363 292.902 118.652C292.512 118.941 292.316 119.328 292.316 119.812C292.316 120.25 292.5 120.59 292.867 120.832C293.234 121.074 293.977 121.32 295.094 121.57C296.211 121.812 297.086 122.105 297.719 122.449C298.359 122.785 298.832 123.191 299.137 123.668C299.449 124.145 299.605 124.723 299.605 125.402C299.605 126.543 299.133 127.469 298.188 128.18C297.242 128.883 296.004 129.234 294.473 129.234C293.434 129.234 292.508 129.047 291.695 128.672C290.883 128.297 290.25 127.781 289.797 127.125C289.344 126.469 289.117 125.762 289.117 125.004H291.883C291.922 125.676 292.176 126.195 292.645 126.562C293.113 126.922 293.734 127.102 294.508 127.102C295.258 127.102 295.828 126.961 296.219 126.68C296.609 126.391 296.805 126.016 296.805 125.555ZM303.871 126C304.402 126 304.812 126.152 305.102 126.457C305.391 126.754 305.535 127.129 305.535 127.582C305.535 128.027 305.391 128.398 305.102 128.695C304.812 128.984 304.402 129.129 303.871 129.129C303.363 129.129 302.961 128.984 302.664 128.695C302.367 128.406 302.219 128.035 302.219 127.582C302.219 127.129 302.363 126.754 302.652 126.457C302.941 126.152 303.348 126 303.871 126Z" fill="#403468"/>
<path d="M52.135 37.05H57.04C58 37.05 58.675 36.855 59.065 36.465C59.485 36.045 59.695 35.355 59.695 34.395V20.67C59.695 19.71 59.485 19.035 59.065 18.645C58.675 18.225 58 18.015 57.04 18.015H52.135C51.805 18.015 51.64 18.18 51.64 18.51V36.555C51.64 36.885 51.805 37.05 52.135 37.05ZM45.925 41.055V14.01C45.925 13.38 46.24 13.065 46.87 13.065H57.985C60.325 13.065 62.14 13.71 63.43 15C64.75 16.26 65.41 18.06 65.41 20.4V34.665C65.41 37.005 64.75 38.82 63.43 40.11C62.14 41.37 60.325 42 57.985 42H46.87C46.24 42 45.925 41.685 45.925 41.055ZM87.268 42H77.323C74.953 42 73.123 41.37 71.833 40.11C70.543 38.85 69.898 37.035 69.898 34.665V26.385C69.898 24.015 70.543 22.2 71.833 20.94C73.123 19.68 74.953 19.05 77.323 19.05H80.878C83.248 19.05 85.078 19.68 86.368 20.94C87.658 22.2 88.303 24.015 88.303 26.385V32.1C88.303 32.73 87.988 33.045 87.358 33.045H76.063C75.703 33.045 75.523 33.21 75.523 33.54V34.53C75.523 35.46 75.718 36.135 76.108 36.555C76.528 36.945 77.218 37.14 78.178 37.14H87.268C87.898 37.14 88.213 37.47 88.213 38.13V41.1C88.213 41.43 88.138 41.67 87.988 41.82C87.868 41.94 87.628 42 87.268 42ZM76.063 29.22H82.183C82.513 29.22 82.678 29.055 82.678 28.725V26.565C82.678 25.605 82.483 24.93 82.093 24.54C81.703 24.15 81.028 23.955 80.068 23.955H78.178C77.218 23.955 76.543 24.15 76.153 24.54C75.763 24.93 75.568 25.605 75.568 26.565V28.725C75.568 29.055 75.733 29.22 76.063 29.22ZM107.209 37.995V41.1C107.209 41.43 107.134 41.67 106.984 41.82C106.864 41.94 106.624 42 106.264 42H99.5594C97.1894 42 95.3594 41.37 94.0694 40.11C92.7794 38.85 92.1344 37.035 92.1344 34.665V26.385C92.1344 24.015 92.7794 22.2 94.0694 20.94C95.3594 19.68 97.1894 19.05 99.5594 19.05H106.264C106.894 19.05 107.209 19.365 107.209 19.995V23.1C107.209 23.43 107.134 23.67 106.984 23.82C106.864 23.94 106.624 24 106.264 24H100.459C99.5294 24 98.8544 24.21 98.4344 24.63C98.0444 25.02 97.8494 25.695 97.8494 26.655V34.395C97.8494 35.355 98.0444 36.045 98.4344 36.465C98.8544 36.855 99.5294 37.05 100.459 37.05H106.264C106.894 37.05 107.209 37.365 107.209 37.995ZM128.005 42H118.06C115.69 42 113.86 41.37 112.57 40.11C111.28 38.85 110.635 37.035 110.635 34.665V26.385C110.635 24.015 111.28 22.2 112.57 20.94C113.86 19.68 115.69 19.05 118.06 19.05H121.615C123.985 19.05 125.815 19.68 127.105 20.94C128.395 22.2 129.04 24.015 129.04 26.385V32.1C129.04 32.73 128.725 33.045 128.095 33.045H116.8C116.44 33.045 116.26 33.21 116.26 33.54V34.53C116.26 35.46 116.455 36.135 116.845 36.555C117.265 36.945 117.955 37.14 118.915 37.14H128.005C128.635 37.14 128.95 37.47 128.95 38.13V41.1C128.95 41.43 128.875 41.67 128.725 41.82C128.605 41.94 128.365 42 128.005 42ZM116.8 29.22H122.92C123.25 29.22 123.415 29.055 123.415 28.725V26.565C123.415 25.605 123.22 24.93 122.83 24.54C122.44 24.15 121.765 23.955 120.805 23.955H118.915C117.955 23.955 117.28 24.15 116.89 24.54C116.5 24.93 116.305 25.605 116.305 26.565V28.725C116.305 29.055 116.47 29.22 116.8 29.22ZM138.092 42H134.267C133.637 42 133.322 41.685 133.322 41.055V19.995C133.322 19.365 133.637 19.05 134.267 19.05H138.092C138.722 19.05 139.037 19.365 139.037 19.995V21.48H139.217C139.877 19.86 141.347 19.05 143.627 19.05H145.067C149.777 19.05 152.132 21.495 152.132 26.385V41.055C152.132 41.685 151.802 42 151.142 42H147.362C146.732 42 146.417 41.685 146.417 41.055V26.655C146.417 25.695 146.207 25.02 145.787 24.63C145.397 24.21 144.722 24 143.762 24H142.142C140.072 24 139.037 25.14 139.037 27.42V41.055C139.037 41.685 138.722 42 138.092 42ZM157.371 24H155.571C155.211 24 154.956 23.94 154.806 23.82C154.686 23.7 154.626 23.46 154.626 23.1V19.995C154.626 19.365 154.941 19.05 155.571 19.05H157.371C157.701 19.05 157.866 18.885 157.866 18.555V14.28C157.866 13.65 158.196 13.335 158.856 13.335H162.636C163.266 13.335 163.581 13.65 163.581 14.28V18.555C163.581 18.885 163.761 19.05 164.121 19.05H167.631C168.261 19.05 168.576 19.365 168.576 19.995V23.1C168.576 23.43 168.501 23.67 168.351 23.82C168.231 23.94 167.991 24 167.631 24H164.121C163.761 24 163.581 24.165 163.581 24.495V34.44C163.581 35.37 163.791 36.045 164.211 36.465C164.631 36.855 165.321 37.05 166.281 37.05H168.081C168.711 37.05 169.026 37.365 169.026 37.995V41.1C169.026 41.43 168.951 41.67 168.801 41.82C168.681 41.94 168.441 42 168.081 42H165.336C162.966 42 161.121 41.37 159.801 40.11C158.511 38.85 157.866 37.05 157.866 34.71V24.495C157.866 24.165 157.701 24 157.371 24ZM177.511 42H173.686C173.056 42 172.741 41.685 172.741 41.055V19.995C172.741 19.365 173.056 19.05 173.686 19.05H177.511C178.141 19.05 178.456 19.365 178.456 19.995V21.525H178.636C178.966 20.715 179.551 20.1 180.391 19.68C181.231 19.26 182.116 19.05 183.046 19.05H184.666C185.266 19.05 185.566 19.365 185.566 19.995V23.1C185.566 23.46 185.491 23.715 185.341 23.865C185.221 23.985 184.996 24.03 184.666 24H181.561C179.491 24 178.456 25.17 178.456 27.51V41.055C178.456 41.685 178.141 42 177.511 42ZM196.484 42H195.404C193.034 42 191.204 41.37 189.914 40.11C188.624 38.85 187.979 37.035 187.979 34.665V26.385C187.979 24.015 188.624 22.2 189.914 20.94C191.204 19.68 193.034 19.05 195.404 19.05H205.799C206.459 19.05 206.789 19.365 206.789 19.995V41.055C206.789 41.685 206.459 42 205.799 42H202.019C201.389 42 201.074 41.685 201.074 41.055V39.57H200.894C200.564 40.38 199.979 40.995 199.139 41.415C198.299 41.805 197.414 42 196.484 42ZM201.074 33.63V24.495C201.074 24.165 200.894 24 200.534 24H196.304C195.344 24 194.669 24.21 194.279 24.63C193.889 25.02 193.694 25.695 193.694 26.655V34.395C193.694 35.355 193.889 36.045 194.279 36.465C194.669 36.855 195.344 37.05 196.304 37.05H197.969C200.039 37.05 201.074 35.91 201.074 33.63ZM216.715 42H212.89C212.26 42 211.945 41.685 211.945 41.055V11.31C211.945 10.68 212.26 10.365 212.89 10.365H216.715C217.345 10.365 217.66 10.68 217.66 11.31V41.055C217.66 41.685 217.345 42 216.715 42ZM223.063 15.18V11.265C223.063 10.665 223.363 10.365 223.963 10.365H227.878C228.478 10.365 228.778 10.65 228.778 11.22V15.18C228.778 15.78 228.478 16.08 227.878 16.08H223.963C223.363 16.08 223.063 15.78 223.063 15.18ZM223.063 41.055V19.995C223.063 19.365 223.363 19.05 223.963 19.05H227.833C228.463 19.05 228.778 19.365 228.778 19.995V41.055C228.778 41.445 228.703 41.7 228.553 41.82C228.433 41.94 228.208 42 227.878 42H224.008C223.378 42 223.063 41.685 223.063 41.055ZM232.876 41.055V39.57C232.876 38.55 233.161 37.68 233.731 36.96L243.271 24.135V23.955H234.226C233.596 23.955 233.281 23.625 233.281 22.965V19.995C233.281 19.365 233.596 19.05 234.226 19.05H248.896C249.526 19.05 249.841 19.365 249.841 19.995V22.695C249.841 23.655 249.601 24.435 249.121 25.035L240.301 36.915V37.095H249.391C250.021 37.095 250.336 37.425 250.336 38.085V41.055C250.336 41.685 250.021 42 249.391 42H233.821C233.191 42 232.876 41.685 232.876 41.055ZM271.091 42H261.146C258.776 42 256.946 41.37 255.656 40.11C254.366 38.85 253.721 37.035 253.721 34.665V26.385C253.721 24.015 254.366 22.2 255.656 20.94C256.946 19.68 258.776 19.05 261.146 19.05H264.701C267.071 19.05 268.901 19.68 270.191 20.94C271.481 22.2 272.126 24.015 272.126 26.385V32.1C272.126 32.73 271.811 33.045 271.181 33.045H259.886C259.526 33.045 259.346 33.21 259.346 33.54V34.53C259.346 35.46 259.541 36.135 259.931 36.555C260.351 36.945 261.041 37.14 262.001 37.14H271.091C271.721 37.14 272.036 37.47 272.036 38.13V41.1C272.036 41.43 271.961 41.67 271.811 41.82C271.691 41.94 271.451 42 271.091 42ZM259.886 29.22H266.006C266.336 29.22 266.501 29.055 266.501 28.725V26.565C266.501 25.605 266.306 24.93 265.916 24.54C265.526 24.15 264.851 23.955 263.891 23.955H262.001C261.041 23.955 260.366 24.15 259.976 24.54C259.586 24.93 259.391 25.605 259.391 26.565V28.725C259.391 29.055 259.556 29.22 259.886 29.22ZM284.823 42H282.978C280.668 42 278.913 41.37 277.713 40.11C276.543 38.85 275.958 37.035 275.958 34.665V26.385C275.958 24.015 276.543 22.2 277.713 20.94C278.913 19.68 280.668 19.05 282.978 19.05H284.823C285.753 19.05 286.638 19.26 287.478 19.68C288.318 20.07 288.903 20.67 289.233 21.48H289.413V11.31C289.413 10.68 289.728 10.365 290.358 10.365H294.183C294.813 10.365 295.128 10.68 295.128 11.31V41.055C295.128 41.685 294.813 42 294.183 42H290.358C289.728 42 289.413 41.685 289.413 41.055V39.57H289.233C288.903 40.38 288.318 40.995 287.478 41.415C286.638 41.805 285.753 42 284.823 42ZM289.413 33.63V27.42C289.413 25.14 288.378 24 286.308 24H284.283C283.323 24 282.648 24.21 282.258 24.63C281.868 25.02 281.673 25.695 281.673 26.655V34.395C281.673 35.355 281.868 36.045 282.258 36.465C282.648 36.855 283.323 37.05 284.283 37.05H286.308C288.378 37.05 289.413 35.91 289.413 33.63Z" fill="#5D2CFF"/>
</svg>
