<svg width="505" height="554" viewBox="0 0 505 554" fill="none" xmlns="http://www.w3.org/2000/svg">
<path d="M95.3057 131.484V144.055" stroke="#263238" stroke-linecap="round" stroke-linejoin="round"/>
<path d="M101.901 137.776H88.6957" stroke="#263238" stroke-linecap="round" stroke-linejoin="round"/>
<path d="M425.344 98.3208V110.892" stroke="#263238" stroke-linecap="round" stroke-linejoin="round"/>
<path d="M431.954 104.599H418.749" stroke="#263238" stroke-linecap="round" stroke-linejoin="round"/>
<path d="M458.036 437.463V450.034" stroke="#263238" stroke-linecap="round" stroke-linejoin="round"/>
<path d="M464.646 443.755H451.441" stroke="#263238" stroke-linecap="round" stroke-linejoin="round"/>
<path d="M269.741 27.1055V39.6762" stroke="#263238" stroke-linecap="round" stroke-linejoin="round"/>
<path d="M276.336 33.3835H263.131" stroke="#263238" stroke-linecap="round" stroke-linejoin="round"/>
<path d="M237.763 1V13.5708" stroke="#263238" stroke-linecap="round" stroke-linejoin="round"/>
<path d="M244.373 7.29248H231.168" stroke="#263238" stroke-linecap="round" stroke-linejoin="round"/>
<path d="M58.3105 223.915V236.486" stroke="#263238" stroke-linecap="round" stroke-linejoin="round"/>
<path d="M64.9058 230.208H51.7007" stroke="#263238" stroke-linecap="round" stroke-linejoin="round"/>
<path d="M419.138 55.3866C420.518 49.8018 416.882 44.2093 411.015 42.8952C405.148 41.5812 399.274 45.0433 397.893 50.6281C396.513 56.2129 400.15 61.8055 406.016 63.1195C411.883 64.4335 417.758 60.9714 419.138 55.3866Z" stroke="#263238" stroke-linecap="round" stroke-linejoin="round"/>
<path d="M66.052 491.572V504.143" stroke="#263238" stroke-linecap="round" stroke-linejoin="round"/>
<path d="M72.6471 497.865H59.442" stroke="#263238" stroke-linecap="round" stroke-linejoin="round"/>
<path d="M59.8284 448.647C61.2087 443.062 57.5718 437.469 51.7053 436.155C45.8387 434.841 39.9639 438.304 38.5836 443.888C37.2033 449.473 40.8401 455.066 46.7067 456.38C52.5733 457.694 58.4481 454.232 59.8284 448.647Z" stroke="#263238" stroke-linecap="round" stroke-linejoin="round"/>
<path d="M74.965 161.381C80.4969 159.105 83.0427 152.99 80.6511 147.724C78.2595 142.458 71.8362 140.034 66.3043 142.311C60.7724 144.587 58.2266 150.702 60.6182 155.968C63.0098 161.235 69.4331 163.658 74.965 161.381Z" stroke="#263238" stroke-linecap="round" stroke-linejoin="round"/>
<path d="M434.772 432.053C440.345 429.868 443.001 423.796 440.705 418.491C438.41 413.186 432.031 410.658 426.459 412.843C420.886 415.028 418.23 421.1 420.526 426.405C422.821 431.71 429.2 434.239 434.772 432.053Z" stroke="#263238" stroke-linecap="round" stroke-linejoin="round"/>
<path d="M456.554 314.965C461.995 312.497 464.303 306.298 461.711 301.118C459.118 295.939 452.606 293.741 447.165 296.209C441.725 298.678 439.416 304.877 442.009 310.056C444.601 315.236 451.114 317.433 456.554 314.965Z" stroke="#263238" stroke-linecap="round" stroke-linejoin="round"/>
<path d="M469.053 159.304C469.004 159.898 468.722 160.453 468.263 160.858C467.803 161.263 467.2 161.488 466.574 161.488C465.948 161.488 465.345 161.263 464.885 160.858C464.426 160.453 464.144 159.898 464.095 159.304C464.069 158.979 464.113 158.652 464.226 158.344C464.338 158.036 464.517 157.753 464.749 157.514C464.982 157.274 465.264 157.083 465.578 156.952C465.892 156.822 466.231 156.754 466.574 156.754C466.917 156.754 467.256 156.822 467.57 156.952C467.884 157.083 468.166 157.274 468.399 157.514C468.632 157.753 468.81 158.036 468.922 158.344C469.035 158.652 469.079 158.979 469.053 159.304Z" stroke="#263238" stroke-linecap="round" stroke-linejoin="round"/>
<path d="M438.296 457.913C438.296 458.382 438.15 458.839 437.877 459.228C437.603 459.618 437.215 459.921 436.761 460.1C436.307 460.279 435.807 460.326 435.324 460.235C434.842 460.143 434.399 459.918 434.051 459.587C433.704 459.256 433.467 458.834 433.371 458.375C433.275 457.916 433.324 457.44 433.512 457.008C433.701 456.575 434.019 456.206 434.428 455.946C434.837 455.685 435.318 455.547 435.809 455.547C436.469 455.547 437.101 455.796 437.567 456.24C438.034 456.684 438.296 457.286 438.296 457.913V457.913Z" stroke="#263238" stroke-linecap="round" stroke-linejoin="round"/>
<path d="M409.593 356.298C409.544 356.892 409.262 357.447 408.803 357.852C408.343 358.257 407.74 358.482 407.114 358.482C406.488 358.482 405.885 358.257 405.425 357.852C404.966 357.447 404.684 356.892 404.635 356.298C404.609 355.973 404.653 355.646 404.766 355.338C404.878 355.03 405.057 354.747 405.289 354.508C405.522 354.268 405.804 354.077 406.118 353.946C406.432 353.816 406.771 353.748 407.114 353.748C407.457 353.748 407.796 353.816 408.11 353.946C408.424 354.077 408.706 354.268 408.939 354.508C409.172 354.747 409.35 355.03 409.462 355.338C409.575 355.646 409.619 355.973 409.593 356.298V356.298Z" stroke="#263238" stroke-linecap="round" stroke-linejoin="round"/>
<path d="M437.313 290.61C437.265 291.204 436.983 291.759 436.523 292.164C436.063 292.569 435.46 292.794 434.834 292.794C434.208 292.794 433.605 292.569 433.146 292.164C432.686 291.759 432.404 291.204 432.356 290.61C432.329 290.285 432.374 289.958 432.486 289.65C432.599 289.341 432.777 289.059 433.01 288.819C433.242 288.58 433.525 288.389 433.839 288.258C434.153 288.128 434.492 288.06 434.834 288.06C435.177 288.06 435.516 288.128 435.83 288.258C436.144 288.389 436.426 288.58 436.659 288.819C436.892 289.059 437.07 289.341 437.183 289.65C437.295 289.958 437.34 290.285 437.313 290.61Z" stroke="#263238" stroke-linecap="round" stroke-linejoin="round"/>
<path d="M210.951 21.6065C210.951 22.0746 210.805 22.5322 210.532 22.9214C210.258 23.3106 209.87 23.614 209.416 23.7931C208.962 23.9722 208.462 24.0191 207.979 23.9278C207.497 23.8365 207.054 23.6111 206.706 23.2801C206.359 22.9491 206.122 22.5274 206.026 22.0682C205.93 21.6091 205.979 21.1333 206.168 20.7008C206.356 20.2683 206.674 19.8987 207.083 19.6386C207.492 19.3786 207.973 19.2397 208.464 19.2397C209.124 19.2397 209.756 19.4891 210.222 19.933C210.689 20.3768 210.951 20.9788 210.951 21.6065V21.6065Z" stroke="#263238" stroke-linecap="round" stroke-linejoin="round"/>
<path d="M464.2 118.119C464.2 118.119 466.85 110.735 459.733 96.8608C452.617 82.9862 447.69 74.8655 447.69 74.8655C447.69 74.8655 436.167 90.0723 442.553 103.692C447.359 113.369 453.006 122.646 459.436 131.427L464.2 118.119Z" fill="#92E3A9"/>
<path d="M431.909 159.091C431.909 159.091 434.559 151.707 427.443 137.833C420.327 123.958 415.429 115.795 415.429 115.795C415.429 115.795 403.921 131.016 410.293 144.621C415.098 154.298 420.745 163.576 427.175 172.356L431.909 159.091Z" fill="#92E3A9"/>
<path d="M459.004 130.463C459.004 130.463 462.458 123.377 477.702 118.091C492.947 112.805 502.386 110.083 502.386 110.083C502.386 110.083 499.646 128.649 485.146 134.29C474.643 138.112 463.822 141.089 452.796 143.19L459.004 130.463Z" fill="#92E3A9"/>
<path d="M420.431 178.719C420.431 178.719 424.644 172.03 440.38 168.275C456.116 164.519 465.837 162.733 465.837 162.733C465.837 162.733 461.058 180.916 446.022 185.069C435.157 187.838 424.066 189.734 412.868 190.738L420.431 178.719Z" fill="#92E3A9"/>
<path d="M402.745 239.263C402.745 239.263 405.395 231.88 419.954 225.091C434.514 218.303 443.61 214.646 443.61 214.646C443.61 214.646 442.94 233.396 429.155 240.454C419.137 245.313 408.709 249.367 397.981 252.571L402.745 239.263Z" fill="#92E3A9"/>
<path d="M397.37 253.662C397.37 253.662 401.092 246.718 396.075 232.021C391.058 217.325 387.485 208.594 387.485 208.594C387.485 208.594 373.804 222.086 378.091 236.429C381.398 246.666 385.601 256.622 390.656 266.19L397.37 253.662Z" fill="#92E3A9"/>
<path d="M371.303 293.118C371.303 293.118 373.952 285.748 388.512 278.946C403.072 272.143 412.168 268.515 412.168 268.515C412.168 268.515 411.513 287.251 397.728 294.308C387.681 299.173 377.223 303.226 366.464 306.426L371.303 293.118Z" fill="#92E3A9"/>
<path d="M364.544 334.402C364.544 334.402 365.139 326.635 377.421 316.531C389.703 306.426 397.534 300.729 397.534 300.729C397.534 300.729 401.881 319.025 390.418 329.172C382.014 336.282 373.001 342.71 363.472 348.39L364.544 334.402Z" fill="#92E3A9"/>
<path d="M465.867 116.546C462.555 124.051 458.818 131.379 454.672 138.499C442.762 158.198 427.205 168.26 416.069 186.004C404.933 203.748 408.521 232.177 396.373 255.646C384.225 279.116 369.397 289.419 366.39 306.667C363.383 323.914 362.549 373.064 362.549 373.064" stroke="#263238" stroke-width="0.5" stroke-linecap="round" stroke-linejoin="round"/>
<path d="M457.143 135.339L471.911 130.591" stroke="#263238" stroke-width="0.5" stroke-linecap="round" stroke-linejoin="round"/>
<path d="M461.222 125.673L459.287 115.795" stroke="#263238" stroke-width="0.5" stroke-linecap="round" stroke-linejoin="round"/>
<path d="M417.036 185.409C417.036 185.409 429.333 181.596 441.913 177.883" stroke="#263238" stroke-width="0.5" stroke-linecap="round" stroke-linejoin="round"/>
<path d="M427.145 172.37C427.145 172.37 424.45 154.499 418.823 141.39" stroke="#263238" stroke-width="0.5" stroke-linecap="round" stroke-linejoin="round"/>
<path d="M399.365 249.864C408.468 241.876 418.744 235.192 429.869 230.023" stroke="#263238" stroke-width="0.5" stroke-linecap="round" stroke-linejoin="round"/>
<path d="M393.738 259.601C393.153 251.957 391.903 244.372 390.001 236.925C387.172 227.005 386.726 225.743 386.726 225.743" stroke="#263238" stroke-width="0.5" stroke-linecap="round" stroke-linejoin="round"/>
<path d="M366.39 306.695C370.962 301.613 375.939 296.875 381.277 292.523C386.475 288.583 392.007 285.061 397.817 281.993" stroke="#263238" stroke-width="0.5" stroke-linecap="round" stroke-linejoin="round"/>
<path d="M363.472 348.39C363.472 348.39 365.496 339.178 372.27 332.999C379.044 326.819 387.158 318.472 390.492 315.212" stroke="#263238" stroke-width="0.5" stroke-linecap="round" stroke-linejoin="round"/>
<path d="M357.755 193.615C357.755 193.615 358.574 188.711 366.925 182.943C375.277 177.175 380.562 173.944 380.562 173.944C380.562 173.944 382.289 185.763 374.444 191.616C368.718 195.702 362.642 199.324 356.281 202.444L357.755 193.615Z" fill="#92E3A9"/>
<path d="M363.1 225.814C363.1 225.814 363.918 220.91 372.27 215.142C380.622 209.374 385.922 206.143 385.922 206.143C385.922 206.143 387.679 218.005 379.803 223.816C374.071 227.9 367.991 231.522 361.626 234.643L363.1 225.814Z" fill="#92E3A9"/>
<path d="M356.817 202.033C356.817 202.033 357.085 197.073 350.162 189.774C343.24 182.475 338.788 178.28 338.788 178.28C338.788 178.28 334.516 189.505 340.917 196.775C345.631 201.899 350.785 206.639 356.326 210.947L356.817 202.033Z" fill="#92E3A9"/>
<path d="M363.412 240.099C363.412 240.099 363.129 235.153 355.462 228.577C347.795 222.001 342.868 218.288 342.868 218.288C342.868 218.288 339.89 229.867 347.021 236.471C352.257 241.095 357.89 245.295 363.859 249.028L363.412 240.099Z" fill="#92E3A9"/>
<path d="M354.45 279.158C354.45 279.158 355.269 274.269 349.21 266.304C343.151 258.339 339.161 253.733 339.161 253.733C339.161 253.733 333.682 264.462 339.161 272.342C343.276 277.898 347.878 283.113 352.917 287.931L354.45 279.158Z" fill="#92E3A9"/>
<path d="M352.976 288.866C352.976 288.866 353.051 283.892 360.42 277.061C367.789 270.23 372.583 266.304 372.583 266.304C372.583 266.304 376.052 277.77 369.159 284.629C364.093 289.442 358.615 293.846 352.783 297.795L352.976 288.866Z" fill="#92E3A9"/>
<path d="M353.199 330.575C353.199 330.575 355.447 326.083 365.109 322.795C374.771 319.507 380.86 317.82 380.86 317.82C380.86 317.82 379.014 329.626 369.754 333.141C363.049 335.516 356.147 337.356 349.12 338.639L353.199 330.575Z" fill="#92E3A9"/>
<path d="M355.313 318.401C355.313 318.401 356.132 313.498 350.073 305.547C344.014 297.596 340.024 292.962 340.024 292.962C340.024 292.962 334.546 303.691 340.099 311.57C344.211 317.125 348.808 322.34 353.84 327.16L355.313 318.401Z" fill="#92E3A9"/>
<path d="M346.188 343.529C346.188 343.529 348.287 338.979 344.535 329.824C340.783 320.669 338.163 315.227 338.163 315.227C338.163 315.227 330.005 324.297 333.28 333.254C335.776 339.629 338.834 345.792 342.421 351.678L346.188 343.529Z" fill="#92E3A9"/>
<path d="M357.308 192.268C356.818 197.427 356.629 202.608 356.743 207.787C357.249 222.228 362.861 232.347 363.606 245.443C364.35 258.538 353.438 273.603 352.917 290.199C352.396 306.794 357.532 316.842 353.81 327.401C350.088 337.959 335.216 365.85 335.216 365.85" stroke="#263238" stroke-width="0.5" stroke-linecap="round" stroke-linejoin="round"/>
<path d="M356.341 205.307L349.522 198.448" stroke="#263238" stroke-width="0.5" stroke-linecap="round" stroke-linejoin="round"/>
<path d="M357.07 198.717L361.239 193.7" stroke="#263238" stroke-width="0.5" stroke-linecap="round" stroke-linejoin="round"/>
<path d="M363.263 244.79C363.263 244.79 357.532 239.122 351.621 233.453" stroke="#263238" stroke-width="0.5" stroke-linecap="round" stroke-linejoin="round"/>
<path d="M361.626 234.643C365.869 229.165 370.688 224.113 376.007 219.564" stroke="#263238" stroke-width="0.5" stroke-linecap="round" stroke-linejoin="round"/>
<path d="M353.036 286.103C350.411 279.019 346.72 272.336 342.079 266.261" stroke="#263238" stroke-width="0.5" stroke-linecap="round" stroke-linejoin="round"/>
<path d="M353.155 293.118C355.865 288.994 358.933 285.092 362.325 281.454C367.015 276.692 367.67 276.083 367.67 276.083" stroke="#263238" stroke-width="0.5" stroke-linecap="round" stroke-linejoin="round"/>
<path d="M350.564 335.28C350.564 335.28 358.38 330.646 362.668 329.356C365.258 328.581 367.778 327.604 370.201 326.437" stroke="#263238" stroke-width="0.5" stroke-linecap="round" stroke-linejoin="round"/>
<path d="M353.81 327.401C352.816 323.256 351.487 319.191 349.835 315.241C348.163 311.556 346.171 308.01 343.88 304.64" stroke="#263238" stroke-width="0.5" stroke-linecap="round" stroke-linejoin="round"/>
<path d="M342.421 351.706C343.42 348.043 343.374 344.193 342.287 340.552C340.396 335.153 338.416 328.152 337.583 325.374" stroke="#263238" stroke-width="0.5" stroke-linecap="round" stroke-linejoin="round"/>
<path d="M86.2542 271.052C86.2542 271.052 83.7978 264.306 70.4736 258.141C57.1494 251.976 48.8125 248.688 48.8125 248.688C48.8125 248.688 49.4824 265.808 62.1069 272.214C71.2869 276.626 80.8382 280.3 90.6609 283.197L86.2542 271.052Z" fill="#92E3A9"/>
<path d="M87.1624 317.848C87.1624 317.848 84.7209 311.102 71.3818 304.937C58.0427 298.773 49.7356 295.485 49.7356 295.485C49.7356 295.485 50.4204 312.605 63.0449 319.011C72.2167 323.41 81.7578 327.075 91.5691 329.966L87.1624 317.848Z" fill="#92E3A9"/>
<path d="M89.7974 282.716C89.7974 282.716 88.1151 275.785 95.9608 263.81C103.806 251.834 109.017 244.833 109.017 244.833C109.017 244.833 117.949 259.686 110.893 271.491C105.599 279.86 99.5833 287.795 92.9089 295.216L89.7974 282.716Z" fill="#92E3A9"/>
<path d="M90.4823 338.115C90.4823 338.115 89.5742 331.029 98.7001 319.932C107.826 308.835 113.751 302.373 113.751 302.373C113.751 302.373 121.046 318.033 112.664 329.059C106.452 336.858 99.5648 344.149 92.0753 350.856L90.4823 338.115Z" fill="#92E3A9"/>
<path d="M113.438 391.204C113.438 391.204 110.997 384.472 117.473 371.774C123.949 359.076 128.356 351.607 128.356 351.607C128.356 351.607 138.941 365.467 133.164 377.925C128.814 386.788 123.69 395.289 117.845 403.336L113.438 391.204Z" fill="#92E3A9"/>
<path d="M118.083 404.484C118.083 404.484 116.595 397.483 104.387 389.574C92.1795 381.666 84.3636 377.287 84.3636 377.287C84.3636 377.287 82.4729 394.294 94.0106 402.372C102.438 407.972 111.342 412.893 120.629 417.083L118.083 404.484Z" fill="#92E3A9"/>
<path d="M122.55 446.873C122.55 446.873 120.108 440.141 126.584 427.457C133.06 414.773 137.467 407.275 137.467 407.275C137.467 407.275 148.052 421.136 142.29 433.593C137.932 442.455 132.802 450.955 126.956 459.004L122.55 446.873Z" fill="#92E3A9"/>
<path d="M142.037 480.192C142.037 480.192 137.869 474.268 140.772 460.421C143.675 446.575 145.923 438.284 145.923 438.284C145.923 438.284 159.857 449.14 157.58 462.59C155.727 472.211 153.033 481.669 149.526 490.863L142.037 480.192Z" fill="#92E3A9"/>
<path d="M86.5222 269.025C88.5781 276.204 90.2133 283.485 91.4201 290.836C94.5018 311.372 89.2317 327.032 91.6435 345.711C94.0552 364.39 113.439 383.098 118.545 406.439C123.651 429.781 119.036 445.2 127.075 459.259C135.115 473.318 163.475 509.174 163.475 509.174" stroke="#263238" stroke-width="0.5" stroke-linecap="round" stroke-linejoin="round"/>
<path d="M91.3308 287.236L99.1616 275.913" stroke="#263238" stroke-width="0.5" stroke-linecap="round" stroke-linejoin="round"/>
<path d="M88.5617 278.081L81.3413 272.001" stroke="#263238" stroke-width="0.5" stroke-linecap="round" stroke-linejoin="round"/>
<path d="M91.9264 344.719C91.9264 344.719 98.5513 335.394 105.414 325.983" stroke="#263238" stroke-width="0.5" stroke-linecap="round" stroke-linejoin="round"/>
<path d="M91.569 329.966C91.569 329.966 79.0785 318.529 67.2877 312.081" stroke="#263238" stroke-width="0.5" stroke-linecap="round" stroke-linejoin="round"/>
<path d="M117.279 400.671C119.121 390.039 122.577 379.717 127.537 370.031" stroke="#263238" stroke-width="0.5" stroke-linecap="round" stroke-linejoin="round"/>
<path d="M118.977 410.748C114.055 405.564 108.686 400.781 102.928 396.448C95.0526 390.779 93.9956 390.127 93.9956 390.127" stroke="#263238" stroke-width="0.5" stroke-linecap="round" stroke-linejoin="round"/>
<path d="M127.06 459.259C127.374 453.158 128.18 447.088 129.472 441.105C130.896 435.49 132.803 429.996 135.174 424.679" stroke="#263238" stroke-width="0.5" stroke-linecap="round" stroke-linejoin="round"/>
<path d="M149.57 490.892C147.197 485.95 146.247 480.496 146.816 475.09C148.052 467.011 149.004 456.666 149.466 452.513" stroke="#263238" stroke-width="0.5" stroke-linecap="round" stroke-linejoin="round"/>
<path d="M54.0976 382.403C54.0976 382.403 51.79 378.435 54.4102 369.804C57.0304 361.173 58.8764 356.029 58.8764 356.029C58.8764 356.029 67.0942 363.625 64.8313 372.029C63.1438 378.013 60.9378 383.853 58.2362 389.489L54.0976 382.403Z" fill="#92E3A9"/>
<path d="M76.9496 402.74C76.9496 402.74 74.6421 398.758 77.2622 390.141C79.8824 381.524 81.7284 376.352 81.7284 376.352C81.7284 376.352 89.9463 383.948 87.6834 392.366C85.9687 398.373 83.7277 404.233 80.9841 409.883L76.9496 402.74Z" fill="#92E3A9"/>
<path d="M58.3851 388.965C58.3851 388.965 55.6905 385.238 46.3561 383.679C37.0217 382.12 31.3794 381.482 31.3794 381.482C31.3794 381.482 34.9226 391.856 43.8252 393.67C50.2465 394.848 56.7602 395.512 63.2979 395.654L58.3851 388.965Z" fill="#92E3A9"/>
<path d="M85.6141 412.86C85.6141 412.86 82.4877 409.444 73.0789 408.82C63.6701 408.197 57.9236 408.126 57.9236 408.126C57.9236 408.126 62.5982 418.047 71.6497 419.01C78.1689 419.53 84.7223 419.53 91.2415 419.01L85.6141 412.86Z" fill="#92E3A9"/>
<path d="M102.199 445.81C102.199 445.81 99.906 441.841 90.8396 439.347C81.7732 436.853 76.1755 435.648 76.1755 435.648C76.1755 435.648 78.5575 446.32 87.2071 449.027C93.4485 450.837 99.8374 452.151 106.308 452.952L102.199 445.81Z" fill="#92E3A9"/>
<path d="M106.829 453.548C106.829 453.548 103.955 449.934 105.25 441.034C106.546 432.134 107.677 426.791 107.677 426.791C107.677 426.791 116.937 433.197 116.029 441.813C115.22 447.994 113.871 454.1 111.994 460.067L106.829 453.548Z" fill="#92E3A9"/>
<path d="M131.616 483.522C131.616 483.522 130.574 479.1 135.636 471.518C140.697 463.936 144.062 459.514 144.062 459.514C144.062 459.514 149.704 469.01 145.104 476.521C141.685 481.823 137.806 486.843 133.507 491.529L131.616 483.522Z" fill="#92E3A9"/>
<path d="M125.974 473.616C125.974 473.616 123.681 469.647 114.615 467.153C105.548 464.659 99.9506 463.468 99.9506 463.468C99.9506 463.468 102.333 474.14 110.982 476.847C117.238 478.66 123.642 479.973 130.127 480.773L125.974 473.616Z" fill="#92E3A9"/>
<path d="M134.236 496.603C134.236 496.603 133.06 492.21 124.946 487.618C116.833 483.026 111.756 480.532 111.756 480.532C111.756 480.532 111.22 491.416 118.858 496.121C124.426 499.387 130.273 502.203 136.335 504.54L134.236 496.603Z" fill="#92E3A9"/>
<path d="M52.9661 381.652C55.6663 385.63 58.5884 389.466 61.7198 393.146C70.6523 403.279 80.6417 407.573 88.8893 416.615C97.1369 425.657 98.1939 442.352 107.603 454.583C117.011 466.813 126.658 471.32 130.217 480.915C133.775 490.509 139.506 518.57 139.506 518.57" stroke="#263238" stroke-width="0.5" stroke-linecap="round" stroke-linejoin="round"/>
<path d="M59.9779 391.573L51.0157 390.283" stroke="#263238" stroke-width="0.5" stroke-linecap="round" stroke-linejoin="round"/>
<path d="M56.6135 386.428L56.6582 380.589" stroke="#263238" stroke-width="0.5" stroke-linecap="round" stroke-linejoin="round"/>
<path d="M88.2789 416.331C88.2789 416.331 80.8352 415.339 73.2278 414.418" stroke="#263238" stroke-width="0.5" stroke-linecap="round" stroke-linejoin="round"/>
<path d="M81.1032 409.883C80.9301 403.667 81.429 397.451 82.5919 391.332" stroke="#263238" stroke-width="0.5" stroke-linecap="round" stroke-linejoin="round"/>
<path d="M105.28 451.564C99.2136 447.867 92.6138 445.031 85.6885 443.145" stroke="#263238" stroke-width="0.5" stroke-linecap="round" stroke-linejoin="round"/>
<path d="M109.538 456.595C109.068 452.192 108.983 447.76 109.285 443.344C109.851 437.405 109.97 436.626 109.97 436.626" stroke="#263238" stroke-width="0.5" stroke-linecap="round" stroke-linejoin="round"/>
<path d="M132.524 488.326C133.924 484.604 135.673 481.008 137.75 477.584C139.151 475.633 140.391 473.582 141.457 471.447" stroke="#263238" stroke-width="0.5" stroke-linecap="round" stroke-linejoin="round"/>
<path d="M130.217 480.914C127.052 478.46 123.692 476.243 120.168 474.282C116.776 472.525 113.235 471.041 109.583 469.846" stroke="#263238" stroke-width="0.5" stroke-linecap="round" stroke-linejoin="round"/>
<path d="M136.335 504.525C134.896 501.353 132.593 498.603 129.666 496.56C125.125 493.726 119.557 489.687 117.324 488.128" stroke="#263238" stroke-width="0.5" stroke-linecap="round" stroke-linejoin="round"/>
<path d="M368.519 86.657H160.944C149.006 86.657 139.328 95.8701 139.328 107.235V532.02C139.328 543.385 149.006 552.598 160.944 552.598H368.519C380.457 552.598 390.135 543.385 390.135 532.02V107.235C390.135 95.8701 380.457 86.657 368.519 86.657Z" fill="#263238"/>
<path opacity="0.1" d="M160.944 86.657C155.211 86.657 149.713 88.825 145.659 92.6842C141.605 96.5433 139.328 101.777 139.328 107.235V532.02C139.326 535.032 140.02 538.007 141.36 540.735C142.701 543.464 144.655 545.878 147.084 547.808L293.412 86.657H160.944Z" fill="white"/>
<path d="M273.254 539.12C273.254 537.513 272.754 535.943 271.816 534.607C270.878 533.271 269.544 532.231 267.985 531.616C266.425 531.002 264.709 530.842 263.054 531.157C261.399 531.471 259.879 532.246 258.687 533.383C257.494 534.52 256.683 535.968 256.355 537.545C256.028 539.121 256.199 540.754 256.847 542.238C257.495 543.721 258.591 544.989 259.995 545.879C261.4 546.77 263.051 547.244 264.739 547.241C265.858 547.241 266.967 547.031 268.001 546.622C269.035 546.214 269.974 545.616 270.765 544.862C271.556 544.107 272.183 543.212 272.61 542.227C273.037 541.242 273.256 540.186 273.254 539.12V539.12Z" stroke="white" stroke-linecap="round" stroke-linejoin="round"/>
<path d="M368.519 86.657H160.944C149.006 86.657 139.328 95.8701 139.328 107.235V532.02C139.328 543.385 149.006 552.598 160.944 552.598H368.519C380.457 552.598 390.135 543.385 390.135 532.02V107.235C390.135 95.8701 380.457 86.657 368.519 86.657Z" stroke="#263238" stroke-linecap="round" stroke-linejoin="round"/>
<path d="M378.984 118.303H150.478V524.948H378.984V118.303Z" fill="#92E3A9"/>
<path d="M299.009 173.136C264.887 155.69 240.874 167.722 240.874 167.722C240.874 167.722 213.705 172.527 193.488 205.01C173.271 237.492 158.741 302.444 178.332 336.131C197.924 369.819 236.393 383.041 280.058 379.442C323.722 375.842 353.348 318.685 353.348 275.389C353.348 232.093 333.131 190.568 299.009 173.136ZM182.754 325.304C180.148 311.194 179.931 296.778 182.114 282.603C182.114 282.603 189.706 341.545 196.019 354.782C196.019 354.782 187.175 346.973 182.754 325.304Z" fill="#263238" stroke="#263238" stroke-linecap="round" stroke-linejoin="round"/>
<path d="M233.296 313.271C233.296 313.271 239.624 345.754 238.358 356.582C237.093 367.409 234.562 371.619 211.189 375.828C187.816 380.037 165.038 384.246 166.958 410.72C168.879 437.194 189.066 486.499 189.066 486.499C189.066 486.499 191.597 512.363 203.596 528.605H474.025C474.025 528.605 434.216 464.248 415.964 432.97C397.713 401.692 386.19 375.828 372.3 363.2C358.41 350.573 299.635 357.191 299.635 357.191C299.635 357.191 295.168 329.513 293.948 312.067C292.727 294.621 292.697 290.426 292.697 290.426C292.697 290.426 261.136 318.629 233.296 313.271Z" fill="white"/>
<path d="M213.124 204.074C213.124 204.074 185.374 242.878 182.114 282.603" stroke="#8C8C8C" stroke-linecap="round" stroke-linejoin="round"/>
<g opacity="0.2">
<path opacity="0.2" d="M233.297 313.271C233.297 313.271 235.768 326.026 237.316 338.172C240.573 340.487 244.224 342.251 248.11 343.387C268.103 349.51 287.368 343.387 287.368 343.387L296.821 337.889C295.69 329.47 294.513 319.776 293.948 312.067C292.697 294.635 292.697 290.426 292.697 290.426C292.697 290.426 261.136 318.629 233.297 313.271Z" fill="black"/>
<path opacity="0.2" d="M441.169 475.048C431.864 459.77 422.485 444.223 415.86 432.97C397.549 401.692 386.175 375.828 372.27 363.2C366.315 357.73 351.8 355.873 337.359 355.519L355.224 375.36L439.457 486.13L441.169 475.048Z" fill="black"/>
</g>
<path d="M233.297 313.271C233.297 313.271 239.624 345.754 238.358 356.582C237.093 367.409 234.562 371.619 211.189 375.828C187.816 380.037 165.038 384.246 166.958 410.72C168.879 437.194 189.066 486.499 189.066 486.499C189.066 486.499 191.597 512.363 203.596 528.605H474.025C474.025 528.605 434.216 464.248 415.964 432.97C397.713 401.692 386.19 375.828 372.3 363.2C358.41 350.573 299.635 357.191 299.635 357.191C299.635 357.191 295.168 329.513 293.948 312.067C292.727 294.621 292.697 290.426 292.697 290.426C292.697 290.426 261.136 318.629 233.297 313.271Z" stroke="#263238" stroke-linecap="round" stroke-linejoin="round"/>
<path d="M400.884 528.604L376.721 496.731C376.721 496.731 366.613 508.763 343.865 498.531C321.117 488.299 310.383 461.839 310.383 442.593C310.383 424.325 315.505 362.194 316.026 355.901C312.378 356.1 309.133 356.327 306.513 356.539C305.575 362.902 296.672 422.341 288.901 446.802C280.683 472.667 264.888 481.085 233.937 470.895C202.986 460.705 219.392 409.543 221.297 398.12C222.474 391.034 227.252 378.619 230.781 370.215C227.884 371.718 224.797 372.861 221.595 373.617C211.26 394.393 202.503 415.848 195.393 437.817C190.731 453.276 188.445 469.296 188.605 485.379L189.066 486.527C189.066 486.527 191.597 512.391 203.596 528.633L400.884 528.604Z" fill="#808080" stroke="#263238" stroke-linecap="round" stroke-linejoin="round"/>
<path d="M246.859 177.912C239.75 180.049 233.242 183.693 227.827 188.571C222.412 193.449 218.229 199.433 215.595 206.072C206.276 229.031 214.851 231.2 210.727 248.036C203.164 278.861 219.972 307.262 228.741 315.61C237.51 323.957 243.569 327.132 253.975 327.132C264.381 327.132 290.136 303.152 295.064 293.756C299.992 284.36 297.253 248.405 295.064 235.338C292.876 222.271 259.454 183.652 246.859 177.912Z" fill="white"/>
<path opacity="0.2" d="M246.859 177.912L245.891 178.181C245.981 184.856 247.067 198.618 253.811 209.516C263.101 224.468 274.52 228.535 285.938 246.208C297.357 263.881 292.399 277.529 283.095 293.118C273.79 308.708 263.101 320.981 250.253 322.341C245.747 322.816 241.197 322.759 236.706 322.171C241.723 325.601 247.803 327.333 253.975 327.089C264.396 327.089 290.137 303.11 295.064 293.714C299.992 284.317 297.253 248.362 295.064 235.296C292.876 222.229 259.454 183.652 246.859 177.912Z" fill="black"/>
<path d="M246.859 177.912C239.75 180.049 233.242 183.693 227.827 188.571C222.412 193.449 218.229 199.433 215.595 206.072C206.276 229.031 214.851 231.2 210.727 248.036C203.164 278.861 219.972 307.262 228.741 315.61C237.51 323.957 243.569 327.132 253.975 327.132C264.381 327.132 290.136 303.152 295.064 293.756C299.992 284.36 297.253 248.405 295.064 235.338C292.876 222.271 259.454 183.652 246.859 177.912Z" stroke="#263238" stroke-linecap="round" stroke-linejoin="round"/>
<path d="M240.919 245.018L237.346 256.908C236.155 260.862 227.833 261.429 230.215 265.412C232.597 269.394 243.896 270.514 245.683 270.514" stroke="#263238" stroke-linecap="round" stroke-linejoin="round"/>
<path d="M264.5 258.481C268.086 256.423 272.226 255.409 276.41 255.562" stroke="#263238" stroke-linecap="round" stroke-linejoin="round"/>
<path d="M218.752 254.456C218.752 254.456 225.287 254.102 229.173 257.39" stroke="#263238" stroke-linecap="round" stroke-linejoin="round"/>
<path d="M278.956 263.98C279.935 263.98 280.728 263.225 280.728 262.294C280.728 261.362 279.935 260.607 278.956 260.607C277.978 260.607 277.185 261.362 277.185 262.294C277.185 263.225 277.978 263.98 278.956 263.98Z" stroke="#263238" stroke-width="0.5" stroke-linecap="round" stroke-linejoin="round"/>
<path d="M266.57 265.738C267.063 265.738 267.463 265.357 267.463 264.887C267.463 264.418 267.063 264.037 266.57 264.037C266.076 264.037 265.677 264.418 265.677 264.887C265.677 265.357 266.076 265.738 266.57 265.738Z" stroke="#263238" stroke-width="0.5" stroke-linecap="round" stroke-linejoin="round"/>
<path d="M275.13 269.21C275.623 269.21 276.023 268.829 276.023 268.36C276.023 267.89 275.623 267.509 275.13 267.509C274.637 267.509 274.237 267.89 274.237 268.36C274.237 268.829 274.637 269.21 275.13 269.21Z" stroke="#263238" stroke-width="0.5" stroke-linecap="round" stroke-linejoin="round"/>
<path d="M221.848 261.231C222.342 261.231 222.741 260.85 222.741 260.381C222.741 259.911 222.342 259.53 221.848 259.53C221.355 259.53 220.955 259.911 220.955 260.381C220.955 260.85 221.355 261.231 221.848 261.231Z" stroke="#263238" stroke-width="0.5" stroke-linecap="round" stroke-linejoin="round"/>
<path d="M215.506 266.602C215.999 266.602 216.399 266.221 216.399 265.752C216.399 265.282 215.999 264.901 215.506 264.901C215.013 264.901 214.613 265.282 214.613 265.752C214.613 266.221 215.013 266.602 215.506 266.602Z" stroke="#263238" stroke-width="0.5" stroke-linecap="round" stroke-linejoin="round"/>
<path d="M216.385 259.955C216.385 260.181 216.291 260.397 216.123 260.557C215.955 260.716 215.728 260.806 215.491 260.806C215.254 260.806 215.027 260.716 214.86 260.557C214.692 260.397 214.598 260.181 214.598 259.955C214.598 259.73 214.692 259.514 214.86 259.354C215.027 259.195 215.254 259.105 215.491 259.105C215.728 259.105 215.955 259.195 216.123 259.354C216.291 259.514 216.385 259.73 216.385 259.955V259.955Z" stroke="#263238" stroke-width="0.5" stroke-linecap="round" stroke-linejoin="round"/>
<path d="M214.538 229.017C214.538 229.017 219.511 220.656 233.192 226.325" stroke="#263238" stroke-width="2" stroke-linecap="round" stroke-linejoin="round"/>
<path d="M252.203 224.624C252.203 224.624 269.458 215.568 281.353 229.726" stroke="#263238" stroke-width="2" stroke-linecap="round" stroke-linejoin="round"/>
<path d="M234.979 282.957C234.979 282.957 253.409 295.825 266.897 278.351" stroke="#263238" stroke-linecap="round" stroke-linejoin="round"/>
<path d="M226.806 253.238C228.549 253.238 229.962 251.061 229.962 248.377C229.962 245.692 228.549 243.516 226.806 243.516C225.063 243.516 223.65 245.692 223.65 248.377C223.65 251.061 225.063 253.238 226.806 253.238Z" fill="#263238"/>
<path d="M271.557 249.411C271.557 252.104 270.143 254.272 268.386 254.272C266.629 254.272 265.23 252.104 265.23 249.411C265.23 246.718 266.644 244.55 268.386 244.55C270.128 244.55 271.557 246.733 271.557 249.411Z" fill="#263238"/>
<path d="M260.555 243.884C260.555 243.884 267.686 240.483 273.641 245.018" stroke="#263238" stroke-width="2" stroke-linecap="round" stroke-linejoin="round"/>
<path d="M216.474 243.884C216.474 243.884 225.987 237.081 231.942 245.018" stroke="#263238" stroke-width="2" stroke-linecap="round" stroke-linejoin="round"/>
<path d="M295.064 235.281C295.064 235.281 302.136 268.005 273.85 311.245C253.886 341.758 248.139 360.607 248.139 384.671C248.139 408.736 264.262 421.519 264.262 421.519C264.262 421.519 260.466 450.388 276.262 468.429C292.057 486.47 305.962 487.675 315.43 487.675C322.032 487.531 328.599 486.723 335.022 485.266L324.288 480.461C330.861 481.042 337.479 479.957 343.469 477.316C349.46 474.675 354.609 470.573 358.395 465.425C366.673 454.677 370.5 441.402 369.144 428.137C369.144 428.137 374.191 435.946 368.504 453.988C368.504 453.988 373.565 453.988 376.096 438.951C378.627 423.914 378.612 408.877 371.034 396.25C363.457 383.622 362.817 378.804 362.817 378.804C362.817 378.804 364.082 381.822 371.034 382.418C375.664 382.616 380.26 381.575 384.299 379.413C384.299 379.413 375.456 375.799 372.3 370.385C369.144 364.972 366.613 359.558 366.613 359.558L372.925 360.763C366.355 352.148 361.241 342.608 357.77 332.489C352.708 316.899 365.988 293.997 359.035 261.514C354.439 241.292 345.392 222.227 332.491 205.576" fill="#263238"/>
<path d="M295.064 235.281C295.064 235.281 302.136 268.005 273.85 311.245C253.886 341.758 248.139 360.607 248.139 384.671C248.139 408.736 264.262 421.519 264.262 421.519C264.262 421.519 260.466 450.388 276.262 468.429C292.057 486.47 305.962 487.675 315.43 487.675C322.032 487.531 328.599 486.723 335.022 485.266L324.288 480.461C330.861 481.042 337.479 479.957 343.469 477.316C349.46 474.675 354.609 470.573 358.395 465.425C366.673 454.677 370.5 441.402 369.144 428.137C369.144 428.137 374.191 435.946 368.504 453.988C368.504 453.988 373.565 453.988 376.096 438.951C378.627 423.914 378.612 408.877 371.034 396.25C363.457 383.622 362.817 378.804 362.817 378.804C362.817 378.804 364.082 381.822 371.034 382.418C375.664 382.616 380.26 381.575 384.299 379.413C384.299 379.413 375.456 375.799 372.3 370.385C369.144 364.972 366.613 359.558 366.613 359.558L372.925 360.763C366.355 352.148 361.241 342.608 357.77 332.489C352.708 316.899 365.988 293.997 359.035 261.514C354.439 241.292 345.392 222.227 332.491 205.576" stroke="#263238" stroke-linecap="round" stroke-linejoin="round"/>
<path d="M320.968 319.535C306.9 345.967 285.402 358.963 283.75 384.841C281.621 419.506 296.627 448.007 332.297 438.526C362.995 430.377 351.577 387.505 330.154 388.242C317.291 388.653 315.162 401.153 315.162 401.153" stroke="#8C8C8C" stroke-linecap="round" stroke-linejoin="round"/>
<path d="M315.341 210.494C324.869 227.019 336.511 254.91 331.628 287.024C330.6 293.925 328.865 300.712 326.447 307.291" stroke="#8C8C8C" stroke-linecap="round" stroke-linejoin="round"/>
<path d="M304.503 194.564C304.503 194.564 306.691 197.115 309.847 201.736" stroke="#8C8C8C" stroke-linecap="round" stroke-linejoin="round"/>
<path d="M277.512 371.944C272.882 390.042 267.88 417.296 273.15 436.485C281.725 467.749 310.994 475.912 340.262 460.28" stroke="#8C8C8C" stroke-linecap="round" stroke-linejoin="round"/>
<path d="M283.095 352.897C283.095 352.897 281.934 356.171 280.326 361.57" stroke="#8C8C8C" stroke-linecap="round" stroke-linejoin="round"/>
<path d="M328.769 208.156C328.769 208.156 350.907 248.929 352.336 286.302C353.765 323.674 323.067 339.306 320.209 354.938C317.351 370.57 321.698 378.733 321.698 378.733" stroke="#8C8C8C" stroke-linecap="round" stroke-linejoin="round"/>
<path d="M246.859 177.912C246.859 177.912 247.053 195.656 271.87 216.801C296.687 237.946 300.602 237.308 300.602 237.308C300.602 237.308 266.644 214.306 265.989 186.288" fill="#263238"/>
<path d="M246.859 177.912C246.859 177.912 247.053 195.656 271.87 216.801C296.687 237.946 300.602 237.308 300.602 237.308C300.602 237.308 266.644 214.306 265.989 186.288" stroke="#263238" stroke-linecap="round" stroke-linejoin="round"/>
<path d="M245.147 472.95C247.993 463.013 252.076 453.435 257.31 444.421" stroke="#263238" stroke-linecap="round" stroke-linejoin="round"/>
<path d="M191.737 151.123C197.9 145.256 197.9 135.744 191.737 129.877C185.574 124.011 175.582 124.011 169.42 129.877C163.257 135.744 163.257 145.256 169.42 151.123C175.582 156.989 185.574 156.989 191.737 151.123Z" fill="white"/>
<path d="M173.107 127.303C178.288 124.653 181.95 126.481 181.95 126.481C181.95 126.481 186.074 127.218 189.156 132.15C192.237 137.082 194.441 146.974 191.463 152.09C188.486 157.206 182.62 159.176 175.98 158.68C169.34 158.184 164.844 149.44 164.844 142.864C164.844 136.288 167.911 129.953 173.107 127.303ZM190.778 150.446C191.182 148.302 191.217 146.11 190.882 143.955C190.882 143.955 189.721 152.912 188.768 154.925C189.883 153.65 190.581 152.094 190.778 150.446Z" fill="#263238"/>
<path d="M178.124 158.893C184.287 158.893 189.022 156.54 191.523 152.147C194.5 146.917 192.222 136.94 189.215 132.093C188.454 130.738 187.419 129.54 186.169 128.567C184.92 127.595 183.481 126.866 181.935 126.424C181.667 126.297 178.005 124.695 173.003 127.261C168.001 129.826 164.681 135.991 164.681 142.85C164.681 149.114 168.953 158.213 175.936 158.78C176.663 158.854 177.393 158.891 178.124 158.893ZM178.675 125.999C179.78 125.972 180.877 126.175 181.891 126.594C183.418 127.036 184.836 127.766 186.061 128.74C187.286 129.713 188.293 130.912 189.022 132.263C191.999 137.054 194.322 146.917 191.314 152.104C188.53 156.909 183.082 159.191 175.965 158.638C169.132 158.071 164.934 149.1 164.934 142.935C164.934 136.09 168.15 130.024 173.137 127.487C174.82 126.552 176.726 126.04 178.675 125.999ZM188.396 155.421L188.858 155.024C189.98 153.722 190.692 152.145 190.912 150.475C191.305 148.315 191.335 146.11 191.002 143.941L190.868 143.148L190.763 143.941C190.763 144.026 189.602 152.912 188.649 154.882L188.396 155.421ZM190.883 144.891C191.076 146.739 191.001 148.604 190.659 150.432C190.438 151.803 189.932 153.118 189.17 154.301C189.929 151.198 190.5 148.056 190.883 144.891Z" fill="#263238"/>
<path d="M181.042 128.04C182.121 128.359 183.109 128.908 183.931 129.645C184.754 130.381 185.39 131.286 185.791 132.292C187.28 135.778 185.895 136.104 186.521 138.669C186.915 140.467 186.873 142.328 186.399 144.108C185.924 145.889 185.029 147.543 183.781 148.944C183.328 149.495 182.746 149.94 182.083 150.242C181.419 150.544 180.691 150.697 179.955 150.687C178.377 150.687 174.447 147.045 173.703 145.614C172.958 144.182 173.375 138.712 173.703 136.728C174.03 134.743 179.122 128.905 181.042 128.04Z" fill="white"/>
<path d="M179.955 150.843C180.708 150.85 181.452 150.693 182.131 150.383C182.809 150.074 183.404 149.62 183.871 149.058C185.14 147.639 186.055 145.964 186.545 144.159C187.035 142.355 187.087 140.468 186.699 138.641C186.507 137.861 186.471 137.053 186.595 136.26C186.79 134.486 186.359 132.701 185.37 131.187C184.38 129.673 182.889 128.516 181.131 127.898H181.042C179.121 128.777 174 134.63 173.598 136.714C173.196 138.797 172.854 144.225 173.598 145.67C174.343 147.116 178.288 150.843 179.955 150.843ZM181.042 128.168C182.738 128.772 184.174 129.897 185.123 131.365C186.072 132.833 186.48 134.561 186.282 136.274C186.173 137.097 186.213 137.931 186.401 138.74C186.784 140.519 186.74 142.357 186.27 144.117C185.801 145.876 184.92 147.512 183.692 148.902C183.252 149.445 182.685 149.882 182.037 150.18C181.388 150.477 180.675 150.627 179.955 150.617C178.392 150.617 174.536 146.988 173.822 145.6C173.107 144.211 173.494 138.797 173.822 136.799C174.149 134.8 179.255 129.061 181.042 128.154V128.168Z" fill="#263238"/>
<path d="M181.22 142.226C181.22 142.226 183.23 142.127 183.677 141.39C183.93 140.965 183.513 140.724 183.186 140.526C182.858 140.327 182.665 140.242 182.605 140.015L182.054 138.201L181.816 138.272L182.367 140.086C182.456 140.384 182.769 140.568 183.052 140.738C183.334 140.908 183.588 141.064 183.454 141.277C183.141 141.815 181.533 142 181.22 142V142.226Z" fill="#263238"/>
<path d="M185.955 136.033C185.993 136.046 186.035 136.046 186.074 136.033C186.103 136.02 186.129 136.001 186.15 135.978C186.17 135.954 186.185 135.926 186.194 135.897C186.202 135.867 186.204 135.836 186.199 135.806C186.193 135.776 186.181 135.747 186.163 135.721C186.163 135.721 185.27 134.304 183.022 135.211C182.991 135.222 182.962 135.239 182.938 135.261C182.914 135.283 182.895 135.309 182.882 135.339C182.869 135.368 182.863 135.4 182.864 135.431C182.866 135.463 182.873 135.494 182.888 135.523C182.901 135.552 182.92 135.577 182.943 135.599C182.967 135.62 182.995 135.637 183.026 135.647C183.057 135.658 183.089 135.663 183.122 135.661C183.155 135.659 183.186 135.65 183.216 135.636C185.047 134.885 185.717 135.906 185.731 135.948C185.76 135.977 185.795 136 185.833 136.014C185.872 136.029 185.913 136.035 185.955 136.033Z" fill="#263238"/>
<path d="M175.787 136.146C175.824 136.148 175.86 136.14 175.894 136.126C175.928 136.111 175.957 136.089 175.98 136.061C176.47 135.501 177.151 135.121 177.905 134.989C178.658 134.857 179.436 134.981 180.104 135.339C180.131 135.356 180.161 135.367 180.193 135.372C180.225 135.378 180.257 135.376 180.288 135.368C180.32 135.36 180.348 135.345 180.373 135.326C180.398 135.306 180.418 135.281 180.432 135.254C180.464 135.199 180.473 135.134 180.457 135.073C180.44 135.012 180.399 134.96 180.342 134.928C179.57 134.526 178.677 134.39 177.812 134.542C176.947 134.694 176.163 135.126 175.593 135.764C175.57 135.785 175.552 135.81 175.54 135.838C175.527 135.866 175.521 135.896 175.521 135.927C175.521 135.957 175.527 135.987 175.54 136.015C175.552 136.043 175.57 136.069 175.593 136.09C175.617 136.115 175.647 136.134 175.682 136.144C175.716 136.154 175.752 136.155 175.787 136.146Z" fill="#263238"/>
<path d="M180.595 144.82C181.426 144.797 182.233 144.546 182.918 144.097C182.918 144.097 182.918 143.998 182.918 143.941C182.907 143.929 182.893 143.92 182.877 143.913C182.862 143.906 182.845 143.903 182.828 143.903C182.811 143.903 182.795 143.906 182.779 143.913C182.764 143.92 182.75 143.929 182.739 143.941C182.391 144.203 181.99 144.394 181.561 144.503C181.132 144.611 180.685 144.634 180.246 144.57C179.808 144.506 179.388 144.357 179.012 144.132C178.637 143.906 178.314 143.61 178.064 143.261C178.04 143.24 178.008 143.229 177.975 143.229C177.942 143.229 177.91 143.24 177.886 143.261C177.865 143.282 177.853 143.31 177.853 143.339C177.853 143.368 177.865 143.396 177.886 143.417C178.184 143.843 178.586 144.193 179.058 144.438C179.53 144.682 180.058 144.813 180.595 144.82Z" fill="#263238"/>
<path d="M183.603 138.754C183.603 139.165 183.826 139.491 184.079 139.491C184.332 139.491 184.57 139.165 184.57 138.754C184.57 138.343 184.347 138.003 184.079 138.003C183.811 138.003 183.603 138.343 183.603 138.754Z" fill="#263238"/>
<path d="M177.275 138.91C177.275 139.321 177.499 139.647 177.767 139.647C178.035 139.647 178.243 139.321 178.243 138.91C178.243 138.499 178.02 138.173 177.767 138.173C177.514 138.173 177.275 138.499 177.275 138.91Z" fill="#263238"/>
<path d="M176.963 138.471C177.011 138.485 177.063 138.485 177.112 138.471C177.359 138.302 177.65 138.199 177.953 138.172C178.256 138.144 178.562 138.194 178.839 138.315C178.898 138.342 178.967 138.346 179.03 138.328C179.093 138.309 179.147 138.27 179.181 138.216C179.207 138.159 179.209 138.095 179.187 138.037C179.165 137.979 179.12 137.932 179.062 137.904C178.704 137.736 178.305 137.666 177.908 137.701C177.512 137.736 177.133 137.875 176.814 138.102C176.772 138.131 176.741 138.171 176.726 138.218C176.71 138.264 176.711 138.315 176.727 138.361C176.744 138.407 176.776 138.447 176.818 138.474C176.861 138.502 176.911 138.516 176.963 138.513V138.471Z" fill="#263238"/>
<path d="M183.29 138.471C183.331 138.474 183.372 138.467 183.409 138.449C183.446 138.432 183.477 138.405 183.498 138.372C183.582 138.249 183.691 138.144 183.819 138.064C183.947 137.983 184.092 137.929 184.243 137.904C184.691 137.869 185.138 137.995 185.493 138.258C185.541 138.303 185.605 138.328 185.672 138.328C185.739 138.328 185.803 138.303 185.851 138.258C185.874 138.237 185.892 138.212 185.904 138.184C185.917 138.156 185.923 138.126 185.923 138.095C185.923 138.065 185.917 138.035 185.904 138.007C185.892 137.979 185.874 137.953 185.851 137.932C185.382 137.606 184.807 137.45 184.228 137.493C184.011 137.528 183.804 137.605 183.619 137.72C183.435 137.835 183.277 137.984 183.156 138.159C183.133 138.194 183.12 138.234 183.117 138.275C183.115 138.317 183.124 138.358 183.144 138.395C183.163 138.432 183.192 138.464 183.228 138.487C183.264 138.51 183.306 138.524 183.35 138.527L183.29 138.471Z" fill="#263238"/>
<path d="M173.702 136.756C173.702 136.756 172.631 141.73 176.933 148.306C179.91 152.955 180.833 155.817 180.833 159.474C180.86 160.528 180.657 161.576 180.237 162.552C179.817 163.528 179.189 164.41 178.392 165.143C178.392 165.143 178.973 169.536 176.561 172.229C175.901 173.149 175.011 173.898 173.972 174.41C172.932 174.922 171.776 175.181 170.606 175.163C169.602 175.141 168.604 175.017 167.628 174.794L169.266 174.057C168.265 174.149 167.257 173.987 166.344 173.586C165.431 173.185 164.646 172.56 164.07 171.775C162.813 170.141 162.23 168.123 162.433 166.107C162.433 166.107 161.673 167.297 162.537 170.032C162.537 170.032 161.763 170.032 161.376 167.75C160.857 165.566 161.129 163.278 162.15 161.26C162.719 160.449 163.141 159.553 163.4 158.609C163.4 158.609 163.207 159.063 162.15 159.148C161.448 159.183 160.75 159.026 160.14 158.694C160.867 158.385 161.494 157.895 161.956 157.277C162.433 156.455 162.82 155.633 162.82 155.633L161.867 155.817C162.858 154.52 163.636 153.086 164.174 151.566C164.934 149.185 162.924 145.713 163.981 140.767C164.681 137.693 166.056 134.795 168.015 132.263" fill="#263238"/>
<path d="M170.606 175.262C171.793 175.275 172.965 175.012 174.021 174.496C175.077 173.979 175.984 173.226 176.665 172.3C178.913 169.721 178.571 165.682 178.526 165.129C179.311 164.388 179.931 163.504 180.35 162.53C180.77 161.556 180.98 160.512 180.967 159.46C180.967 155.605 179.94 152.672 177.037 148.236C172.809 141.773 173.822 136.813 173.822 136.77C173.822 136.74 173.809 136.711 173.787 136.69C173.764 136.669 173.734 136.657 173.702 136.657C173.671 136.657 173.641 136.669 173.618 136.69C173.596 136.711 173.583 136.74 173.583 136.77C173.583 136.77 172.556 141.858 176.829 148.406C179.702 152.813 180.744 155.648 180.744 159.474C180.755 160.501 180.548 161.52 180.136 162.47C179.724 163.419 179.116 164.28 178.347 165.001C178.347 165.001 178.883 169.366 176.546 172.087C175.89 172.984 175.011 173.712 173.988 174.207C172.964 174.701 171.828 174.947 170.68 174.922C169.804 174.906 168.931 174.806 168.075 174.624L170.159 173.689L169.311 173.817C168.335 173.9 167.353 173.737 166.464 173.344C165.575 172.951 164.811 172.342 164.249 171.577C163.012 169.967 162.44 167.979 162.641 165.993L162.73 165.427L162.403 165.923C161.894 167.133 161.894 168.482 162.403 169.692C161.885 169.108 161.591 168.373 161.569 167.609C161.03 165.451 161.294 163.183 162.314 161.189C162.897 160.368 163.325 159.457 163.579 158.496L163.698 157.589L163.341 158.44C163.341 158.44 163.147 158.822 162.195 158.907C161.598 158.936 161.003 158.818 160.468 158.567C161.135 158.281 161.707 157.825 162.12 157.249C162.596 156.441 162.998 155.605 162.998 155.591L163.088 155.393L162.209 155.563C163.128 154.303 163.85 152.923 164.353 151.467C164.605 150.185 164.57 148.866 164.249 147.598C163.764 145.313 163.733 142.963 164.16 140.668C164.851 137.596 166.215 134.699 168.164 132.164C168.177 132.154 168.187 132.141 168.194 132.126C168.201 132.111 168.205 132.095 168.205 132.079C168.205 132.063 168.201 132.047 168.194 132.033C168.187 132.018 168.177 132.005 168.164 131.994C168.153 131.982 168.139 131.972 168.124 131.966C168.109 131.959 168.092 131.956 168.075 131.956C168.058 131.956 168.041 131.959 168.026 131.966C168.011 131.972 167.997 131.982 167.986 131.994C166.024 134.527 164.644 137.424 163.936 140.498C163.498 142.843 163.523 145.247 164.011 147.584C164.328 148.814 164.369 150.093 164.13 151.339C163.601 152.861 162.828 154.295 161.837 155.591L161.644 155.832L162.686 155.634C162.537 155.931 162.254 156.498 161.927 157.051C161.471 157.633 160.859 158.088 160.155 158.369L159.932 158.468L160.14 158.581C160.778 158.927 161.506 159.094 162.239 159.063C162.591 159.046 162.933 158.949 163.237 158.78C162.93 159.545 162.556 160.284 162.12 160.991C161.061 163.023 160.782 165.344 161.331 167.552C161.718 169.877 162.522 169.947 162.611 169.947H162.775V169.792C162.45 168.881 162.324 167.916 162.403 166.957C162.453 168.651 163.039 170.291 164.085 171.662C164.618 172.377 165.32 172.963 166.135 173.372C166.95 173.78 167.854 174.001 168.775 174.015L167.375 174.638L167.718 174.724C168.659 174.994 169.627 175.175 170.606 175.262Z" fill="#263238"/>
<path d="M181.042 128.04C181.042 128.04 181.042 130.733 177.231 133.95C173.42 137.167 172.869 137.068 172.869 137.068C172.869 137.068 178.035 133.567 178.124 129.316" fill="#263238"/>
<path d="M172.869 137.224C173.032 137.224 173.866 137.011 177.335 134.078C181.101 130.861 181.176 128.196 181.176 128.083C181.176 128.051 181.164 128.021 181.142 127.997C181.12 127.974 181.09 127.959 181.057 127.955C181.057 127.955 180.923 127.955 180.923 128.069C180.923 128.182 180.848 130.761 177.171 133.908C176.162 134.789 175.104 135.617 174 136.388C175.489 135.098 178.198 132.405 178.258 129.302C178.258 129.302 178.258 129.188 178.139 129.188C178.123 129.186 178.106 129.187 178.09 129.192C178.075 129.197 178.061 129.205 178.049 129.216C178.037 129.227 178.029 129.241 178.024 129.256C178.018 129.27 178.017 129.286 178.02 129.302C177.915 133.44 172.854 136.926 172.809 136.955L172.571 137.125H172.854L172.869 137.224Z" fill="#263238"/>
<path d="M230.795 137.224H205.323C204.928 137.224 204.55 137.074 204.271 136.809C203.991 136.543 203.834 136.182 203.834 135.806C203.834 135.431 203.991 135.07 204.271 134.804C204.55 134.538 204.928 134.389 205.323 134.389H230.795C231.19 134.389 231.569 134.538 231.848 134.804C232.127 135.07 232.284 135.431 232.284 135.806C232.284 136.182 232.127 136.543 231.848 136.809C231.569 137.074 231.19 137.224 230.795 137.224Z" fill="white"/>
<path d="M254.064 142.992H205.323C204.928 142.992 204.55 142.843 204.271 142.577C203.991 142.311 203.834 141.951 203.834 141.575C203.834 141.199 203.991 140.838 204.271 140.573C204.55 140.307 204.928 140.157 205.323 140.157H254.064C254.459 140.157 254.838 140.307 255.117 140.573C255.396 140.838 255.553 141.199 255.553 141.575C255.553 141.951 255.396 142.311 255.117 142.577C254.838 142.843 254.459 142.992 254.064 142.992Z" fill="white"/>
<path d="M312.869 125.702H290.017C287.962 125.702 286.296 127.288 286.296 129.245V137.621C286.296 139.577 287.962 141.164 290.017 141.164H312.869C314.925 141.164 316.591 139.577 316.591 137.621V129.245C316.591 127.288 314.925 125.702 312.869 125.702Z" fill="white"/>
<path d="M361.149 125.702H329.797C327.741 125.702 326.075 127.288 326.075 129.245V137.621C326.075 139.577 327.741 141.164 329.797 141.164H361.149C363.205 141.164 364.871 139.577 364.871 137.621V129.245C364.871 127.288 363.205 125.702 361.149 125.702Z" fill="#263238"/>
<path d="M290.419 137.734C290.357 137.677 290.308 137.609 290.274 137.533C290.241 137.458 290.225 137.376 290.226 137.294V130.69C290.219 130.608 290.234 130.525 290.267 130.448C290.301 130.372 290.353 130.304 290.419 130.251C290.55 130.15 290.713 130.094 290.881 130.094C291.049 130.094 291.212 130.15 291.342 130.251C291.405 130.307 291.455 130.375 291.489 130.451C291.522 130.527 291.538 130.608 291.536 130.69V136.926H295.034C295.105 136.923 295.175 136.936 295.24 136.963C295.304 136.99 295.361 137.031 295.407 137.082C295.492 137.177 295.538 137.297 295.538 137.422C295.538 137.547 295.492 137.667 295.407 137.762C295.361 137.814 295.304 137.854 295.24 137.881C295.175 137.908 295.105 137.921 295.034 137.918H290.911C290.82 137.92 290.73 137.904 290.646 137.873C290.561 137.841 290.484 137.794 290.419 137.734Z" fill="#263238"/>
<path d="M296.866 137.748C296.804 137.691 296.757 137.623 296.726 137.547C296.695 137.471 296.682 137.39 296.687 137.309V130.676C296.682 130.595 296.695 130.514 296.726 130.438C296.757 130.362 296.804 130.293 296.866 130.237C296.996 130.135 297.159 130.08 297.327 130.08C297.495 130.08 297.658 130.135 297.789 130.237C297.855 130.29 297.907 130.358 297.941 130.434C297.974 130.511 297.989 130.593 297.982 130.676V137.309C297.99 137.391 297.976 137.475 297.943 137.551C297.909 137.628 297.856 137.695 297.789 137.748C297.658 137.849 297.495 137.905 297.327 137.905C297.159 137.905 296.996 137.849 296.866 137.748Z" fill="#263238"/>
<path d="M302.344 137.776C302.132 137.599 301.977 137.368 301.898 137.11L299.53 130.79C299.524 130.724 299.524 130.657 299.53 130.591C299.527 130.517 299.544 130.444 299.577 130.377C299.611 130.31 299.661 130.252 299.724 130.208C299.852 130.103 300.017 130.047 300.185 130.053C300.313 130.048 300.438 130.083 300.543 130.152C300.654 130.224 300.737 130.328 300.781 130.449L303.029 136.643L305.292 130.449C305.336 130.328 305.419 130.224 305.53 130.152C305.635 130.083 305.76 130.048 305.887 130.053C306.056 130.047 306.221 130.103 306.349 130.208C306.411 130.252 306.462 130.31 306.496 130.377C306.529 130.444 306.545 130.517 306.542 130.591C306.556 130.657 306.556 130.724 306.542 130.79L304.175 137.11C304.096 137.368 303.941 137.599 303.729 137.776C303.535 137.911 303.299 137.981 303.059 137.975C302.803 137.995 302.549 137.924 302.344 137.776Z" fill="#263238"/>
<path d="M308.001 137.734C307.94 137.68 307.891 137.614 307.858 137.541C307.825 137.467 307.808 137.388 307.808 137.309V130.69C307.806 130.612 307.821 130.533 307.851 130.46C307.882 130.387 307.928 130.321 307.986 130.265C308.04 130.206 308.106 130.159 308.18 130.127C308.255 130.095 308.336 130.079 308.418 130.081H312.646C312.717 130.078 312.787 130.091 312.851 130.118C312.916 130.145 312.973 130.186 313.018 130.237C313.103 130.332 313.15 130.452 313.15 130.577C313.15 130.702 313.103 130.822 313.018 130.917C312.973 130.968 312.916 131.009 312.851 131.036C312.787 131.063 312.717 131.076 312.646 131.073H309.103V133.411H312.438C312.509 133.409 312.58 133.421 312.646 133.445C312.713 133.47 312.773 133.506 312.825 133.553C312.908 133.648 312.95 133.77 312.944 133.893C312.945 134.018 312.897 134.14 312.81 134.233C312.764 134.283 312.706 134.322 312.642 134.346C312.577 134.371 312.507 134.381 312.438 134.375H309.103V136.926H312.78C312.851 136.922 312.921 136.934 312.986 136.961C313.051 136.989 313.108 137.03 313.152 137.082C313.237 137.177 313.284 137.297 313.284 137.422C313.284 137.547 313.237 137.667 313.152 137.762C313.108 137.814 313.051 137.856 312.986 137.883C312.921 137.91 312.851 137.922 312.78 137.918H308.448C308.28 137.912 308.121 137.846 308.001 137.734Z" fill="#263238"/>
<path d="M329.052 132.363C328.9 132.365 328.751 132.315 328.635 132.221C328.567 132.17 328.511 132.107 328.469 132.035C328.427 131.963 328.401 131.884 328.391 131.802C328.381 131.72 328.389 131.638 328.413 131.559C328.437 131.48 328.477 131.406 328.531 131.342C329.597 130.109 331.134 129.329 332.804 129.174C333.704 129.176 334.593 129.368 335.406 129.735C336.219 130.103 336.937 130.637 337.508 131.3C337.571 131.358 337.62 131.427 337.654 131.504C337.688 131.581 337.706 131.663 337.706 131.746C337.706 131.829 337.688 131.912 337.654 131.988C337.62 132.065 337.571 132.134 337.508 132.193C337.448 132.252 337.377 132.299 337.297 132.331C337.218 132.363 337.133 132.38 337.046 132.38C336.96 132.38 336.875 132.363 336.796 132.331C336.716 132.299 336.645 132.252 336.585 132.193C336.138 131.665 335.577 131.237 334.94 130.936C334.302 130.635 333.604 130.469 332.893 130.449C331.604 130.594 330.422 131.203 329.588 132.15C329.523 132.224 329.441 132.282 329.347 132.319C329.254 132.356 329.153 132.371 329.052 132.363Z" fill="white"/>
<path d="M335.23 132.306C335.119 132.482 334.962 132.627 334.774 132.729C334.586 132.831 334.374 132.885 334.159 132.887C333.815 132.887 333.486 132.757 333.243 132.526C333 132.295 332.863 131.981 332.863 131.654C332.867 131.36 332.984 131.078 333.191 130.86C333.018 130.846 332.843 130.846 332.67 130.86C332.078 130.846 331.495 131 330.996 131.303C330.497 131.606 330.103 132.043 329.867 132.56C329.63 133.077 329.56 133.649 329.666 134.203C329.773 134.757 330.05 135.269 330.464 135.673C330.877 136.076 331.407 136.353 331.987 136.468C332.566 136.584 333.169 136.532 333.717 136.319C334.265 136.107 334.735 135.744 335.065 135.277C335.396 134.809 335.573 134.258 335.573 133.695C335.597 133.21 335.479 132.729 335.23 132.306Z" fill="white"/>
<path d="M340.486 136.189C340.419 136.166 340.362 136.123 340.322 136.067C340.282 136.011 340.261 135.945 340.262 135.877C340.25 135.816 340.25 135.754 340.262 135.693C340.294 135.636 340.34 135.587 340.396 135.551C340.454 135.533 340.517 135.533 340.575 135.551H340.679C341.033 135.713 341.419 135.8 341.811 135.806C342.112 135.824 342.411 135.744 342.659 135.58C342.768 135.504 342.855 135.403 342.913 135.287C342.97 135.17 342.995 135.042 342.987 134.914C342.99 134.762 342.957 134.611 342.89 134.474C342.823 134.336 342.724 134.215 342.6 134.12C342.324 133.916 341.981 133.81 341.632 133.822H341.305C341.262 133.824 341.219 133.816 341.18 133.799C341.141 133.781 341.107 133.755 341.081 133.723C341.023 133.661 340.99 133.58 340.99 133.496C340.99 133.413 341.023 133.332 341.081 133.27C341.105 133.235 341.139 133.208 341.178 133.19C341.218 133.173 341.261 133.166 341.305 133.17H341.602C341.924 133.186 342.243 133.101 342.51 132.929C342.624 132.85 342.714 132.745 342.774 132.623C342.834 132.502 342.861 132.369 342.853 132.235C342.861 132.112 342.836 131.99 342.782 131.878C342.727 131.767 342.644 131.67 342.54 131.597C342.322 131.441 342.054 131.361 341.781 131.37C341.566 131.374 341.351 131.398 341.141 131.441C340.957 131.487 340.777 131.549 340.605 131.626H340.501C340.451 131.624 340.403 131.612 340.359 131.59C340.315 131.567 340.277 131.536 340.248 131.498C340.185 131.42 340.149 131.327 340.143 131.229C340.139 131.181 340.15 131.132 340.174 131.09C340.197 131.047 340.233 131.012 340.277 130.988C340.485 130.872 340.711 130.79 340.947 130.747C341.232 130.668 341.529 130.629 341.826 130.634C342.162 130.627 342.496 130.685 342.808 130.804C343.111 130.907 343.37 131.101 343.547 131.357C343.724 131.612 343.81 131.915 343.791 132.221C343.8 132.505 343.71 132.785 343.535 133.015C343.36 133.246 343.11 133.415 342.823 133.496C343.149 133.574 343.437 133.753 343.642 134.007C343.834 134.289 343.933 134.62 343.925 134.956C343.928 135.201 343.872 135.444 343.761 135.665C343.652 135.868 343.494 136.043 343.299 136.175C343.102 136.308 342.88 136.405 342.644 136.458C342.393 136.529 342.132 136.562 341.87 136.558C341.385 136.539 340.911 136.413 340.486 136.189Z" fill="white"/>
<path d="M345.041 137.592L345.383 135.693C345.383 135.551 345.517 135.48 345.696 135.466H346.187C346.187 135.466 346.292 135.466 346.306 135.466C346.313 135.482 346.317 135.499 346.317 135.516C346.317 135.533 346.313 135.55 346.306 135.566L345.607 137.465C345.595 137.513 345.569 137.557 345.532 137.592C345.489 137.609 345.441 137.609 345.398 137.592H345.115C345.071 137.706 345.041 137.677 345.041 137.592Z" fill="white"/>
<path d="M349.448 136.303C349.403 136.263 349.367 136.215 349.344 136.161C349.321 136.107 349.311 136.049 349.314 135.991V131.739L348.45 132.263C348.391 132.276 348.33 132.276 348.272 132.263C348.182 132.26 348.097 132.224 348.034 132.164C347.97 132.104 347.933 132.023 347.929 131.937C347.929 131.885 347.944 131.833 347.973 131.788C348.002 131.743 348.043 131.706 348.093 131.682L349.582 130.832C349.664 130.808 349.752 130.808 349.835 130.832C349.95 130.833 350.061 130.873 350.147 130.945C350.193 130.988 350.228 131.038 350.251 131.095C350.274 131.151 350.285 131.211 350.281 131.271V136.076C350.282 136.135 350.268 136.193 350.243 136.247C350.217 136.301 350.179 136.349 350.133 136.388C350.042 136.462 349.925 136.502 349.805 136.501C349.734 136.493 349.666 136.471 349.605 136.437C349.543 136.403 349.49 136.357 349.448 136.303Z" fill="white"/>
<path d="M353.438 136.345C353.15 136.229 352.884 136.072 352.649 135.877C352.62 135.855 352.597 135.827 352.581 135.795C352.566 135.763 352.558 135.728 352.559 135.693C352.563 135.588 352.605 135.488 352.678 135.41C352.708 135.372 352.746 135.34 352.789 135.318C352.833 135.296 352.882 135.284 352.931 135.282C352.984 135.262 353.043 135.262 353.095 135.282C353.459 135.569 353.918 135.725 354.39 135.721C354.553 135.734 354.716 135.714 354.87 135.663C355.024 135.612 355.165 135.53 355.284 135.424C355.498 135.184 355.605 134.873 355.581 134.559C355.59 134.415 355.569 134.27 355.517 134.134C355.466 133.997 355.387 133.872 355.284 133.766C355.184 133.667 355.063 133.59 354.93 133.539C354.796 133.487 354.653 133.463 354.509 133.468C354.292 133.465 354.077 133.513 353.884 133.61C353.695 133.686 353.523 133.797 353.378 133.936H353.289C353.154 133.928 353.022 133.894 352.902 133.837C352.768 133.837 352.693 133.695 352.693 133.61V131.073C352.693 130.804 352.842 130.676 353.155 130.676H355.864C355.912 130.673 355.959 130.681 356.003 130.698C356.047 130.715 356.086 130.742 356.117 130.775C356.174 130.839 356.206 130.919 356.207 131.002C356.209 131.09 356.177 131.176 356.117 131.243C356.086 131.277 356.047 131.303 356.003 131.32C355.959 131.338 355.912 131.345 355.864 131.342H353.438V133.142L353.586 133.043L353.825 132.915C353.94 132.87 354.059 132.837 354.182 132.816C354.34 132.802 354.5 132.802 354.658 132.816C354.905 132.805 355.151 132.845 355.379 132.933C355.608 133.021 355.814 133.155 355.983 133.326C356.157 133.5 356.292 133.704 356.382 133.928C356.471 134.152 356.513 134.391 356.504 134.63C356.514 134.881 356.467 135.131 356.367 135.363C356.267 135.595 356.116 135.805 355.924 135.977C355.517 136.326 354.982 136.51 354.435 136.487C354.096 136.496 353.759 136.448 353.438 136.345Z" fill="white"/>
<path d="M358.663 136.387C358.451 136.321 358.258 136.209 358.097 136.061C357.941 135.928 357.81 135.77 357.71 135.594C357.588 135.405 357.498 135.2 357.442 134.984C357.383 134.76 357.338 134.533 357.308 134.304C357.293 134.054 357.293 133.803 357.308 133.553C357.284 133.256 357.284 132.957 357.308 132.66C357.353 132.39 357.423 132.125 357.517 131.867C357.608 131.628 357.744 131.407 357.919 131.215C358.08 131.025 358.291 130.879 358.529 130.789C358.796 130.677 359.086 130.623 359.378 130.634C359.674 130.624 359.969 130.677 360.241 130.789C360.476 130.885 360.685 131.03 360.852 131.215C361.016 131.411 361.147 131.631 361.239 131.867C361.345 132.121 361.415 132.388 361.447 132.66C361.497 132.955 361.521 133.254 361.521 133.553C361.538 133.85 361.538 134.148 361.521 134.446C361.477 134.717 361.402 134.983 361.298 135.24C361.218 135.48 361.086 135.702 360.911 135.891C360.747 136.082 360.538 136.233 360.301 136.331C360.03 136.448 359.735 136.506 359.437 136.501C359.174 136.507 358.912 136.469 358.663 136.387ZM359.839 135.693C359.97 135.631 360.083 135.538 360.167 135.424C360.259 135.309 360.33 135.179 360.375 135.041C360.437 134.89 360.482 134.733 360.509 134.573C360.509 134.389 360.509 134.219 360.509 134.063C360.509 133.907 360.509 133.737 360.509 133.553C360.509 133.369 360.509 133.241 360.509 133.114C360.523 132.968 360.523 132.82 360.509 132.674C360.495 132.536 360.471 132.398 360.435 132.263C360.394 132.137 360.344 132.014 360.286 131.895C360.229 131.788 360.159 131.688 360.077 131.597C359.986 131.525 359.886 131.463 359.78 131.413C359.651 131.366 359.515 131.342 359.378 131.342C359.245 131.344 359.114 131.368 358.991 131.413C358.882 131.459 358.781 131.521 358.693 131.597C358.612 131.688 358.542 131.788 358.484 131.895C358.428 132.01 358.379 132.129 358.336 132.249C358.301 132.389 358.276 132.531 358.261 132.674C358.247 132.82 358.247 132.968 358.261 133.114C358.241 133.406 358.241 133.7 358.261 133.992C358.248 134.139 358.248 134.286 358.261 134.432C358.275 134.57 358.3 134.708 358.336 134.843C358.37 134.971 358.42 135.094 358.484 135.211C358.533 135.327 358.603 135.433 358.693 135.523C358.878 135.689 359.123 135.781 359.378 135.778C359.536 135.785 359.695 135.756 359.839 135.693Z" fill="white"/>
<path d="M349.448 501.45C349.343 501.451 349.239 501.43 349.144 501.388C349.049 501.347 348.965 501.286 348.897 501.209L334.233 485.053C334.164 484.988 334.108 484.911 334.071 484.826C334.033 484.741 334.014 484.649 334.014 484.557C334.014 484.465 334.033 484.373 334.071 484.288C334.108 484.203 334.164 484.126 334.233 484.061C334.384 483.939 334.579 483.879 334.777 483.892C334.974 483.905 335.158 483.991 335.29 484.132L349.939 500.288C350.036 500.389 350.099 500.515 350.121 500.651C350.143 500.786 350.123 500.924 350.062 501.048C350.002 501.173 349.904 501.277 349.781 501.348C349.659 501.42 349.517 501.455 349.373 501.45H349.448Z" fill="#263238"/>
<path d="M212.767 410.124H187.31C186.915 410.124 186.536 409.975 186.257 409.709C185.978 409.444 185.821 409.083 185.821 408.707C185.821 408.331 185.978 407.971 186.257 407.705C186.536 407.439 186.915 407.29 187.31 407.29H212.767C213.162 407.29 213.54 407.439 213.82 407.705C214.099 407.971 214.256 408.331 214.256 408.707C214.256 409.083 214.099 409.444 213.82 409.709C213.54 409.975 213.162 410.124 212.767 410.124Z" fill="white"/>
<path d="M236.036 415.978H187.31C186.915 415.978 186.536 415.828 186.257 415.562C185.978 415.297 185.821 414.936 185.821 414.56C185.821 414.184 185.978 413.824 186.257 413.558C186.536 413.292 186.915 413.143 187.31 413.143H236.036C236.431 413.143 236.809 413.292 237.089 413.558C237.368 413.824 237.525 414.184 237.525 414.56C237.525 414.936 237.368 415.297 237.089 415.562C236.809 415.828 236.431 415.978 236.036 415.978Z" fill="white"/>
<path d="M183.469 412.534C183.469 414.591 182.828 416.602 181.627 418.313C180.426 420.024 178.72 421.357 176.723 422.144C174.726 422.932 172.529 423.138 170.409 422.736C168.29 422.335 166.343 421.344 164.814 419.889C163.286 418.435 162.245 416.581 161.824 414.563C161.402 412.545 161.619 410.454 162.446 408.553C163.273 406.652 164.673 405.027 166.47 403.884C168.267 402.741 170.38 402.131 172.541 402.131C175.439 402.131 178.219 403.227 180.268 405.178C182.317 407.129 183.469 409.775 183.469 412.534Z" fill="white"/>
<path d="M172.541 423.631C170.233 423.631 167.976 422.979 166.057 421.758C164.137 420.537 162.641 418.802 161.758 416.772C160.875 414.741 160.643 412.507 161.094 410.352C161.544 408.197 162.656 406.217 164.288 404.663C165.92 403.109 168 402.051 170.264 401.622C172.528 401.193 174.875 401.413 177.008 402.254C179.14 403.095 180.963 404.519 182.246 406.347C183.528 408.174 184.213 410.322 184.213 412.52C184.209 415.465 182.978 418.289 180.79 420.372C178.602 422.455 175.636 423.627 172.541 423.631ZM172.541 402.84C170.527 402.84 168.557 403.409 166.882 404.475C165.207 405.54 163.902 407.055 163.132 408.827C162.362 410.599 162.161 412.549 162.555 414.43C162.949 416.311 163.92 418.038 165.346 419.393C166.772 420.748 168.587 421.671 170.564 422.043C172.54 422.415 174.588 422.221 176.448 421.485C178.309 420.75 179.898 419.505 181.015 417.909C182.132 416.313 182.727 414.437 182.724 412.52C182.716 409.952 181.64 407.492 179.732 405.678C177.824 403.864 175.238 402.844 172.541 402.84Z" fill="white"/>
<path d="M212.767 437.774H187.31C186.915 437.774 186.536 437.625 186.257 437.359C185.978 437.093 185.821 436.733 185.821 436.357C185.821 435.981 185.978 435.621 186.257 435.355C186.536 435.089 186.915 434.94 187.31 434.94H212.767C213.162 434.94 213.54 435.089 213.82 435.355C214.099 435.621 214.256 435.981 214.256 436.357C214.256 436.733 214.099 437.093 213.82 437.359C213.54 437.625 213.162 437.774 212.767 437.774Z" fill="white"/>
<path d="M236.036 443.627H187.31C186.915 443.627 186.536 443.478 186.257 443.212C185.978 442.947 185.821 442.586 185.821 442.21C185.821 441.834 185.978 441.474 186.257 441.208C186.536 440.942 186.915 440.793 187.31 440.793H236.036C236.431 440.793 236.809 440.942 237.089 441.208C237.368 441.474 237.525 441.834 237.525 442.21C237.525 442.586 237.368 442.947 237.089 443.212C236.809 443.478 236.431 443.627 236.036 443.627Z" fill="white"/>
<path d="M183.469 440.595C183.471 442.653 182.833 444.665 181.634 446.378C180.435 448.09 178.73 449.426 176.733 450.215C174.737 451.005 172.539 451.213 170.419 450.813C168.298 450.413 166.349 449.424 164.82 447.97C163.29 446.515 162.248 444.662 161.825 442.644C161.402 440.625 161.618 438.533 162.444 436.631C163.271 434.73 164.671 433.104 166.469 431.961C168.266 430.817 170.379 430.207 172.541 430.207C175.437 430.207 178.214 431.301 180.263 433.248C182.312 435.196 183.465 437.838 183.469 440.595Z" fill="white"/>
<path d="M172.541 451.706C170.233 451.706 167.976 451.054 166.057 449.833C164.137 448.612 162.641 446.877 161.758 444.847C160.875 442.816 160.643 440.582 161.094 438.427C161.544 436.272 162.656 434.292 164.288 432.738C165.92 431.184 168 430.126 170.264 429.697C172.528 429.268 174.875 429.488 177.008 430.329C179.14 431.17 180.963 432.595 182.246 434.422C183.528 436.249 184.213 438.397 184.213 440.595C184.209 443.54 182.978 446.364 180.79 448.447C178.602 450.53 175.636 451.702 172.541 451.706ZM172.541 430.915C170.527 430.915 168.557 431.484 166.882 432.55C165.207 433.616 163.902 435.13 163.132 436.903C162.362 438.675 162.161 440.624 162.555 442.505C162.949 444.386 163.92 446.113 165.346 447.468C166.772 448.824 168.587 449.746 170.564 450.118C172.54 450.491 174.588 450.297 176.448 449.561C178.309 448.825 179.898 447.58 181.015 445.984C182.132 444.388 182.727 442.513 182.724 440.595C182.72 438.026 181.646 435.564 179.736 433.749C177.827 431.934 175.239 430.915 172.541 430.915Z" fill="white"/>
<path d="M212.767 466.785H187.31C186.915 466.785 186.536 466.636 186.257 466.37C185.978 466.104 185.821 465.744 185.821 465.368C185.821 464.992 185.978 464.631 186.257 464.366C186.536 464.1 186.915 463.95 187.31 463.95H212.767C213.162 463.95 213.54 464.1 213.82 464.366C214.099 464.631 214.256 464.992 214.256 465.368C214.256 465.744 214.099 466.104 213.82 466.37C213.54 466.636 213.162 466.785 212.767 466.785Z" fill="white"/>
<path d="M236.036 472.638H187.31C186.915 472.638 186.536 472.489 186.257 472.223C185.978 471.957 185.821 471.597 185.821 471.221C185.821 470.845 185.978 470.485 186.257 470.219C186.536 469.953 186.915 469.804 187.31 469.804H236.036C236.431 469.804 236.809 469.953 237.089 470.219C237.368 470.485 237.525 470.845 237.525 471.221C237.525 471.597 237.368 471.957 237.089 472.223C236.809 472.489 236.431 472.638 236.036 472.638Z" fill="white"/>
<path d="M172.541 479.072C178.576 479.072 183.469 474.415 183.469 468.67C183.469 462.925 178.576 458.268 172.541 458.268C166.506 458.268 161.614 462.925 161.614 468.67C161.614 474.415 166.506 479.072 172.541 479.072Z" fill="white"/>
<path d="M172.541 479.781C170.233 479.781 167.976 479.129 166.057 477.908C164.137 476.688 162.641 474.952 161.758 472.922C160.875 470.892 160.643 468.658 161.094 466.502C161.544 464.347 162.656 462.367 164.288 460.813C165.92 459.259 168 458.201 170.264 457.772C172.528 457.344 174.875 457.564 177.008 458.405C179.14 459.246 180.963 460.67 182.246 462.497C183.528 464.324 184.213 466.472 184.213 468.67C184.209 471.616 182.978 474.44 180.79 476.522C178.602 478.605 175.636 479.777 172.541 479.781ZM172.541 458.976C170.527 458.976 168.558 459.545 166.884 460.61C165.209 461.675 163.904 463.189 163.133 464.96C162.363 466.732 162.161 468.681 162.554 470.561C162.947 472.441 163.917 474.169 165.341 475.524C166.765 476.88 168.579 477.803 170.555 478.177C172.53 478.552 174.577 478.36 176.438 477.626C178.299 476.892 179.889 475.65 181.008 474.056C182.127 472.461 182.724 470.587 182.724 468.67C182.728 467.394 182.468 466.13 181.958 464.949C181.448 463.769 180.699 462.696 179.753 461.792C178.807 460.888 177.684 460.17 176.446 459.679C175.209 459.189 173.882 458.935 172.541 458.934V458.976Z" fill="white"/>
<path d="M329.514 508.948H177.186C173.779 508.948 170.511 507.659 168.101 505.365C165.692 503.072 164.338 499.961 164.338 496.717C164.338 493.473 165.692 490.362 168.101 488.069C170.511 485.775 173.779 484.486 177.186 484.486H329.514C332.921 484.486 336.189 485.775 338.598 488.069C341.008 490.362 342.361 493.473 342.361 496.717C342.361 499.961 341.008 503.072 338.598 505.365C336.189 507.659 332.921 508.948 329.514 508.948ZM177.186 485.861C174.173 485.861 171.284 487 169.154 489.028C167.024 491.056 165.827 493.807 165.827 496.674C165.827 499.542 167.024 502.293 169.154 504.321C171.284 506.349 174.173 507.488 177.186 507.488H329.514C332.526 507.488 335.415 506.349 337.546 504.321C339.676 502.293 340.873 499.542 340.873 496.674C340.873 493.807 339.676 491.056 337.546 489.028C335.415 487 332.526 485.861 329.514 485.861H177.186Z" fill="white"/>
<path d="M174.506 500.813C173.931 500.467 173.467 499.976 173.166 499.396C172.847 498.744 172.689 498.031 172.705 497.312C172.692 496.583 172.855 495.861 173.181 495.201C173.499 494.613 173.984 494.122 174.581 493.783C175.215 493.425 175.942 493.244 176.68 493.259C177.414 493.256 178.136 493.432 178.779 493.769C178.873 493.811 178.955 493.874 179.017 493.953C179.066 494.025 179.093 494.109 179.093 494.194C179.093 494.28 179.066 494.364 179.017 494.435C178.974 494.513 178.913 494.581 178.839 494.634C178.761 494.676 178.675 494.701 178.585 494.705H178.481H178.392L178.213 494.619L177.945 494.506L177.648 494.407L177.216 494.322H176.725C176.323 494.318 175.926 494.4 175.563 494.563C175.231 494.707 174.943 494.932 174.73 495.215C174.512 495.512 174.351 495.843 174.253 496.193C174.035 497.002 174.035 497.85 174.253 498.659C174.349 499.012 174.516 499.344 174.745 499.636C174.963 499.911 175.249 500.131 175.578 500.274C175.958 500.434 176.369 500.511 176.784 500.501C177.009 500.499 177.234 500.475 177.454 500.43L177.99 500.26L178.496 500.019C178.584 499.962 178.692 499.939 178.797 499.954C178.902 499.97 178.997 500.024 179.062 500.104C179.149 500.198 179.197 500.319 179.196 500.444C179.197 500.539 179.169 500.632 179.117 500.713C179.064 500.793 178.988 500.857 178.898 500.898C178.2 501.317 177.386 501.529 176.561 501.507C175.819 501.472 175.105 501.23 174.506 500.813Z" fill="white"/>
<path d="M181.995 501.082C181.64 500.945 181.324 500.731 181.072 500.458C180.832 500.196 180.645 499.893 180.521 499.566C180.395 499.219 180.33 498.855 180.327 498.489C180.328 498.112 180.394 497.739 180.521 497.383C180.645 497.056 180.832 496.753 181.072 496.49C181.332 496.218 181.652 496.005 182.01 495.867C182.408 495.72 182.833 495.648 183.26 495.654C183.818 495.637 184.37 495.769 184.853 496.037C185.291 496.272 185.643 496.628 185.865 497.057C186.09 497.499 186.202 497.984 186.193 498.474C186.195 498.84 186.135 499.204 186.014 499.551C185.89 499.879 185.703 500.181 185.463 500.444C185.211 500.717 184.895 500.931 184.54 501.068C183.722 501.371 182.813 501.371 181.995 501.068V501.082ZM184.585 500.005C184.89 499.55 185.052 499.021 185.052 498.481C185.052 497.942 184.89 497.413 184.585 496.958C184.428 496.774 184.227 496.628 184 496.532C183.772 496.436 183.524 496.392 183.275 496.405C183.027 496.395 182.779 496.439 182.552 496.535C182.324 496.631 182.123 496.776 181.965 496.958C181.63 497.402 181.467 497.943 181.503 498.489C181.467 499.032 181.636 499.57 181.98 500.005C182.135 500.187 182.333 500.332 182.558 500.428C182.783 500.524 183.029 500.568 183.275 500.558C183.521 500.572 183.767 500.532 183.994 500.441C184.221 500.35 184.423 500.21 184.585 500.033V500.005Z" fill="white"/>
<path d="M187.652 501.082C187.594 501.036 187.548 500.977 187.52 500.91C187.491 500.843 187.48 500.771 187.488 500.699V496.249C187.487 496.178 187.501 496.108 187.529 496.042C187.557 495.976 187.599 495.917 187.652 495.867C187.772 495.781 187.919 495.736 188.069 495.739C188.214 495.738 188.355 495.783 188.471 495.867C188.529 495.907 188.576 495.96 188.607 496.022C188.639 496.084 188.653 496.152 188.649 496.221V496.66C188.812 496.336 189.078 496.068 189.409 495.895C189.748 495.726 190.127 495.643 190.51 495.654C190.943 495.637 191.371 495.751 191.731 495.98C192.065 496.201 192.308 496.527 192.416 496.901C192.552 496.513 192.825 496.182 193.19 495.966C193.572 495.749 194.011 495.641 194.455 495.654C194.738 495.647 195.02 495.685 195.289 495.767C195.531 495.848 195.753 495.973 195.944 496.136C196.154 496.318 196.313 496.547 196.406 496.802C196.526 497.105 196.582 497.428 196.569 497.752V500.699C196.574 500.771 196.561 500.842 196.533 500.908C196.505 500.975 196.461 501.034 196.406 501.082C196.29 501.176 196.141 501.227 195.989 501.224C195.836 501.229 195.687 501.179 195.572 501.082C195.517 501.034 195.473 500.975 195.445 500.908C195.417 500.842 195.404 500.771 195.408 500.699V497.723C195.439 497.367 195.328 497.013 195.096 496.731C194.98 496.614 194.839 496.522 194.682 496.463C194.525 496.404 194.356 496.38 194.187 496.391C193.975 496.388 193.764 496.427 193.568 496.508C193.373 496.589 193.199 496.708 193.056 496.859C192.735 497.222 192.575 497.689 192.609 498.163V500.685C192.614 500.76 192.6 500.835 192.569 500.904C192.538 500.973 192.491 501.034 192.431 501.082C192.317 501.18 192.167 501.231 192.014 501.224C191.866 501.227 191.722 501.176 191.612 501.082C191.554 501.033 191.508 500.971 191.48 500.902C191.451 500.833 191.44 500.759 191.448 500.685V497.851C191.477 497.471 191.36 497.093 191.121 496.788C191.011 496.667 190.873 496.572 190.718 496.511C190.563 496.449 190.395 496.423 190.227 496.434C190.013 496.426 189.8 496.463 189.602 496.541C189.404 496.619 189.227 496.737 189.081 496.887C188.779 497.237 188.625 497.682 188.649 498.134V500.742C188.654 500.815 188.64 500.887 188.609 500.954C188.578 501.021 188.531 501.079 188.471 501.125C188.356 501.221 188.207 501.272 188.054 501.266C187.977 501.263 187.902 501.245 187.833 501.213C187.764 501.182 187.702 501.137 187.652 501.082Z" fill="white"/>
<path d="M198.371 501.082C198.315 501.034 198.272 500.975 198.244 500.908C198.215 500.842 198.203 500.771 198.207 500.699V496.249C198.206 496.178 198.219 496.108 198.248 496.042C198.276 495.976 198.318 495.917 198.371 495.867C198.491 495.781 198.638 495.736 198.788 495.739C198.933 495.736 199.075 495.781 199.19 495.867C199.248 495.907 199.295 495.96 199.326 496.022C199.357 496.084 199.372 496.152 199.368 496.221V496.66C199.531 496.336 199.796 496.068 200.127 495.895C200.467 495.726 200.846 495.643 201.229 495.654C201.662 495.637 202.09 495.751 202.45 495.98C202.784 496.201 203.027 496.527 203.135 496.901C203.271 496.513 203.544 496.182 203.909 495.966C204.291 495.749 204.73 495.641 205.174 495.654C205.457 495.647 205.739 495.685 206.008 495.767C206.253 495.851 206.48 495.976 206.678 496.136C206.883 496.319 207.037 496.548 207.125 496.802C207.245 497.105 207.301 497.428 207.288 497.752V500.699C207.292 500.771 207.28 500.842 207.252 500.908C207.223 500.975 207.18 501.034 207.125 501.082C207.007 501.174 206.86 501.225 206.708 501.225C206.556 501.225 206.408 501.174 206.291 501.082C206.235 501.034 206.192 500.975 206.164 500.908C206.135 500.842 206.123 500.771 206.127 500.699V497.723C206.158 497.367 206.046 497.013 205.814 496.731C205.702 496.615 205.563 496.524 205.408 496.465C205.254 496.406 205.087 496.381 204.921 496.391C204.706 496.385 204.492 496.424 204.294 496.505C204.096 496.586 203.919 496.707 203.775 496.859C203.454 497.222 203.294 497.689 203.328 498.163V500.685C203.333 500.76 203.319 500.835 203.288 500.904C203.257 500.973 203.21 501.034 203.15 501.082C203.036 501.18 202.886 501.231 202.733 501.224C202.585 501.227 202.441 501.176 202.331 501.082C202.272 501.033 202.227 500.971 202.199 500.902C202.17 500.833 202.159 500.759 202.167 500.685V497.851C202.203 497.47 202.086 497.09 201.839 496.788C201.729 496.667 201.592 496.572 201.437 496.511C201.282 496.449 201.114 496.423 200.946 496.434C200.732 496.426 200.519 496.463 200.321 496.541C200.123 496.619 199.945 496.737 199.8 496.887C199.497 497.237 199.343 497.682 199.368 498.134V500.742C199.373 500.815 199.359 500.887 199.328 500.954C199.297 501.021 199.249 501.079 199.19 501.125C199.076 501.222 198.926 501.273 198.773 501.266C198.696 501.262 198.621 501.244 198.552 501.212C198.483 501.181 198.422 501.136 198.371 501.082Z" fill="white"/>
<path d="M209.387 500.529C209.113 500.251 208.9 499.924 208.762 499.566C208.624 499.208 208.563 498.827 208.583 498.446C208.58 498.085 208.64 497.725 208.762 497.383C208.887 497.059 209.068 496.757 209.298 496.49C209.538 496.226 209.838 496.017 210.176 495.881C210.552 495.724 210.958 495.647 211.367 495.654C211.771 495.648 212.171 495.721 212.544 495.867C212.864 495.991 213.146 496.191 213.362 496.448C213.564 496.7 213.72 496.982 213.824 497.284C213.931 497.615 213.992 497.958 214.002 498.304C214.007 498.358 214 498.412 213.983 498.463C213.965 498.514 213.936 498.562 213.898 498.602C213.869 498.642 213.828 498.674 213.781 498.694C213.734 498.714 213.682 498.721 213.63 498.715H209.745C209.724 498.973 209.76 499.232 209.849 499.476C209.939 499.72 210.081 499.943 210.266 500.132C210.619 500.44 211.082 500.607 211.561 500.6C211.858 500.603 212.153 500.545 212.424 500.43C212.708 500.305 212.977 500.154 213.228 499.977C213.228 499.977 213.303 499.977 213.347 499.977H213.452C213.509 499.954 213.573 499.954 213.63 499.977C213.689 500.009 213.736 500.059 213.764 500.118C213.786 500.178 213.786 500.243 213.764 500.302C213.778 500.363 213.778 500.426 213.764 500.487C213.733 500.548 213.687 500.601 213.63 500.643C213.032 501.146 212.255 501.414 211.457 501.394C211.067 501.395 210.682 501.319 210.326 501.17C209.969 501.021 209.65 500.803 209.387 500.529ZM212.99 498.049C212.98 497.624 212.828 497.212 212.558 496.873C212.421 496.716 212.248 496.592 212.051 496.511C211.855 496.43 211.641 496.393 211.427 496.405C211.185 496.398 210.945 496.446 210.727 496.547C210.529 496.628 210.355 496.755 210.221 496.915C210.088 497.078 209.983 497.26 209.908 497.454C209.834 497.646 209.784 497.846 209.76 498.049H212.99Z" fill="white"/>
<path d="M215.491 501.082C215.434 501.035 215.389 500.976 215.361 500.909C215.332 500.843 215.321 500.771 215.327 500.699V496.263C215.323 496.192 215.336 496.121 215.364 496.055C215.392 495.988 215.436 495.929 215.491 495.881C215.608 495.795 215.752 495.748 215.901 495.748C216.049 495.748 216.193 495.795 216.31 495.881C216.368 495.925 216.414 495.981 216.445 496.045C216.476 496.109 216.491 496.179 216.489 496.249V496.646C216.628 496.323 216.888 496.061 217.218 495.909C217.573 495.738 217.967 495.656 218.364 495.668C218.642 495.661 218.919 495.699 219.183 495.782C219.432 495.864 219.66 495.994 219.853 496.164C220.062 496.344 220.216 496.574 220.3 496.83C220.419 497.134 220.475 497.456 220.464 497.78V500.714C220.467 500.786 220.453 500.859 220.422 500.925C220.391 500.991 220.344 501.05 220.285 501.096C220.175 501.191 220.031 501.241 219.883 501.238C219.73 501.243 219.581 501.193 219.466 501.096C219.409 501.049 219.364 500.99 219.336 500.924C219.307 500.857 219.296 500.785 219.302 500.714V497.766C219.329 497.401 219.206 497.04 218.96 496.759C218.843 496.644 218.701 496.554 218.545 496.496C218.388 496.437 218.22 496.411 218.052 496.419C217.847 496.415 217.643 496.453 217.455 496.531C217.268 496.609 217.1 496.726 216.965 496.873C216.644 497.204 216.473 497.642 216.489 498.092V500.714C216.492 500.786 216.478 500.859 216.447 500.925C216.416 500.991 216.369 501.05 216.31 501.096C216.2 501.191 216.056 501.241 215.908 501.238C215.753 501.24 215.604 501.184 215.491 501.082Z" fill="white"/>
<path d="M222.935 500.869C222.63 500.522 222.48 500.074 222.518 499.622V496.504H221.848C221.792 496.509 221.735 496.502 221.681 496.485C221.627 496.468 221.578 496.441 221.536 496.405C221.5 496.372 221.471 496.332 221.451 496.289C221.432 496.245 221.422 496.198 221.422 496.15C221.422 496.102 221.432 496.055 221.451 496.011C221.471 495.967 221.5 495.928 221.536 495.895C221.58 495.858 221.632 495.83 221.688 495.813C221.745 495.796 221.804 495.79 221.863 495.796H222.533L222.697 494.265C222.701 494.198 222.718 494.132 222.749 494.072C222.779 494.011 222.822 493.957 222.875 493.912C222.927 493.868 222.988 493.833 223.055 493.811C223.122 493.789 223.192 493.779 223.262 493.783C223.319 493.779 223.376 493.785 223.43 493.802C223.483 493.819 223.533 493.846 223.575 493.882C223.62 493.925 223.656 493.975 223.679 494.032C223.702 494.088 223.712 494.148 223.709 494.208V495.781H224.736C224.793 495.774 224.851 495.779 224.905 495.796C224.959 495.814 225.008 495.842 225.049 495.881C225.085 495.916 225.113 495.958 225.131 496.005C225.149 496.051 225.156 496.101 225.153 496.15C225.155 496.197 225.147 496.244 225.129 496.288C225.111 496.332 225.084 496.372 225.049 496.405C224.96 496.471 224.848 496.502 224.736 496.49H223.709V499.325C223.689 499.592 223.74 499.86 223.858 500.104C223.91 500.187 223.984 500.254 224.073 500.299C224.163 500.344 224.263 500.365 224.364 500.359H224.781C224.844 500.356 224.908 500.366 224.967 500.388C225.026 500.41 225.079 500.443 225.123 500.487C225.197 500.57 225.239 500.675 225.242 500.784C225.258 500.84 225.258 500.899 225.242 500.954C225.25 500.992 225.25 501.03 225.242 501.068L225.123 501.153H224.975H224.781H224.081C223.88 501.183 223.674 501.173 223.477 501.124C223.28 501.075 223.095 500.989 222.935 500.869Z" fill="white"/>
<path d="M327.027 504.2C326.884 504.204 326.743 504.164 326.625 504.087C325.881 503.633 319.316 499.495 319.316 495.867C319.318 495.021 319.592 494.197 320.101 493.504C320.61 492.812 321.329 492.284 322.163 491.992C322.996 491.701 323.903 491.659 324.762 491.873C325.621 492.086 326.391 492.545 326.968 493.188C327.545 492.545 328.314 492.086 329.173 491.873C330.032 491.659 330.94 491.701 331.773 491.992C332.606 492.284 333.326 492.812 333.835 493.504C334.344 494.197 334.618 495.021 334.62 495.867C334.62 499.481 328.174 503.633 327.429 504.087C327.312 504.166 327.171 504.206 327.027 504.2ZM323.663 493.16C323.288 493.158 322.917 493.227 322.57 493.362C322.223 493.497 321.908 493.696 321.643 493.948C321.377 494.199 321.166 494.498 321.022 494.827C320.878 495.157 320.804 495.51 320.804 495.867C320.804 498.134 324.973 501.309 327.027 502.641C329.052 501.309 333.131 498.134 333.131 495.867C333.125 495.244 332.895 494.641 332.479 494.16C332.062 493.679 331.485 493.349 330.844 493.225C330.202 493.1 329.535 493.189 328.955 493.477C328.374 493.764 327.914 494.232 327.653 494.804C327.597 494.933 327.502 495.044 327.38 495.122C327.258 495.2 327.115 495.242 326.968 495.243C326.821 495.242 326.677 495.2 326.555 495.122C326.434 495.044 326.339 494.933 326.283 494.804C326.064 494.315 325.699 493.899 325.233 493.607C324.767 493.314 324.221 493.159 323.663 493.16Z" fill="white"/>
<path d="M364.439 466.558C364.443 464.722 363.779 462.94 362.56 461.517C361.341 460.093 359.641 459.115 357.75 458.75C355.859 458.384 353.894 458.653 352.188 459.511C350.481 460.368 349.14 461.762 348.391 463.455C347.642 461.762 346.3 460.368 344.594 459.511C342.888 458.653 340.922 458.384 339.031 458.75C337.14 459.115 335.441 460.093 334.221 461.517C333.002 462.94 332.338 464.722 332.342 466.558C332.342 474.311 348.54 484.288 348.54 484.288C348.54 484.288 364.439 474.311 364.439 466.558Z" fill="#92E3A9"/>
<path d="M373.387 439.319C373.368 437.968 372.864 436.664 371.96 435.623C371.055 434.582 369.804 433.867 368.414 433.596C367.024 433.324 365.578 433.513 364.316 434.132C363.055 434.75 362.053 435.76 361.477 436.995C360.89 435.773 359.886 434.776 358.628 434.168C357.37 433.56 355.933 433.375 354.55 433.645C353.168 433.915 351.922 434.623 351.017 435.653C350.112 436.684 349.601 437.976 349.567 439.319C349.567 445.101 361.641 452.528 361.641 452.528C361.641 452.528 373.387 445.101 373.387 439.319Z" fill="#92E3A9"/>
<g opacity="0.4">
<path opacity="0.4" d="M373.387 439.319C373.368 437.968 372.864 436.664 371.96 435.623C371.055 434.582 369.804 433.867 368.414 433.596C367.024 433.324 365.578 433.513 364.316 434.132C363.055 434.75 362.053 435.76 361.477 436.995C360.89 435.773 359.886 434.776 358.628 434.168C357.37 433.56 355.933 433.375 354.55 433.645C353.168 433.915 351.922 434.623 351.017 435.653C350.112 436.684 349.601 437.976 349.567 439.319C349.567 445.101 361.641 452.528 361.641 452.528C361.641 452.528 373.387 445.101 373.387 439.319Z" fill="white"/>
</g>
<path d="M367.685 422.724C367.626 421.788 367.245 420.898 366.601 420.19C365.956 419.482 365.084 418.997 364.12 418.81C363.156 418.622 362.154 418.743 361.269 419.154C360.385 419.564 359.668 420.241 359.229 421.08C358.79 420.241 358.073 419.564 357.188 419.154C356.304 418.743 355.302 418.622 354.337 418.81C353.373 418.997 352.501 419.482 351.857 420.19C351.212 420.898 350.831 421.788 350.773 422.724C350.773 426.805 359.303 432.063 359.303 432.063C359.303 432.063 367.685 426.805 367.685 422.724Z" fill="#92E3A9"/>
<g opacity="0.7">
<path opacity="0.7" d="M367.685 422.724C367.626 421.788 367.245 420.898 366.601 420.19C365.956 419.482 365.084 418.997 364.12 418.81C363.156 418.622 362.154 418.743 361.269 419.154C360.385 419.564 359.668 420.241 359.229 421.08C358.79 420.241 358.073 419.564 357.188 419.154C356.304 418.743 355.302 418.622 354.337 418.81C353.373 418.997 352.501 419.482 351.857 420.19C351.212 420.898 350.831 421.788 350.773 422.724C350.773 426.805 359.303 432.063 359.303 432.063C359.303 432.063 367.685 426.805 367.685 422.724Z" fill="white"/>
</g>
<path d="M376.9 407.262C376.839 406.328 376.456 405.439 375.81 404.733C375.164 404.028 374.292 403.545 373.329 403.359C372.365 403.173 371.364 403.295 370.481 403.706C369.598 404.117 368.882 404.794 368.444 405.632C368.006 404.794 367.29 404.117 366.407 403.706C365.524 403.295 364.523 403.173 363.559 403.359C362.596 403.545 361.724 404.028 361.078 404.733C360.432 405.439 360.049 406.328 359.988 407.262C359.988 411.357 368.519 416.601 368.519 416.601C368.519 416.601 376.9 411.357 376.9 407.262Z" fill="#92E3A9"/>
<g opacity="0.5">
<path opacity="0.5" d="M376.9 407.262C376.839 406.328 376.456 405.439 375.81 404.733C375.164 404.028 374.292 403.545 373.329 403.359C372.365 403.173 371.364 403.295 370.481 403.706C369.598 404.117 368.882 404.794 368.444 405.632C368.006 404.794 367.29 404.117 366.407 403.706C365.524 403.295 364.523 403.173 363.559 403.359C362.596 403.545 361.724 404.028 361.078 404.733C360.432 405.439 360.049 406.328 359.988 407.262C359.988 411.357 368.519 416.601 368.519 416.601C368.519 416.601 376.9 411.357 376.9 407.262Z" fill="white"/>
</g>
<path d="M355.834 395.981C355.773 395.047 355.39 394.158 354.744 393.452C354.099 392.747 353.227 392.264 352.263 392.078C351.3 391.892 350.299 392.014 349.416 392.425C348.532 392.836 347.816 393.513 347.378 394.351C346.94 393.513 346.224 392.836 345.341 392.425C344.458 392.014 343.457 391.892 342.494 392.078C341.53 392.264 340.658 392.747 340.012 393.452C339.367 394.158 338.983 395.047 338.922 395.981C338.922 400.076 347.453 405.32 347.453 405.32C347.453 405.32 355.834 400.076 355.834 395.981Z" fill="#92E3A9"/>
<g opacity="0.7">
<path opacity="0.7" d="M355.834 395.981C355.773 395.047 355.39 394.158 354.744 393.452C354.099 392.747 353.227 392.264 352.263 392.078C351.3 391.892 350.299 392.014 349.416 392.425C348.532 392.836 347.816 393.513 347.378 394.351C346.94 393.513 346.224 392.836 345.341 392.425C344.458 392.014 343.457 391.892 342.494 392.078C341.53 392.264 340.658 392.747 340.012 393.452C339.367 394.158 338.983 395.047 338.922 395.981C338.922 400.076 347.453 405.32 347.453 405.32C347.453 405.32 355.834 400.076 355.834 395.981Z" fill="white"/>
</g>
<path d="M366.836 381.596C366.782 380.985 366.523 380.408 366.095 379.95C365.668 379.492 365.097 379.178 364.466 379.055C363.836 378.933 363.181 379.007 362.599 379.269C362.017 379.53 361.54 379.963 361.238 380.504C360.937 379.963 360.46 379.53 359.878 379.269C359.296 379.007 358.641 378.933 358.011 379.055C357.38 379.178 356.809 379.492 356.382 379.95C355.954 380.408 355.695 380.985 355.641 381.596C355.641 384.303 361.283 387.775 361.283 387.775C361.283 387.775 366.836 384.303 366.836 381.596Z" fill="#92E3A9"/>
<g opacity="0.7">
<path opacity="0.7" d="M366.836 381.596C366.782 380.985 366.523 380.408 366.095 379.95C365.668 379.492 365.097 379.178 364.466 379.055C363.836 378.933 363.181 379.007 362.599 379.269C362.017 379.53 361.54 379.963 361.238 380.504C360.937 379.963 360.46 379.53 359.878 379.269C359.296 379.007 358.641 378.933 358.011 379.055C357.38 379.178 356.809 379.492 356.382 379.95C355.954 380.408 355.695 380.985 355.641 381.596C355.641 384.303 361.283 387.775 361.283 387.775C361.283 387.775 366.836 384.303 366.836 381.596Z" fill="white"/>
</g>
<path d="M378.984 118.303H150.478V524.948H378.984V118.303Z" stroke="#263238" stroke-linecap="round" stroke-linejoin="round"/>
</svg>
