<svg width="132" height="81" viewBox="0 0 132 81" fill="none" xmlns="http://www.w3.org/2000/svg">
<g opacity="0.25">
<path opacity="0.25" d="M132 0H0V21H132V0Z" fill="#5D2CFF"/>
<path opacity="0.25" d="M131.5 0.5H0.5V20.5H131.5V0.5Z" stroke="#707070"/>
</g>
<path d="M91.785 51.457C91.1029 50.7732 90.1782 50.3865 89.2123 50.3813C88.2464 50.376 87.3175 50.7526 86.628 51.429L69.56 68.441V3.61501C69.5442 2.65915 69.1533 1.74779 68.4718 1.07742C67.7902 0.407054 66.8725 0.0313721 65.9165 0.0313721C64.9605 0.0313721 64.0428 0.407054 63.3612 1.07742C62.6797 1.74779 62.2888 2.65915 62.273 3.61501V68.441L45.205 51.401C44.5121 50.7311 43.5846 50.3589 42.6208 50.3642C41.657 50.3694 40.7336 50.7516 40.048 51.429C39.3721 52.1132 38.9954 53.0376 39.0007 53.9993C39.0059 54.961 39.3927 55.8813 40.076 56.558L63.338 79.652C63.6755 79.9674 64.064 80.2233 64.487 80.409C64.9293 80.5982 65.406 80.6935 65.887 80.689C66.8397 80.6891 67.7547 80.317 68.437 79.652L91.701 56.558C92.0459 56.2312 92.3222 55.8389 92.5135 55.4039C92.7048 54.969 92.8074 54.5003 92.8152 54.0252C92.8231 53.5501 92.736 53.0782 92.5591 52.6372C92.3822 52.1962 92.119 51.795 91.785 51.457Z" fill="#5D2CFF"/>
</svg>
