<svg width="98" height="130" viewBox="0 0 98 130" fill="none" xmlns="http://www.w3.org/2000/svg">
<path d="M85.313 130H12.188C8.95669 129.997 5.85862 128.712 3.57364 126.427C1.28867 124.142 0.00344164 121.044 0 117.813V60.938C0.00317695 57.7065 1.28829 54.6083 3.57329 52.3233C5.8583 50.0383 8.95652 48.7532 12.188 48.75H85.313C88.5443 48.7534 91.6423 50.0387 93.9271 52.3236C96.2119 54.6086 97.4968 57.7067 97.5 60.938V117.813C97.4966 121.044 96.2115 124.142 93.9267 126.427C91.642 128.711 88.5441 129.997 85.313 130ZM12.188 56.875C11.1108 56.8761 10.0779 57.3045 9.31619 58.0662C8.55446 58.8279 8.12606 59.8608 8.125 60.938V117.813C8.12606 118.89 8.55446 119.923 9.31619 120.685C10.0779 121.447 11.1108 121.875 12.188 121.876H85.313C86.3899 121.875 87.4223 121.446 88.1838 120.685C88.9453 119.923 89.3737 118.891 89.375 117.814V60.938C89.3739 59.8609 88.9457 58.8282 88.1842 58.0665C87.4226 57.3048 86.3901 56.8763 85.313 56.875H12.188Z" fill="black"/>
<path d="M77.188 56.875C76.1108 56.8745 75.0779 56.4463 74.3163 55.6847C73.5546 54.923 73.1265 53.8901 73.126 52.813V32.5C73.126 26.0353 70.5579 19.8355 65.9867 15.2643C61.4155 10.6931 55.2156 8.125 48.751 8.125C42.2863 8.125 36.0864 10.6931 31.5152 15.2643C26.944 19.8355 24.376 26.0353 24.376 32.5V52.813C24.3592 53.8794 23.9239 54.8965 23.1638 55.6447C22.4038 56.3929 21.38 56.8123 20.3135 56.8123C19.2469 56.8123 18.2232 56.3929 17.4631 55.6447C16.7031 54.8965 16.2677 53.8794 16.251 52.813V32.5C16.251 23.8805 19.6751 15.614 25.77 9.51903C31.8649 3.4241 40.1314 0 48.751 0C57.3705 0 65.637 3.4241 71.7319 9.51903C77.8269 15.614 81.251 23.8805 81.251 32.5V52.813C81.2505 53.8903 80.8222 54.9233 80.0603 55.685C79.2984 56.4467 78.2653 56.8747 77.188 56.875Z" fill="black"/>
<path d="M48.75 92.084C46.6075 92.0838 44.5132 91.4483 42.7319 90.2579C40.9505 89.0674 39.5622 87.3756 38.7424 85.3961C37.9226 83.4167 37.7081 81.2386 38.1262 79.1373C38.5442 77.036 39.5759 75.1058 41.0909 73.5909C42.6058 72.0759 44.536 71.0442 46.6373 70.6262C48.7386 70.2081 50.9167 70.4226 52.8961 71.2424C54.8756 72.0622 56.5674 73.4505 57.7579 75.2319C58.9483 77.0132 59.5838 79.1075 59.584 81.25C59.5813 84.1225 58.439 86.8766 56.4078 88.9078C54.3766 90.939 51.6225 92.0813 48.75 92.084ZM48.75 78.542C48.2144 78.542 47.6908 78.7008 47.2455 78.9984C46.8002 79.2959 46.4531 79.7188 46.2481 80.2137C46.0431 80.7085 45.9895 81.253 46.094 81.7783C46.1985 82.3036 46.4564 82.7861 46.8351 83.1648C47.2139 83.5435 47.6964 83.8015 48.2217 83.9059C48.747 84.0104 49.2915 83.9568 49.7863 83.7518C50.2811 83.5469 50.704 83.1998 51.0016 82.7545C51.2992 82.3091 51.458 81.7856 51.458 81.25C51.4567 80.5322 51.1709 79.8442 50.6634 79.3366C50.1558 78.829 49.4678 78.5433 48.75 78.542Z" fill="black"/>
<path d="M48.75 108.334C47.6728 108.334 46.64 107.905 45.8783 107.144C45.1166 106.382 44.6885 105.349 44.688 104.272V89.3721C44.7047 88.3057 45.1401 87.2886 45.9001 86.5404C46.6602 85.7922 47.684 85.3728 48.7505 85.3728C49.817 85.3728 50.8408 85.7922 51.6008 86.5404C52.3609 87.2886 52.7963 88.3057 52.813 89.3721V104.272C52.8125 105.349 52.3842 106.382 51.6223 107.144C50.8604 107.906 49.8273 108.334 48.75 108.334Z" fill="black"/>
</svg>
