<svg width="391" height="80" viewBox="0 0 391 80" fill="none" xmlns="http://www.w3.org/2000/svg">
<path d="M277.859 26.5304C281.582 20.8768 284.636 15.6948 286.324 11.8844C286.81 10.9309 287.105 9.89155 287.193 8.82485C287.193 8.7628 287.193 8.69453 287.193 8.63247C287.191 7.20271 286.701 5.81646 285.802 4.70411C284.807 3.53424 283.565 2.59953 282.166 1.96728C280.533 1.22274 278.803 0.712935 277.027 0.453034C275.058 0.153219 273.068 0.00178163 271.076 0L270.343 0C263.832 0.00213658 257.34 0.724347 250.987 2.15346C245.239 3.46347 239.628 5.31704 234.231 7.68917C225.748 11.4345 217.979 16.6231 211.269 23.0241C209.054 25.078 207.069 27.367 205.349 29.8506C203.586 32.5564 203.35 33.6735 203.35 34.3871C203.352 35.4152 203.687 36.4149 204.306 37.2357C204.872 38.0109 205.595 38.6579 206.428 39.1347C207.006 39.5 207.675 39.6937 208.358 39.6932H208.551C208.682 39.6969 208.812 39.6733 208.933 39.624C209.054 39.5747 209.164 39.5007 209.255 39.4067C209.346 39.3127 209.416 39.2009 209.462 39.0782C209.507 38.9555 209.527 38.8247 209.519 38.6941C209.519 37.5336 210.245 35.8517 211.703 33.6362C213.516 31.0138 215.596 28.5867 217.909 26.3939C228.421 16.3419 241.329 9.14463 255.406 5.48606C260.781 4.10895 266.308 3.41257 271.858 3.41327H272.795C274.079 3.42334 275.354 3.6327 276.574 4.03386C277.444 4.31855 278.229 4.81553 278.858 5.47985C279.328 6.01746 279.639 6.67483 279.758 7.37887C279.864 8.01674 279.918 8.66224 279.919 9.30892C279.84 10.4838 279.535 11.6324 279.019 12.6912C278.328 14.2607 277.545 15.7879 276.673 17.2649C274.607 20.724 272.366 24.0755 269.959 27.3062C265.353 27.8607 260.791 28.7316 256.306 29.9127C252.788 30.8262 249.37 32.0881 246.103 33.6797C243.716 34.8027 241.547 36.3408 239.698 38.2224C237.557 40.5496 237.477 42.4487 237.477 43.1313V43.2803C237.476 44.164 237.689 45.0348 238.097 45.8185C238.411 46.4632 238.872 47.0246 239.444 47.4569C239.761 47.7219 240.161 47.867 240.573 47.8665C240.648 47.8726 240.723 47.8726 240.797 47.8665C241.213 47.7796 241.417 47.4134 241.417 46.768C241.417 46.1226 241.964 45.2165 243.056 44.0312C244.495 42.5704 246.094 41.2756 247.822 40.1711C250.272 38.5733 252.848 37.1765 255.524 35.9945C258.956 34.4816 262.51 33.263 266.148 32.3516C258.316 42.5356 255.939 44.9931 251.372 51.6707C249.458 54.4267 247.768 57.3321 246.32 60.359C245.111 62.777 244.452 65.4324 244.39 68.1351C244.388 69.186 244.541 70.2316 244.843 71.2381C245.103 72.1536 245.505 73.0226 246.035 73.8135C246.482 74.5007 247.062 75.0915 247.741 75.5512C248.324 75.9575 249.017 76.1742 249.727 76.1718H249.796C250.156 76.1703 250.503 76.0303 250.764 75.7808C251.025 75.5143 251.204 75.1782 251.279 74.8127C251.367 74.3895 251.421 73.9599 251.44 73.528V72.1751C251.44 69.8624 252.181 67.1152 253.662 63.9336C255.34 60.3979 257.232 56.9679 259.328 53.6628C264.249 45.7999 266.856 42.5728 275.128 30.527C279.442 29.8828 283.799 29.5592 288.161 29.5589H288.862C289.731 29.5585 290.595 29.6775 291.431 29.9127C292.064 30.1038 292.685 30.3296 293.293 30.5891C293.611 30.7502 293.943 30.8811 294.286 30.9801H294.336C294.503 30.9801 294.578 30.8125 294.578 30.4588C294.557 29.3394 294.095 28.2734 293.293 27.4923C292.432 26.5987 291.123 26.1477 289.365 26.1394C285.289 26.1394 281.448 26.2698 277.84 26.5304H277.859Z" fill="#00AFF0"/>
<path d="M322.175 39.7614C319.073 43.9194 314.108 50.4915 309.242 55.661C307.972 57.0323 306.617 58.3216 305.184 59.5211C303.942 60.5348 302.968 61.0395 302.261 61.0354C301.348 61.0354 300.901 60.6382 300.901 59.8314C300.901 59.7632 300.901 59.6949 300.901 59.6204C301.088 58.3833 301.51 57.1933 302.143 56.1141C302.963 54.5299 303.87 52.9926 304.861 51.5092C306.406 49.1572 307.511 47.5809 310.781 43.1685C311.229 42.6498 311.608 42.0763 311.911 41.4618C311.911 41.2943 311.781 41.1081 311.526 40.9157C311.22 40.6971 310.896 40.5041 310.558 40.3385C310.173 40.1462 309.764 39.9662 309.317 39.7924C308.914 39.6306 308.499 39.5019 308.076 39.4077C308.532 38.2404 308.772 36.9996 308.783 35.7461C308.783 34.7407 308.665 33.7387 308.429 32.7611C308.223 31.8789 307.841 31.0474 307.306 30.3159C306.773 29.6187 306.076 29.0644 305.277 28.7024C304.364 28.3227 303.386 28.1266 302.397 28.1252H302.124C299.73 28.1263 297.36 28.6075 295.155 29.5402C290.591 31.5888 286.602 34.7281 283.537 38.6816C281.993 40.612 280.615 42.6693 279.417 44.8316C278.337 46.7934 277.456 48.8577 276.785 50.9942C276.173 52.855 275.857 54.8005 275.848 56.7595C275.848 58.2684 276.134 59.7637 276.692 61.1657C277.177 62.3439 277.911 63.4027 278.846 64.2687C279.671 65.032 280.648 65.6134 281.713 65.9753C282.642 66.304 283.619 66.478 284.605 66.4904C285.865 66.4919 287.102 66.1463 288.179 65.4912C289.265 64.884 290.273 64.1485 291.183 63.3005C292.209 62.3151 293.117 61.2133 293.889 60.0176C293.842 60.3901 293.819 60.7654 293.821 61.1409C293.82 61.8686 293.908 62.5937 294.081 63.3005C294.31 64.1483 294.767 64.9168 295.403 65.5223C296.067 66.1925 297.128 66.5214 298.587 66.5214C299.704 66.5214 301.055 65.9422 302.639 64.7838C304.441 63.4405 306.133 61.9546 307.697 60.3403C315.07 52.8932 323.832 40.5744 326.315 37.099C326.453 36.9219 326.525 36.7027 326.52 36.4784C326.531 36.3498 326.501 36.2208 326.436 36.1096C326.37 35.9983 326.271 35.9103 326.153 35.8579C326.007 35.8016 325.851 35.7722 325.694 35.771C325.497 35.7681 325.303 35.8164 325.13 35.911C324.957 36.0056 324.811 36.1434 324.707 36.3109C324.157 37.0887 323.313 38.2389 322.175 39.7614ZM285.194 63.3005C283.773 63.3005 282.904 62.531 282.563 61.0168C282.432 60.2646 282.365 59.5027 282.364 58.7392C282.364 57.5843 282.516 56.4345 282.817 55.3197C283.427 52.7681 284.301 50.2869 285.424 47.916C286.627 45.2979 288.099 42.8124 289.818 40.4999C291.407 38.3349 293.305 36.4154 295.453 34.8028C297.249 33.3739 299.463 32.5699 301.758 32.5128H301.925C302.279 32.5136 302.628 32.5997 302.941 32.7639C303.254 32.9282 303.523 33.1656 303.725 33.4562C304.133 34.1345 304.347 34.9113 304.346 35.7027C304.346 35.8144 304.346 35.833 304.346 35.9137C304.35 37.286 304.052 38.6423 303.471 39.8855C302.918 41.0686 302.262 42.2005 301.51 43.2678C300.918 44.114 300.271 44.9204 299.573 45.6819C299.234 45.9917 298.941 46.3492 298.705 46.7431C298.802 47.0021 298.945 47.2417 299.127 47.4506C299.416 47.8535 299.727 48.2409 300.057 48.6111C296.117 54.2585 294.714 56.1203 292.61 58.4599C291.47 59.75 290.197 60.9169 288.812 61.9414C287.786 62.7762 286.516 63.2534 285.194 63.3005V63.3005Z" fill="#00AFF0"/>
<path d="M336.071 66.5029C337.312 66.5029 338.741 65.9257 340.359 64.7714C342.191 63.441 343.904 61.9543 345.479 60.328C352.752 52.9925 361.124 40.711 363.724 37.0867C363.862 36.9096 363.934 36.6904 363.929 36.4661C363.94 36.3374 363.911 36.2085 363.845 36.0972C363.78 35.986 363.681 35.898 363.563 35.8455C363.416 35.7892 363.261 35.7598 363.104 35.7586C362.907 35.7558 362.712 35.804 362.539 35.8987C362.366 35.9933 362.221 36.131 362.117 36.2985C361.807 36.7267 359.293 40.1773 355.743 44.7945C354.453 46.4763 350.53 51.5279 346.633 55.6425C345.362 57.0202 344.004 58.3158 342.568 59.5212C341.327 60.5348 340.353 61.0396 339.645 61.0354C338.789 61.0354 338.317 60.7562 338.23 60.1976C338.23 60.1418 338.23 60.0859 338.23 60.0301C338.232 59.2893 338.422 58.5611 338.783 57.9138C339.366 56.7333 340.045 55.6021 340.812 54.5316C341.712 53.247 342.674 51.8755 343.741 50.4171C348.458 43.8263 350.568 40.7234 352.169 36.9253C352.701 35.7734 352.997 34.5261 353.038 33.2576C353.038 33.1273 353.038 32.997 353.038 32.8666C353.038 31.6621 352.701 30.4816 352.063 29.4596C351.418 28.5618 350.367 28.1108 348.911 28.1067C347.36 28.1511 345.844 28.5774 344.498 29.3479C342.84 30.2521 341.276 31.3208 339.831 32.5377C338.282 33.8333 336.801 35.2087 335.394 36.6585C333.29 38.8244 332.068 40.1959 328.859 43.9629C328.521 44.4294 328.12 44.847 327.668 45.2041C327.668 45.2041 327.624 45.2041 327.624 45.1482C327.624 44.5773 329.945 40.8971 331.813 36.2861C332.334 35.0682 332.618 33.7625 332.651 32.4384C332.65 31.5676 332.327 30.7279 331.745 30.0802C331.193 29.4726 330.526 28.9792 329.784 28.628C329.179 28.3364 328.524 28.1616 327.854 28.1129C327.277 28.1129 326.985 28.1687 326.985 28.3425C326.874 30.2413 326.427 32.1052 325.663 33.8472C324.684 36.327 323.578 38.7547 322.349 41.1206C321.909 41.9832 319.643 46.5383 313.71 56.3065C312.382 58.4786 311.278 60.2597 310.397 61.6498C309.884 62.366 309.435 63.126 309.056 63.9212C309.091 64.1507 309.19 64.3657 309.341 64.5418C309.586 64.8732 309.879 65.1661 310.21 65.4106C310.624 65.7275 311.079 65.9864 311.563 66.1802C312.078 66.3953 312.631 66.505 313.189 66.5029H313.239C315.343 66.5029 327.99 47.4382 337.274 37.8562C338.592 36.4721 340.014 35.19 341.526 34.021C342.808 33.0652 343.882 32.5832 344.746 32.575C345.59 32.575 346.019 32.8542 346.019 33.4128C346.014 33.5775 345.984 33.7407 345.932 33.8968C345.45 35.1441 344.789 36.3148 343.971 37.3722C340.868 41.6791 339.18 43.3857 335.86 48.3132C334.535 50.2762 333.353 52.3315 332.322 54.4633C331.4 56.2601 330.893 58.2409 330.839 60.2597C330.839 60.4024 330.839 60.5452 330.839 60.6879C330.839 61.6214 331.018 62.5463 331.366 63.4123C331.7 64.2358 332.23 64.9647 332.912 65.5347C333.722 66.1713 334.723 66.5166 335.754 66.5153C335.934 66.5153 336.021 66.5029 336.071 66.5029Z" fill="#00AFF0"/>
<path d="M387.443 38.7621C386.326 40.3012 384.34 42.9884 381.765 46.4203C380.648 47.8849 379.51 49.3019 378.352 50.6713C377.197 52.0428 376.068 53.3337 374.976 54.5314C374.016 55.615 372.979 56.6271 371.873 57.5599C372.093 56.8335 372.255 56.0905 372.357 55.3382C372.46 54.5813 372.514 53.8184 372.518 53.0544C372.517 51.2075 372.345 49.3647 372.003 47.5497C370.967 42.1009 370.582 41.0211 369.75 36.379C369.408 34.5056 369.236 32.6051 369.235 30.7006V30.4958C369.234 29.3646 369.497 28.2488 370.005 27.2377C370.483 26.3084 371.044 25.4236 371.68 24.5939C372.301 23.8244 372.835 23.1293 373.35 22.5025C373.798 22.0403 374.072 21.4373 374.125 20.7959C374.112 20.6055 374.053 20.4212 373.952 20.259C373.852 20.0967 373.713 19.9615 373.548 19.865C373.14 19.5934 372.661 19.4487 372.171 19.4492H372.065C370.762 19.4612 369.472 19.7224 368.267 20.2188C365.686 21.2542 363.554 23.1688 362.247 25.6241C361.596 26.84 361.255 28.1979 361.254 29.5773C361.297 31.2878 361.479 32.9919 361.8 34.6724C363.011 41.8154 363.507 44.6454 363.923 49.0081C364.035 50.1438 364.09 51.2857 364.09 52.4214C364.09 53.5571 364.035 54.7052 363.923 55.8347C363.792 57.5944 363.241 59.2971 362.315 60.7994C361.453 62.0903 360.106 62.7295 358.257 62.7295C356.407 62.7295 355.154 62.2516 354.428 61.2835C353.701 60.3818 353.304 59.2582 353.304 58.0998C353.304 58.0998 353.304 58.0378 353.304 57.9633C353.301 57.5198 353.165 57.0874 352.913 56.7221C352.822 56.5849 352.699 56.4723 352.554 56.3943C352.409 56.3163 352.247 56.2755 352.082 56.2753C351.902 56.3048 351.732 56.3765 351.585 56.4843C351.439 56.5922 351.32 56.7332 351.238 56.8959C350.98 57.3766 350.845 57.9141 350.847 58.4598C350.847 58.5405 350.847 58.6211 350.847 58.7018C350.853 59.6444 351.014 60.5796 351.325 61.4697C351.642 62.391 352.147 63.2364 352.808 63.9521C353.524 64.7219 354.39 65.3365 355.352 65.758C356.442 66.2291 357.616 66.4719 358.803 66.4717H359.982C362.166 66.4358 364.303 65.8373 366.188 64.734C368.418 63.4928 370.5 62.0021 372.394 60.2905C374.491 58.4075 376.449 56.3749 378.252 54.2087C381.646 50.1637 384.818 45.9375 387.754 41.5486C389.02 39.662 390.039 38.1808 390.813 37.1051C390.93 36.9541 390.993 36.7685 390.993 36.5776C391.002 36.5076 391.002 36.4367 390.993 36.3666C390.971 36.2615 390.925 36.163 390.858 36.079C390.791 35.995 390.706 35.9277 390.608 35.8826C390.468 35.827 390.319 35.7976 390.168 35.7957C390.089 35.7896 390.01 35.7896 389.932 35.7957C389.638 35.8679 389.384 36.0529 389.224 36.3108C388.79 36.9272 388.196 37.7443 387.443 38.7621Z" fill="#00AFF0"/>
<path d="M55.5556 67.6206L31.278 15.1183H27.5544L3.27674 67.6206H7.29819L13.9261 53.0242H44.6828L51.3108 67.6206H55.5556ZM43.0444 49.5241H15.5645L29.3417 19.3632L43.0444 49.5241ZM98.3051 67.6206V44.3855C98.3051 35.3 92.7197 28.7466 83.1129 28.7466C76.1871 28.7466 71.9422 32.2467 69.4102 36.715V29.6402H65.7611V67.6206H69.4102V45.6516C69.4102 37.7576 75.1445 32.0978 82.5916 32.0978C90.2622 32.0978 94.656 37.2363 94.656 45.0558V67.6206H98.3051ZM147.849 48.6304V48.4815C147.849 37.8321 139.658 28.7466 128.412 28.7466C117.093 28.7466 108.826 37.981 108.826 48.6304V48.7794C108.826 59.4288 117.018 68.5143 128.264 68.5143C139.583 68.5143 147.849 59.2798 147.849 48.6304ZM143.902 48.7794C143.902 57.7159 137.423 65.0886 128.412 65.0886C119.625 65.0886 112.773 57.7904 112.773 48.6304V48.4815C112.773 39.5449 119.252 32.1722 128.264 32.1722C137.051 32.1722 143.902 39.4704 143.902 48.6304V48.7794ZM191.612 67.6206V44.3855C191.612 35.3 186.027 28.7466 176.42 28.7466C169.494 28.7466 165.25 32.2467 162.718 36.715V29.6402H159.068V67.6206H162.718V45.6516C162.718 37.7576 168.452 32.0978 175.899 32.0978C183.57 32.0978 187.963 37.2363 187.963 45.0558V67.6206H191.612ZM237.385 29.6402H233.364L219.661 63.5992L203.873 29.6402H199.628L217.873 67.3972C215.044 74.0251 212.437 76.3338 208.49 76.3338C205.66 76.3338 204.022 75.8869 202.011 74.9188L200.745 78.1211C203.277 79.2381 205.362 79.7594 208.267 79.7594C213.703 79.7594 217.576 76.9295 220.927 68.9611L237.385 29.6402Z" fill="black"/>
<path d="M134.529 47.6001V46.1694C134.528 45.32 134.368 44.4794 134.057 43.6973C133.747 42.9151 133.293 42.2072 132.722 41.6155C131.57 40.3987 130.014 39.7167 128.394 39.718H127.288C125.667 39.7167 124.111 40.3987 122.96 41.6155C122.388 42.2068 121.934 42.9146 121.624 43.697C121.315 44.4793 121.155 45.3201 121.156 46.1694V47.6076L120.395 49.0649V51.1749C120.397 52.1182 120.575 53.0516 120.919 53.9204C121.264 54.7891 121.768 55.5756 122.401 56.2335C123.689 57.5808 125.42 58.3357 127.224 58.3359H128.461C130.264 58.3363 131.994 57.5813 133.28 56.2335C133.915 55.5763 134.42 54.7901 134.765 53.9212C135.11 53.0524 135.288 52.1185 135.29 51.1749V49.0649L134.529 47.6001ZM128.561 54.0742V55.7819C128.559 55.9046 128.529 56.025 128.474 56.1327C128.419 56.2405 128.34 56.3323 128.244 56.4004H127.533C127.433 56.3322 127.351 56.2385 127.294 56.1279C127.237 56.0172 127.207 55.893 127.206 55.7667V54.0742C126.796 53.9042 126.455 53.5868 126.241 53.1767C126.028 52.7667 125.955 52.2899 126.036 51.8288C126.117 51.3677 126.347 50.9514 126.685 50.6518C127.023 50.3522 127.449 50.1882 127.889 50.1882H127.985C128.425 50.1855 128.853 50.3476 129.193 50.6463C129.533 50.945 129.765 51.3614 129.847 51.8232C129.93 52.285 129.858 52.7631 129.644 53.1743C129.431 53.5855 129.089 53.9039 128.678 54.0742H128.561ZM131.794 47.6456H123.895V46.1694C123.893 45.6974 123.981 45.23 124.153 44.7951C124.325 44.3602 124.577 43.9667 124.894 43.6382C125.532 42.9628 126.393 42.5824 127.291 42.5794H128.394C129.292 42.5824 130.153 42.9628 130.791 43.6382C131.106 43.9655 131.357 44.3566 131.528 44.7887C131.7 45.2207 131.789 45.6849 131.79 46.1542L131.794 47.6456Z" fill="#00AFF0"/>
</svg>
