<svg width="355" height="191" viewBox="0 0 355 191" fill="none" xmlns="http://www.w3.org/2000/svg">
<path d="M70.4023 111.445C70.2305 113.266 69.5586 114.688 68.3867 115.711C67.2148 116.727 65.6562 117.234 63.7109 117.234C62.3516 117.234 61.1523 116.914 60.1133 116.273C59.082 115.625 58.2852 114.707 57.7227 113.52C57.1602 112.332 56.8672 110.953 56.8438 109.383V107.789C56.8438 106.18 57.1289 104.762 57.6992 103.535C58.2695 102.309 59.0859 101.363 60.1484 100.699C61.2188 100.035 62.4531 99.7031 63.8516 99.7031C65.7344 99.7031 67.25 100.215 68.3984 101.238C69.5469 102.262 70.2148 103.707 70.4023 105.574H67.4492C67.3086 104.348 66.9492 103.465 66.3711 102.926C65.8008 102.379 64.9609 102.105 63.8516 102.105C62.5625 102.105 61.5703 102.578 60.875 103.523C60.1875 104.461 59.8359 105.84 59.8203 107.66V109.172C59.8203 111.016 60.1484 112.422 60.8047 113.391C61.4688 114.359 62.4375 114.844 63.7109 114.844C64.875 114.844 65.75 114.582 66.3359 114.059C66.9219 113.535 67.293 112.664 67.4492 111.445H70.4023ZM72.2539 110.543C72.2539 109.301 72.5 108.184 72.9922 107.191C73.4844 106.191 74.1758 105.426 75.0664 104.895C75.957 104.355 76.9805 104.086 78.1367 104.086C79.8477 104.086 81.2344 104.637 82.2969 105.738C83.3672 106.84 83.9453 108.301 84.0312 110.121L84.043 110.789C84.043 112.039 83.8008 113.156 83.3164 114.141C82.8398 115.125 82.1523 115.887 81.2539 116.426C80.3633 116.965 79.332 117.234 78.1602 117.234C76.3711 117.234 74.9375 116.641 73.8594 115.453C72.7891 114.258 72.2539 112.668 72.2539 110.684V110.543ZM75.1016 110.789C75.1016 112.094 75.3711 113.117 75.9102 113.859C76.4492 114.594 77.1992 114.961 78.1602 114.961C79.1211 114.961 79.8672 114.586 80.3984 113.836C80.9375 113.086 81.207 111.988 81.207 110.543C81.207 109.262 80.9297 108.246 80.375 107.496C79.8281 106.746 79.082 106.371 78.1367 106.371C77.207 106.371 76.4688 106.742 75.9219 107.484C75.375 108.219 75.1016 109.32 75.1016 110.789ZM89.1289 104.32L89.2109 105.645C90.1016 104.605 91.3203 104.086 92.8672 104.086C94.5625 104.086 95.7227 104.734 96.3477 106.031C97.2695 104.734 98.5664 104.086 100.238 104.086C101.637 104.086 102.676 104.473 103.355 105.246C104.043 106.02 104.395 107.16 104.41 108.668V117H101.562V108.75C101.562 107.945 101.387 107.355 101.035 106.98C100.684 106.605 100.102 106.418 99.2891 106.418C98.6406 106.418 98.1094 106.594 97.6953 106.945C97.2891 107.289 97.0039 107.742 96.8398 108.305L96.8516 117H94.0039V108.656C93.9648 107.164 93.2031 106.418 91.7188 106.418C90.5781 106.418 89.7695 106.883 89.293 107.812V117H86.4453V104.32H89.1289ZM118.438 110.789C118.438 112.75 117.992 114.316 117.102 115.488C116.211 116.652 115.016 117.234 113.516 117.234C112.125 117.234 111.012 116.777 110.176 115.863V121.875H107.328V104.32H109.953L110.07 105.609C110.906 104.594 112.043 104.086 113.48 104.086C115.027 104.086 116.238 104.664 117.113 105.82C117.996 106.969 118.438 108.566 118.438 110.613V110.789ZM115.602 110.543C115.602 109.277 115.348 108.273 114.84 107.531C114.34 106.789 113.621 106.418 112.684 106.418C111.52 106.418 110.684 106.898 110.176 107.859V113.484C110.691 114.469 111.535 114.961 112.707 114.961C113.613 114.961 114.32 114.598 114.828 113.871C115.344 113.137 115.602 112.027 115.602 110.543ZM123.887 117H121.039V99H123.887V117ZM132.582 117.234C130.777 117.234 129.312 116.668 128.188 115.535C127.07 114.395 126.512 112.879 126.512 110.988V110.637C126.512 109.371 126.754 108.242 127.238 107.25C127.73 106.25 128.418 105.473 129.301 104.918C130.184 104.363 131.168 104.086 132.254 104.086C133.98 104.086 135.312 104.637 136.25 105.738C137.195 106.84 137.668 108.398 137.668 110.414V111.562H129.383C129.469 112.609 129.816 113.438 130.426 114.047C131.043 114.656 131.816 114.961 132.746 114.961C134.051 114.961 135.113 114.434 135.934 113.379L137.469 114.844C136.961 115.602 136.281 116.191 135.43 116.613C134.586 117.027 133.637 117.234 132.582 117.234ZM132.242 106.371C131.461 106.371 130.828 106.645 130.344 107.191C129.867 107.738 129.562 108.5 129.43 109.477H134.855V109.266C134.793 108.312 134.539 107.594 134.094 107.109C133.648 106.617 133.031 106.371 132.242 106.371ZM143.457 101.238V104.32H145.695V106.43H143.457V113.508C143.457 113.992 143.551 114.344 143.738 114.562C143.934 114.773 144.277 114.879 144.77 114.879C145.098 114.879 145.43 114.84 145.766 114.762V116.965C145.117 117.145 144.492 117.234 143.891 117.234C141.703 117.234 140.609 116.027 140.609 113.613V106.43H138.523V104.32H140.609V101.238H143.457ZM153.465 117.234C151.66 117.234 150.195 116.668 149.07 115.535C147.953 114.395 147.395 112.879 147.395 110.988V110.637C147.395 109.371 147.637 108.242 148.121 107.25C148.613 106.25 149.301 105.473 150.184 104.918C151.066 104.363 152.051 104.086 153.137 104.086C154.863 104.086 156.195 104.637 157.133 105.738C158.078 106.84 158.551 108.398 158.551 110.414V111.562H150.266C150.352 112.609 150.699 113.438 151.309 114.047C151.926 114.656 152.699 114.961 153.629 114.961C154.934 114.961 155.996 114.434 156.816 113.379L158.352 114.844C157.844 115.602 157.164 116.191 156.312 116.613C155.469 117.027 154.52 117.234 153.465 117.234ZM153.125 106.371C152.344 106.371 151.711 106.645 151.227 107.191C150.75 107.738 150.445 108.5 150.312 109.477H155.738V109.266C155.676 108.312 155.422 107.594 154.977 107.109C154.531 106.617 153.914 106.371 153.125 106.371ZM170.316 101.238V104.32H172.555V106.43H170.316V113.508C170.316 113.992 170.41 114.344 170.598 114.562C170.793 114.773 171.137 114.879 171.629 114.879C171.957 114.879 172.289 114.84 172.625 114.762V116.965C171.977 117.145 171.352 117.234 170.75 117.234C168.562 117.234 167.469 116.027 167.469 113.613V106.43H165.383V104.32H167.469V101.238H170.316ZM181.379 106.922C181.004 106.859 180.617 106.828 180.219 106.828C178.914 106.828 178.035 107.328 177.582 108.328V117H174.734V104.32H177.453L177.523 105.738C178.211 104.637 179.164 104.086 180.383 104.086C180.789 104.086 181.125 104.141 181.391 104.25L181.379 106.922ZM190.402 117C190.277 116.758 190.168 116.363 190.074 115.816C189.168 116.762 188.059 117.234 186.746 117.234C185.473 117.234 184.434 116.871 183.629 116.145C182.824 115.418 182.422 114.52 182.422 113.449C182.422 112.098 182.922 111.062 183.922 110.344C184.93 109.617 186.367 109.254 188.234 109.254H189.98V108.422C189.98 107.766 189.797 107.242 189.43 106.852C189.062 106.453 188.504 106.254 187.754 106.254C187.105 106.254 186.574 106.418 186.16 106.746C185.746 107.066 185.539 107.477 185.539 107.977H182.691C182.691 107.281 182.922 106.633 183.383 106.031C183.844 105.422 184.469 104.945 185.258 104.602C186.055 104.258 186.941 104.086 187.918 104.086C189.402 104.086 190.586 104.461 191.469 105.211C192.352 105.953 192.805 107 192.828 108.352V114.07C192.828 115.211 192.988 116.121 193.309 116.801V117H190.402ZM187.273 114.949C187.836 114.949 188.363 114.812 188.855 114.539C189.355 114.266 189.73 113.898 189.98 113.438V111.047H188.445C187.391 111.047 186.598 111.23 186.066 111.598C185.535 111.965 185.27 112.484 185.27 113.156C185.27 113.703 185.449 114.141 185.809 114.469C186.176 114.789 186.664 114.949 187.273 114.949ZM198.453 104.32L198.535 105.785C199.473 104.652 200.703 104.086 202.227 104.086C204.867 104.086 206.211 105.598 206.258 108.621V117H203.41V108.785C203.41 107.98 203.234 107.387 202.883 107.004C202.539 106.613 201.973 106.418 201.184 106.418C200.035 106.418 199.18 106.938 198.617 107.977V117H195.77V104.32H198.453ZM216.277 113.555C216.277 113.047 216.066 112.66 215.645 112.395C215.23 112.129 214.539 111.895 213.57 111.691C212.602 111.488 211.793 111.23 211.145 110.918C209.723 110.23 209.012 109.234 209.012 107.93C209.012 106.836 209.473 105.922 210.395 105.188C211.316 104.453 212.488 104.086 213.91 104.086C215.426 104.086 216.648 104.461 217.578 105.211C218.516 105.961 218.984 106.934 218.984 108.129H216.137C216.137 107.582 215.934 107.129 215.527 106.77C215.121 106.402 214.582 106.219 213.91 106.219C213.285 106.219 212.773 106.363 212.375 106.652C211.984 106.941 211.789 107.328 211.789 107.812C211.789 108.25 211.973 108.59 212.34 108.832C212.707 109.074 213.449 109.32 214.566 109.57C215.684 109.812 216.559 110.105 217.191 110.449C217.832 110.785 218.305 111.191 218.609 111.668C218.922 112.145 219.078 112.723 219.078 113.402C219.078 114.543 218.605 115.469 217.66 116.18C216.715 116.883 215.477 117.234 213.945 117.234C212.906 117.234 211.98 117.047 211.168 116.672C210.355 116.297 209.723 115.781 209.27 115.125C208.816 114.469 208.59 113.762 208.59 113.004H211.355C211.395 113.676 211.648 114.195 212.117 114.562C212.586 114.922 213.207 115.102 213.98 115.102C214.73 115.102 215.301 114.961 215.691 114.68C216.082 114.391 216.277 114.016 216.277 113.555ZM232.672 110.789C232.672 112.75 232.227 114.316 231.336 115.488C230.445 116.652 229.25 117.234 227.75 117.234C226.359 117.234 225.246 116.777 224.41 115.863V121.875H221.562V104.32H224.188L224.305 105.609C225.141 104.594 226.277 104.086 227.715 104.086C229.262 104.086 230.473 104.664 231.348 105.82C232.23 106.969 232.672 108.566 232.672 110.613V110.789ZM229.836 110.543C229.836 109.277 229.582 108.273 229.074 107.531C228.574 106.789 227.855 106.418 226.918 106.418C225.754 106.418 224.918 106.898 224.41 107.859V113.484C224.926 114.469 225.77 114.961 226.941 114.961C227.848 114.961 228.555 114.598 229.062 113.871C229.578 113.137 229.836 112.027 229.836 110.543ZM242.668 117C242.543 116.758 242.434 116.363 242.34 115.816C241.434 116.762 240.324 117.234 239.012 117.234C237.738 117.234 236.699 116.871 235.895 116.145C235.09 115.418 234.688 114.52 234.688 113.449C234.688 112.098 235.188 111.062 236.188 110.344C237.195 109.617 238.633 109.254 240.5 109.254H242.246V108.422C242.246 107.766 242.062 107.242 241.695 106.852C241.328 106.453 240.77 106.254 240.02 106.254C239.371 106.254 238.84 106.418 238.426 106.746C238.012 107.066 237.805 107.477 237.805 107.977H234.957C234.957 107.281 235.188 106.633 235.648 106.031C236.109 105.422 236.734 104.945 237.523 104.602C238.32 104.258 239.207 104.086 240.184 104.086C241.668 104.086 242.852 104.461 243.734 105.211C244.617 105.953 245.07 107 245.094 108.352V114.07C245.094 115.211 245.254 116.121 245.574 116.801V117H242.668ZM239.539 114.949C240.102 114.949 240.629 114.812 241.121 114.539C241.621 114.266 241.996 113.898 242.246 113.438V111.047H240.711C239.656 111.047 238.863 111.23 238.332 111.598C237.801 111.965 237.535 112.484 237.535 113.156C237.535 113.703 237.715 114.141 238.074 114.469C238.441 114.789 238.93 114.949 239.539 114.949ZM254.715 106.922C254.34 106.859 253.953 106.828 253.555 106.828C252.25 106.828 251.371 107.328 250.918 108.328V117H248.07V104.32H250.789L250.859 105.738C251.547 104.637 252.5 104.086 253.719 104.086C254.125 104.086 254.461 104.141 254.727 104.25L254.715 106.922ZM261.863 117.234C260.059 117.234 258.594 116.668 257.469 115.535C256.352 114.395 255.793 112.879 255.793 110.988V110.637C255.793 109.371 256.035 108.242 256.52 107.25C257.012 106.25 257.699 105.473 258.582 104.918C259.465 104.363 260.449 104.086 261.535 104.086C263.262 104.086 264.594 104.637 265.531 105.738C266.477 106.84 266.949 108.398 266.949 110.414V111.562H258.664C258.75 112.609 259.098 113.438 259.707 114.047C260.324 114.656 261.098 114.961 262.027 114.961C263.332 114.961 264.395 114.434 265.215 113.379L266.75 114.844C266.242 115.602 265.562 116.191 264.711 116.613C263.867 117.027 262.918 117.234 261.863 117.234ZM261.523 106.371C260.742 106.371 260.109 106.645 259.625 107.191C259.148 107.738 258.844 108.5 258.711 109.477H264.137V109.266C264.074 108.312 263.82 107.594 263.375 107.109C262.93 106.617 262.312 106.371 261.523 106.371ZM271.812 104.32L271.895 105.785C272.832 104.652 274.062 104.086 275.586 104.086C278.227 104.086 279.57 105.598 279.617 108.621V117H276.77V108.785C276.77 107.98 276.594 107.387 276.242 107.004C275.898 106.613 275.332 106.418 274.543 106.418C273.395 106.418 272.539 106.938 271.977 107.977V117H269.129V104.32H271.812ZM287.738 114.961C288.449 114.961 289.039 114.754 289.508 114.34C289.977 113.926 290.227 113.414 290.258 112.805H292.941C292.91 113.594 292.664 114.332 292.203 115.02C291.742 115.699 291.117 116.238 290.328 116.637C289.539 117.035 288.688 117.234 287.773 117.234C286 117.234 284.594 116.66 283.555 115.512C282.516 114.363 281.996 112.777 281.996 110.754V110.461C281.996 108.531 282.512 106.988 283.543 105.832C284.574 104.668 285.98 104.086 287.762 104.086C289.27 104.086 290.496 104.527 291.441 105.41C292.395 106.285 292.895 107.438 292.941 108.867H290.258C290.227 108.141 289.977 107.543 289.508 107.074C289.047 106.605 288.457 106.371 287.738 106.371C286.816 106.371 286.105 106.707 285.605 107.379C285.105 108.043 284.852 109.055 284.844 110.414V110.871C284.844 112.246 285.09 113.273 285.582 113.953C286.082 114.625 286.801 114.961 287.738 114.961ZM299.527 112.922L302.105 104.32H305.141L300.102 118.922C299.328 121.055 298.016 122.121 296.164 122.121C295.75 122.121 295.293 122.051 294.793 121.91V119.707L295.332 119.742C296.051 119.742 296.59 119.609 296.949 119.344C297.316 119.086 297.605 118.648 297.816 118.031L298.227 116.941L293.773 104.32H296.844L299.527 112.922ZM56.1758 145H53.3281V132.32H56.1758V145ZM53.1523 129.027C53.1523 128.59 53.2891 128.227 53.5625 127.938C53.8438 127.648 54.2422 127.504 54.7578 127.504C55.2734 127.504 55.6719 127.648 55.9531 127.938C56.2344 128.227 56.375 128.59 56.375 129.027C56.375 129.457 56.2344 129.816 55.9531 130.105C55.6719 130.387 55.2734 130.527 54.7578 130.527C54.2422 130.527 53.8438 130.387 53.5625 130.105C53.2891 129.816 53.1523 129.457 53.1523 129.027ZM61.9297 132.32L62.0117 133.785C62.9492 132.652 64.1797 132.086 65.7031 132.086C68.3438 132.086 69.6875 133.598 69.7344 136.621V145H66.8867V136.785C66.8867 135.98 66.7109 135.387 66.3594 135.004C66.0156 134.613 65.4492 134.418 64.6602 134.418C63.5117 134.418 62.6562 134.938 62.0938 135.977V145H59.2461V132.32H61.9297ZM79.3789 145V134.43H77.4453V132.32H79.3789V131.453C79.3867 130.461 79.5977 129.609 80.0117 128.898C80.4258 128.188 81.0117 127.652 81.7695 127.293C82.5273 126.934 83.4375 126.754 84.5 126.754C85.125 126.754 85.7227 126.82 86.293 126.953C86.8711 127.086 87.4688 127.254 88.0859 127.457L87.6523 129.812C86.5742 129.438 85.5898 129.25 84.6992 129.25C83.832 129.25 83.2031 129.441 82.8125 129.824C82.4219 130.199 82.2266 130.766 82.2266 131.523V132.32H84.7227V134.43H82.2266V145H79.3789ZM89.4336 145H86.5859V132.32H89.4336V145ZM95.2344 132.32L95.3164 133.785C96.2539 132.652 97.4844 132.086 99.0078 132.086C101.648 132.086 102.992 133.598 103.039 136.621V145H100.191V136.785C100.191 135.98 100.016 135.387 99.6641 135.004C99.3203 134.613 98.7539 134.418 97.9648 134.418C96.8164 134.418 95.9609 134.938 95.3984 135.977V145H92.5508V132.32H95.2344ZM113.527 145C113.402 144.758 113.293 144.363 113.199 143.816C112.293 144.762 111.184 145.234 109.871 145.234C108.598 145.234 107.559 144.871 106.754 144.145C105.949 143.418 105.547 142.52 105.547 141.449C105.547 140.098 106.047 139.062 107.047 138.344C108.055 137.617 109.492 137.254 111.359 137.254H113.105V136.422C113.105 135.766 112.922 135.242 112.555 134.852C112.188 134.453 111.629 134.254 110.879 134.254C110.23 134.254 109.699 134.418 109.285 134.746C108.871 135.066 108.664 135.477 108.664 135.977H105.816C105.816 135.281 106.047 134.633 106.508 134.031C106.969 133.422 107.594 132.945 108.383 132.602C109.18 132.258 110.066 132.086 111.043 132.086C112.527 132.086 113.711 132.461 114.594 133.211C115.477 133.953 115.93 135 115.953 136.352V142.07C115.953 143.211 116.113 144.121 116.434 144.801V145H113.527ZM110.398 142.949C110.961 142.949 111.488 142.812 111.98 142.539C112.48 142.266 112.855 141.898 113.105 141.438V139.047H111.57C110.516 139.047 109.723 139.23 109.191 139.598C108.66 139.965 108.395 140.484 108.395 141.156C108.395 141.703 108.574 142.141 108.934 142.469C109.301 142.789 109.789 142.949 110.398 142.949ZM121.578 132.32L121.66 133.785C122.598 132.652 123.828 132.086 125.352 132.086C127.992 132.086 129.336 133.598 129.383 136.621V145H126.535V136.785C126.535 135.98 126.359 135.387 126.008 135.004C125.664 134.613 125.098 134.418 124.309 134.418C123.16 134.418 122.305 134.938 121.742 135.977V145H118.895V132.32H121.578ZM137.504 142.961C138.215 142.961 138.805 142.754 139.273 142.34C139.742 141.926 139.992 141.414 140.023 140.805H142.707C142.676 141.594 142.43 142.332 141.969 143.02C141.508 143.699 140.883 144.238 140.094 144.637C139.305 145.035 138.453 145.234 137.539 145.234C135.766 145.234 134.359 144.66 133.32 143.512C132.281 142.363 131.762 140.777 131.762 138.754V138.461C131.762 136.531 132.277 134.988 133.309 133.832C134.34 132.668 135.746 132.086 137.527 132.086C139.035 132.086 140.262 132.527 141.207 133.41C142.16 134.285 142.66 135.438 142.707 136.867H140.023C139.992 136.141 139.742 135.543 139.273 135.074C138.812 134.605 138.223 134.371 137.504 134.371C136.582 134.371 135.871 134.707 135.371 135.379C134.871 136.043 134.617 137.055 134.609 138.414V138.871C134.609 140.246 134.855 141.273 135.348 141.953C135.848 142.625 136.566 142.961 137.504 142.961ZM147.887 145H145.039V132.32H147.887V145ZM144.863 129.027C144.863 128.59 145 128.227 145.273 127.938C145.555 127.648 145.953 127.504 146.469 127.504C146.984 127.504 147.383 127.648 147.664 127.938C147.945 128.227 148.086 128.59 148.086 129.027C148.086 129.457 147.945 129.816 147.664 130.105C147.383 130.387 146.984 130.527 146.469 130.527C145.953 130.527 145.555 130.387 145.273 130.105C145 129.816 144.863 129.457 144.863 129.027ZM158.574 145C158.449 144.758 158.34 144.363 158.246 143.816C157.34 144.762 156.23 145.234 154.918 145.234C153.645 145.234 152.605 144.871 151.801 144.145C150.996 143.418 150.594 142.52 150.594 141.449C150.594 140.098 151.094 139.062 152.094 138.344C153.102 137.617 154.539 137.254 156.406 137.254H158.152V136.422C158.152 135.766 157.969 135.242 157.602 134.852C157.234 134.453 156.676 134.254 155.926 134.254C155.277 134.254 154.746 134.418 154.332 134.746C153.918 135.066 153.711 135.477 153.711 135.977H150.863C150.863 135.281 151.094 134.633 151.555 134.031C152.016 133.422 152.641 132.945 153.43 132.602C154.227 132.258 155.113 132.086 156.09 132.086C157.574 132.086 158.758 132.461 159.641 133.211C160.523 133.953 160.977 135 161 136.352V142.07C161 143.211 161.16 144.121 161.48 144.801V145H158.574ZM155.445 142.949C156.008 142.949 156.535 142.812 157.027 142.539C157.527 142.266 157.902 141.898 158.152 141.438V139.047H156.617C155.562 139.047 154.77 139.23 154.238 139.598C153.707 139.965 153.441 140.484 153.441 141.156C153.441 141.703 153.621 142.141 153.98 142.469C154.348 142.789 154.836 142.949 155.445 142.949ZM167.012 145H164.164V127H167.012V145ZM179.668 129.238V132.32H181.906V134.43H179.668V141.508C179.668 141.992 179.762 142.344 179.949 142.562C180.145 142.773 180.488 142.879 180.98 142.879C181.309 142.879 181.641 142.84 181.977 142.762V144.965C181.328 145.145 180.703 145.234 180.102 145.234C177.914 145.234 176.82 144.027 176.82 141.613V134.43H174.734V132.32H176.82V129.238H179.668ZM190.73 134.922C190.355 134.859 189.969 134.828 189.57 134.828C188.266 134.828 187.387 135.328 186.934 136.328V145H184.086V132.32H186.805L186.875 133.738C187.562 132.637 188.516 132.086 189.734 132.086C190.141 132.086 190.477 132.141 190.742 132.25L190.73 134.922ZM199.754 145C199.629 144.758 199.52 144.363 199.426 143.816C198.52 144.762 197.41 145.234 196.098 145.234C194.824 145.234 193.785 144.871 192.98 144.145C192.176 143.418 191.773 142.52 191.773 141.449C191.773 140.098 192.273 139.062 193.273 138.344C194.281 137.617 195.719 137.254 197.586 137.254H199.332V136.422C199.332 135.766 199.148 135.242 198.781 134.852C198.414 134.453 197.855 134.254 197.105 134.254C196.457 134.254 195.926 134.418 195.512 134.746C195.098 135.066 194.891 135.477 194.891 135.977H192.043C192.043 135.281 192.273 134.633 192.734 134.031C193.195 133.422 193.82 132.945 194.609 132.602C195.406 132.258 196.293 132.086 197.27 132.086C198.754 132.086 199.938 132.461 200.82 133.211C201.703 133.953 202.156 135 202.18 136.352V142.07C202.18 143.211 202.34 144.121 202.66 144.801V145H199.754ZM196.625 142.949C197.188 142.949 197.715 142.812 198.207 142.539C198.707 142.266 199.082 141.898 199.332 141.438V139.047H197.797C196.742 139.047 195.949 139.23 195.418 139.598C194.887 139.965 194.621 140.484 194.621 141.156C194.621 141.703 194.801 142.141 195.16 142.469C195.527 142.789 196.016 142.949 196.625 142.949ZM207.805 132.32L207.887 133.785C208.824 132.652 210.055 132.086 211.578 132.086C214.219 132.086 215.562 133.598 215.609 136.621V145H212.762V136.785C212.762 135.98 212.586 135.387 212.234 135.004C211.891 134.613 211.324 134.418 210.535 134.418C209.387 134.418 208.531 134.938 207.969 135.977V145H205.121V132.32H207.805ZM225.629 141.555C225.629 141.047 225.418 140.66 224.996 140.395C224.582 140.129 223.891 139.895 222.922 139.691C221.953 139.488 221.145 139.23 220.496 138.918C219.074 138.23 218.363 137.234 218.363 135.93C218.363 134.836 218.824 133.922 219.746 133.188C220.668 132.453 221.84 132.086 223.262 132.086C224.777 132.086 226 132.461 226.93 133.211C227.867 133.961 228.336 134.934 228.336 136.129H225.488C225.488 135.582 225.285 135.129 224.879 134.77C224.473 134.402 223.934 134.219 223.262 134.219C222.637 134.219 222.125 134.363 221.727 134.652C221.336 134.941 221.141 135.328 221.141 135.812C221.141 136.25 221.324 136.59 221.691 136.832C222.059 137.074 222.801 137.32 223.918 137.57C225.035 137.812 225.91 138.105 226.543 138.449C227.184 138.785 227.656 139.191 227.961 139.668C228.273 140.145 228.43 140.723 228.43 141.402C228.43 142.543 227.957 143.469 227.012 144.18C226.066 144.883 224.828 145.234 223.297 145.234C222.258 145.234 221.332 145.047 220.52 144.672C219.707 144.297 219.074 143.781 218.621 143.125C218.168 142.469 217.941 141.762 217.941 141.004H220.707C220.746 141.676 221 142.195 221.469 142.562C221.938 142.922 222.559 143.102 223.332 143.102C224.082 143.102 224.652 142.961 225.043 142.68C225.434 142.391 225.629 142.016 225.629 141.555ZM238.496 145C238.371 144.758 238.262 144.363 238.168 143.816C237.262 144.762 236.152 145.234 234.84 145.234C233.566 145.234 232.527 144.871 231.723 144.145C230.918 143.418 230.516 142.52 230.516 141.449C230.516 140.098 231.016 139.062 232.016 138.344C233.023 137.617 234.461 137.254 236.328 137.254H238.074V136.422C238.074 135.766 237.891 135.242 237.523 134.852C237.156 134.453 236.598 134.254 235.848 134.254C235.199 134.254 234.668 134.418 234.254 134.746C233.84 135.066 233.633 135.477 233.633 135.977H230.785C230.785 135.281 231.016 134.633 231.477 134.031C231.938 133.422 232.562 132.945 233.352 132.602C234.148 132.258 235.035 132.086 236.012 132.086C237.496 132.086 238.68 132.461 239.562 133.211C240.445 133.953 240.898 135 240.922 136.352V142.07C240.922 143.211 241.082 144.121 241.402 144.801V145H238.496ZM235.367 142.949C235.93 142.949 236.457 142.812 236.949 142.539C237.449 142.266 237.824 141.898 238.074 141.438V139.047H236.539C235.484 139.047 234.691 139.23 234.16 139.598C233.629 139.965 233.363 140.484 233.363 141.156C233.363 141.703 233.543 142.141 233.902 142.469C234.27 142.789 234.758 142.949 235.367 142.949ZM249.113 142.961C249.824 142.961 250.414 142.754 250.883 142.34C251.352 141.926 251.602 141.414 251.633 140.805H254.316C254.285 141.594 254.039 142.332 253.578 143.02C253.117 143.699 252.492 144.238 251.703 144.637C250.914 145.035 250.062 145.234 249.148 145.234C247.375 145.234 245.969 144.66 244.93 143.512C243.891 142.363 243.371 140.777 243.371 138.754V138.461C243.371 136.531 243.887 134.988 244.918 133.832C245.949 132.668 247.355 132.086 249.137 132.086C250.645 132.086 251.871 132.527 252.816 133.41C253.77 134.285 254.27 135.438 254.316 136.867H251.633C251.602 136.141 251.352 135.543 250.883 135.074C250.422 134.605 249.832 134.371 249.113 134.371C248.191 134.371 247.48 134.707 246.98 135.379C246.48 136.043 246.227 137.055 246.219 138.414V138.871C246.219 140.246 246.465 141.273 246.957 141.953C247.457 142.625 248.176 142.961 249.113 142.961ZM260.035 129.238V132.32H262.273V134.43H260.035V141.508C260.035 141.992 260.129 142.344 260.316 142.562C260.512 142.773 260.855 142.879 261.348 142.879C261.676 142.879 262.008 142.84 262.344 142.762V144.965C261.695 145.145 261.07 145.234 260.469 145.234C258.281 145.234 257.188 144.027 257.188 141.613V134.43H255.102V132.32H257.188V129.238H260.035ZM267.488 145H264.641V132.32H267.488V145ZM264.465 129.027C264.465 128.59 264.602 128.227 264.875 127.938C265.156 127.648 265.555 127.504 266.07 127.504C266.586 127.504 266.984 127.648 267.266 127.938C267.547 128.227 267.688 128.59 267.688 129.027C267.688 129.457 267.547 129.816 267.266 130.105C266.984 130.387 266.586 130.527 266.07 130.527C265.555 130.527 265.156 130.387 264.875 130.105C264.602 129.816 264.465 129.457 264.465 129.027ZM270.066 138.543C270.066 137.301 270.312 136.184 270.805 135.191C271.297 134.191 271.988 133.426 272.879 132.895C273.77 132.355 274.793 132.086 275.949 132.086C277.66 132.086 279.047 132.637 280.109 133.738C281.18 134.84 281.758 136.301 281.844 138.121L281.855 138.789C281.855 140.039 281.613 141.156 281.129 142.141C280.652 143.125 279.965 143.887 279.066 144.426C278.176 144.965 277.145 145.234 275.973 145.234C274.184 145.234 272.75 144.641 271.672 143.453C270.602 142.258 270.066 140.668 270.066 138.684V138.543ZM272.914 138.789C272.914 140.094 273.184 141.117 273.723 141.859C274.262 142.594 275.012 142.961 275.973 142.961C276.934 142.961 277.68 142.586 278.211 141.836C278.75 141.086 279.02 139.988 279.02 138.543C279.02 137.262 278.742 136.246 278.188 135.496C277.641 134.746 276.895 134.371 275.949 134.371C275.02 134.371 274.281 134.742 273.734 135.484C273.188 136.219 272.914 137.32 272.914 138.789ZM286.906 132.32L286.988 133.785C287.926 132.652 289.156 132.086 290.68 132.086C293.32 132.086 294.664 133.598 294.711 136.621V145H291.863V136.785C291.863 135.98 291.688 135.387 291.336 135.004C290.992 134.613 290.426 134.418 289.637 134.418C288.488 134.418 287.633 134.938 287.07 135.977V145H284.223V132.32H286.906ZM304.73 141.555C304.73 141.047 304.52 140.66 304.098 140.395C303.684 140.129 302.992 139.895 302.023 139.691C301.055 139.488 300.246 139.23 299.598 138.918C298.176 138.23 297.465 137.234 297.465 135.93C297.465 134.836 297.926 133.922 298.848 133.188C299.77 132.453 300.941 132.086 302.363 132.086C303.879 132.086 305.102 132.461 306.031 133.211C306.969 133.961 307.438 134.934 307.438 136.129H304.59C304.59 135.582 304.387 135.129 303.98 134.77C303.574 134.402 303.035 134.219 302.363 134.219C301.738 134.219 301.227 134.363 300.828 134.652C300.438 134.941 300.242 135.328 300.242 135.812C300.242 136.25 300.426 136.59 300.793 136.832C301.16 137.074 301.902 137.32 303.02 137.57C304.137 137.812 305.012 138.105 305.645 138.449C306.285 138.785 306.758 139.191 307.062 139.668C307.375 140.145 307.531 140.723 307.531 141.402C307.531 142.543 307.059 143.469 306.113 144.18C305.168 144.883 303.93 145.234 302.398 145.234C301.359 145.234 300.434 145.047 299.621 144.672C298.809 144.297 298.176 143.781 297.723 143.125C297.27 142.469 297.043 141.762 297.043 141.004H299.809C299.848 141.676 300.102 142.195 300.57 142.562C301.039 142.922 301.66 143.102 302.434 143.102C303.184 143.102 303.754 142.961 304.145 142.68C304.535 142.391 304.73 142.016 304.73 141.555ZM311.797 142C312.328 142 312.738 142.152 313.027 142.457C313.316 142.754 313.461 143.129 313.461 143.582C313.461 144.027 313.316 144.398 313.027 144.695C312.738 144.984 312.328 145.129 311.797 145.129C311.289 145.129 310.887 144.984 310.59 144.695C310.293 144.406 310.145 144.035 310.145 143.582C310.145 143.129 310.289 142.754 310.578 142.457C310.867 142.152 311.273 142 311.797 142Z" fill="#403468"/>
<path d="M60.605 42H56.87C56.24 42 55.925 41.685 55.925 41.055V14.01C55.925 13.38 56.24 13.065 56.87 13.065H60.245C60.875 13.065 61.295 13.275 61.505 13.695L70.595 30.75H70.775V14.01C70.775 13.38 71.09 13.065 71.72 13.065H75.455C76.085 13.065 76.4 13.38 76.4 14.01V41.055C76.4 41.685 76.085 42 75.455 42H72.17C71.51 42 71.03 41.7 70.73 41.1L61.73 24.36H61.55V41.055C61.55 41.685 61.235 42 60.605 42ZM92.7782 42H88.7732C86.4032 42 84.5732 41.37 83.2832 40.11C81.9932 38.85 81.3482 37.035 81.3482 34.665V26.385C81.3482 24.015 81.9932 22.2 83.2832 20.94C84.5732 19.68 86.4032 19.05 88.7732 19.05H92.7782C95.1182 19.05 96.9332 19.695 98.2232 20.985C99.5432 22.245 100.203 24.045 100.203 26.385V34.665C100.203 37.005 99.5432 38.82 98.2232 40.11C96.9332 41.37 95.1182 42 92.7782 42ZM89.6282 37.095H91.9232C92.8832 37.095 93.5582 36.9 93.9482 36.51C94.3682 36.12 94.5782 35.445 94.5782 34.485V26.565C94.5782 25.605 94.3682 24.93 93.9482 24.54C93.5582 24.15 92.8832 23.955 91.9232 23.955H89.6282C88.6682 23.955 87.9932 24.15 87.6032 24.54C87.2132 24.93 87.0182 25.605 87.0182 26.565V34.485C87.0182 35.445 87.2132 36.12 87.6032 36.51C87.9932 36.9 88.6682 37.095 89.6282 37.095ZM134.246 13.065H140.906C141.536 13.065 141.851 13.38 141.851 14.01V41.055C141.851 41.685 141.536 42 140.906 42H137.216C136.586 42 136.271 41.685 136.271 41.055V19.725H136.091L131.501 34.8C131.321 35.4 130.946 35.7 130.376 35.7H126.596C126.026 35.7 125.651 35.4 125.471 34.8L120.791 19.68H120.611V41.055C120.611 41.415 120.551 41.67 120.431 41.82C120.311 41.94 120.056 42 119.666 42H115.976C115.346 42 115.031 41.685 115.031 41.055V14.01C115.031 13.38 115.346 13.065 115.976 13.065H122.681C123.101 13.065 123.386 13.275 123.536 13.695L128.306 29.58H128.576L133.391 13.695C133.481 13.275 133.766 13.065 134.246 13.065ZM147.458 15.18V11.265C147.458 10.665 147.758 10.365 148.358 10.365H152.273C152.873 10.365 153.173 10.65 153.173 11.22V15.18C153.173 15.78 152.873 16.08 152.273 16.08H148.358C147.758 16.08 147.458 15.78 147.458 15.18ZM147.458 41.055V19.995C147.458 19.365 147.758 19.05 148.358 19.05H152.228C152.858 19.05 153.173 19.365 153.173 19.995V41.055C153.173 41.445 153.098 41.7 152.948 41.82C152.828 41.94 152.603 42 152.273 42H148.403C147.773 42 147.458 41.685 147.458 41.055ZM166.766 42H164.921C162.611 42 160.856 41.37 159.656 40.11C158.486 38.85 157.901 37.035 157.901 34.665V26.385C157.901 24.015 158.486 22.2 159.656 20.94C160.856 19.68 162.611 19.05 164.921 19.05H166.766C167.696 19.05 168.581 19.26 169.421 19.68C170.261 20.07 170.846 20.67 171.176 21.48H171.356V11.31C171.356 10.68 171.671 10.365 172.301 10.365H176.126C176.756 10.365 177.071 10.68 177.071 11.31V41.055C177.071 41.685 176.756 42 176.126 42H172.301C171.671 42 171.356 41.685 171.356 41.055V39.57H171.176C170.846 40.38 170.261 40.995 169.421 41.415C168.581 41.805 167.696 42 166.766 42ZM171.356 33.63V27.42C171.356 25.14 170.321 24 168.251 24H166.226C165.266 24 164.591 24.21 164.201 24.63C163.811 25.02 163.616 25.695 163.616 26.655V34.395C163.616 35.355 163.811 36.045 164.201 36.465C164.591 36.855 165.266 37.05 166.226 37.05H168.251C170.321 37.05 171.356 35.91 171.356 33.63ZM190.453 42H188.608C186.298 42 184.543 41.37 183.343 40.11C182.173 38.85 181.588 37.035 181.588 34.665V26.385C181.588 24.015 182.173 22.2 183.343 20.94C184.543 19.68 186.298 19.05 188.608 19.05H190.453C191.383 19.05 192.268 19.26 193.108 19.68C193.948 20.07 194.533 20.67 194.863 21.48H195.043V11.31C195.043 10.68 195.358 10.365 195.988 10.365H199.813C200.443 10.365 200.758 10.68 200.758 11.31V41.055C200.758 41.685 200.443 42 199.813 42H195.988C195.358 42 195.043 41.685 195.043 41.055V39.57H194.863C194.533 40.38 193.948 40.995 193.108 41.415C192.268 41.805 191.383 42 190.453 42ZM195.043 33.63V27.42C195.043 25.14 194.008 24 191.938 24H189.913C188.953 24 188.278 24.21 187.888 24.63C187.498 25.02 187.303 25.695 187.303 26.655V34.395C187.303 35.355 187.498 36.045 187.888 36.465C188.278 36.855 188.953 37.05 189.913 37.05H191.938C194.008 37.05 195.043 35.91 195.043 33.63ZM210.719 42H206.894C206.264 42 205.949 41.685 205.949 41.055V11.31C205.949 10.68 206.264 10.365 206.894 10.365H210.719C211.349 10.365 211.664 10.68 211.664 11.31V41.055C211.664 41.685 211.349 42 210.719 42ZM233.762 42H223.817C221.447 42 219.617 41.37 218.327 40.11C217.037 38.85 216.392 37.035 216.392 34.665V26.385C216.392 24.015 217.037 22.2 218.327 20.94C219.617 19.68 221.447 19.05 223.817 19.05H227.372C229.742 19.05 231.572 19.68 232.862 20.94C234.152 22.2 234.797 24.015 234.797 26.385V32.1C234.797 32.73 234.482 33.045 233.852 33.045H222.557C222.197 33.045 222.017 33.21 222.017 33.54V34.53C222.017 35.46 222.212 36.135 222.602 36.555C223.022 36.945 223.712 37.14 224.672 37.14H233.762C234.392 37.14 234.707 37.47 234.707 38.13V41.1C234.707 41.43 234.632 41.67 234.482 41.82C234.362 41.94 234.122 42 233.762 42ZM222.557 29.22H228.677C229.007 29.22 229.172 29.055 229.172 28.725V26.565C229.172 25.605 228.977 24.93 228.587 24.54C228.197 24.15 227.522 23.955 226.562 23.955H224.672C223.712 23.955 223.037 24.15 222.647 24.54C222.257 24.93 222.062 25.605 222.062 26.565V28.725C222.062 29.055 222.227 29.22 222.557 29.22ZM243.849 42H240.024C239.394 42 239.079 41.685 239.079 41.055V19.995C239.079 19.365 239.394 19.05 240.024 19.05H243.849C244.479 19.05 244.794 19.365 244.794 19.995V21.48H244.974C245.334 20.76 245.934 20.175 246.774 19.725C247.644 19.275 248.634 19.05 249.744 19.05H251.004C253.614 19.05 255.489 20.01 256.629 21.93C257.649 20.01 259.404 19.05 261.894 19.05H263.199C265.509 19.05 267.249 19.68 268.419 20.94C269.619 22.2 270.219 24.015 270.219 26.385V41.055C270.219 41.685 269.904 42 269.274 42H265.449C264.819 42 264.504 41.685 264.504 41.055V26.655C264.504 25.695 264.309 25.02 263.919 24.63C263.529 24.21 262.854 24 261.894 24H260.769C258.699 24 257.664 25.155 257.664 27.465V41.055C257.664 41.685 257.334 42 256.674 42H252.894C252.264 42 251.949 41.685 251.949 41.055V26.655C251.949 25.695 251.739 25.02 251.319 24.63C250.929 24.21 250.254 24 249.294 24H247.899C245.829 24 244.794 25.14 244.794 27.42V41.055C244.794 41.685 244.479 42 243.849 42ZM291.902 42H281.957C279.587 42 277.757 41.37 276.467 40.11C275.177 38.85 274.532 37.035 274.532 34.665V26.385C274.532 24.015 275.177 22.2 276.467 20.94C277.757 19.68 279.587 19.05 281.957 19.05H285.512C287.882 19.05 289.712 19.68 291.002 20.94C292.292 22.2 292.937 24.015 292.937 26.385V32.1C292.937 32.73 292.622 33.045 291.992 33.045H280.697C280.337 33.045 280.157 33.21 280.157 33.54V34.53C280.157 35.46 280.352 36.135 280.742 36.555C281.162 36.945 281.852 37.14 282.812 37.14H291.902C292.532 37.14 292.847 37.47 292.847 38.13V41.1C292.847 41.43 292.772 41.67 292.622 41.82C292.502 41.94 292.262 42 291.902 42ZM280.697 29.22H286.817C287.147 29.22 287.312 29.055 287.312 28.725V26.565C287.312 25.605 287.117 24.93 286.727 24.54C286.337 24.15 285.662 23.955 284.702 23.955H282.812C281.852 23.955 281.177 24.15 280.787 24.54C280.397 24.93 280.202 25.605 280.202 26.565V28.725C280.202 29.055 280.367 29.22 280.697 29.22ZM301.988 42H298.163C297.533 42 297.218 41.685 297.218 41.055V19.995C297.218 19.365 297.533 19.05 298.163 19.05H301.988C302.618 19.05 302.933 19.365 302.933 19.995V21.48H303.113C303.773 19.86 305.243 19.05 307.523 19.05H308.963C313.673 19.05 316.028 21.495 316.028 26.385V41.055C316.028 41.685 315.698 42 315.038 42H311.258C310.628 42 310.313 41.685 310.313 41.055V26.655C310.313 25.695 310.103 25.02 309.683 24.63C309.293 24.21 308.618 24 307.658 24H306.038C303.968 24 302.933 25.14 302.933 27.42V41.055C302.933 41.685 302.618 42 301.988 42Z" fill="#5D2CFF"/>
</svg>
