<svg width="395" height="162" viewBox="0 0 395 162" fill="none" xmlns="http://www.w3.org/2000/svg">
<path d="M74.8281 96.0273H68.2188L66.8359 100H63.7539L70.1992 82.9375H72.8594L79.3164 100H76.2227L74.8281 96.0273ZM69.0508 93.6367H73.9961L71.5234 86.5586L69.0508 93.6367ZM83.0664 87.3203L83.1484 88.7852C84.0859 87.6523 85.3164 87.0859 86.8398 87.0859C89.4805 87.0859 90.8242 88.5977 90.8711 91.6211V100H88.0234V91.7852C88.0234 90.9805 87.8477 90.3867 87.4961 90.0039C87.1523 89.6133 86.5859 89.418 85.7969 89.418C84.6484 89.418 83.793 89.9375 83.2305 90.9766V100H80.3828V87.3203H83.0664ZM93.25 93.543C93.25 92.3008 93.4961 91.1836 93.9883 90.1914C94.4805 89.1914 95.1719 88.4258 96.0625 87.8945C96.9531 87.3555 97.9766 87.0859 99.1328 87.0859C100.844 87.0859 102.23 87.6367 103.293 88.7383C104.363 89.8398 104.941 91.3008 105.027 93.1211L105.039 93.7891C105.039 95.0391 104.797 96.1562 104.312 97.1406C103.836 98.125 103.148 98.8867 102.25 99.4258C101.359 99.9648 100.328 100.234 99.1562 100.234C97.3672 100.234 95.9336 99.6406 94.8555 98.4531C93.7852 97.2578 93.25 95.668 93.25 93.6836V93.543ZM96.0977 93.7891C96.0977 95.0938 96.3672 96.1172 96.9062 96.8594C97.4453 97.5938 98.1953 97.9609 99.1562 97.9609C100.117 97.9609 100.863 97.5859 101.395 96.8359C101.934 96.0859 102.203 94.9883 102.203 93.543C102.203 92.2617 101.926 91.2461 101.371 90.4961C100.824 89.7461 100.078 89.3711 99.1328 89.3711C98.2031 89.3711 97.4648 89.7422 96.918 90.4844C96.3711 91.2188 96.0977 92.3203 96.0977 93.7891ZM110.09 87.3203L110.172 88.7852C111.109 87.6523 112.34 87.0859 113.863 87.0859C116.504 87.0859 117.848 88.5977 117.895 91.6211V100H115.047V91.7852C115.047 90.9805 114.871 90.3867 114.52 90.0039C114.176 89.6133 113.609 89.418 112.82 89.418C111.672 89.418 110.816 89.9375 110.254 90.9766V100H107.406V87.3203H110.09ZM125.242 95.9219L127.82 87.3203H130.855L125.816 101.922C125.043 104.055 123.73 105.121 121.879 105.121C121.465 105.121 121.008 105.051 120.508 104.91V102.707L121.047 102.742C121.766 102.742 122.305 102.609 122.664 102.344C123.031 102.086 123.32 101.648 123.531 101.031L123.941 99.9414L119.488 87.3203H122.559L125.242 95.9219ZM142.609 92.7695H135.742V100H132.777V82.9375H143.617V85.3281H135.742V90.4023H142.609V92.7695ZM152.875 100C152.75 99.7578 152.641 99.3633 152.547 98.8164C151.641 99.7617 150.531 100.234 149.219 100.234C147.945 100.234 146.906 99.8711 146.102 99.1445C145.297 98.418 144.895 97.5195 144.895 96.4492C144.895 95.0977 145.395 94.0625 146.395 93.3438C147.402 92.6172 148.84 92.2539 150.707 92.2539H152.453V91.4219C152.453 90.7656 152.27 90.2422 151.902 89.8516C151.535 89.4531 150.977 89.2539 150.227 89.2539C149.578 89.2539 149.047 89.418 148.633 89.7461C148.219 90.0664 148.012 90.4766 148.012 90.9766H145.164C145.164 90.2812 145.395 89.6328 145.855 89.0312C146.316 88.4219 146.941 87.9453 147.73 87.6016C148.527 87.2578 149.414 87.0859 150.391 87.0859C151.875 87.0859 153.059 87.4609 153.941 88.2109C154.824 88.9531 155.277 90 155.301 91.3516V97.0703C155.301 98.2109 155.461 99.1211 155.781 99.8008V100H152.875ZM149.746 97.9492C150.309 97.9492 150.836 97.8125 151.328 97.5391C151.828 97.2656 152.203 96.8984 152.453 96.4375V94.0469H150.918C149.863 94.0469 149.07 94.2305 148.539 94.5977C148.008 94.9648 147.742 95.4844 147.742 96.1562C147.742 96.7031 147.922 97.1406 148.281 97.4688C148.648 97.7891 149.137 97.9492 149.746 97.9492ZM160.926 87.3203L161.008 88.7852C161.945 87.6523 163.176 87.0859 164.699 87.0859C167.34 87.0859 168.684 88.5977 168.73 91.6211V100H165.883V91.7852C165.883 90.9805 165.707 90.3867 165.355 90.0039C165.012 89.6133 164.445 89.418 163.656 89.418C162.508 89.418 161.652 89.9375 161.09 90.9766V100H158.242V87.3203H160.926ZM178.75 96.5547C178.75 96.0469 178.539 95.6602 178.117 95.3945C177.703 95.1289 177.012 94.8945 176.043 94.6914C175.074 94.4883 174.266 94.2305 173.617 93.918C172.195 93.2305 171.484 92.2344 171.484 90.9297C171.484 89.8359 171.945 88.9219 172.867 88.1875C173.789 87.4531 174.961 87.0859 176.383 87.0859C177.898 87.0859 179.121 87.4609 180.051 88.2109C180.988 88.9609 181.457 89.9336 181.457 91.1289H178.609C178.609 90.582 178.406 90.1289 178 89.7695C177.594 89.4023 177.055 89.2188 176.383 89.2188C175.758 89.2188 175.246 89.3633 174.848 89.6523C174.457 89.9414 174.262 90.3281 174.262 90.8125C174.262 91.25 174.445 91.5898 174.812 91.832C175.18 92.0742 175.922 92.3203 177.039 92.5703C178.156 92.8125 179.031 93.1055 179.664 93.4492C180.305 93.7852 180.777 94.1914 181.082 94.668C181.395 95.1445 181.551 95.7227 181.551 96.4023C181.551 97.543 181.078 98.4688 180.133 99.1797C179.188 99.8828 177.949 100.234 176.418 100.234C175.379 100.234 174.453 100.047 173.641 99.6719C172.828 99.2969 172.195 98.7812 171.742 98.125C171.289 97.4688 171.062 96.7617 171.062 96.0039H173.828C173.867 96.6758 174.121 97.1953 174.59 97.5625C175.059 97.9219 175.68 98.1016 176.453 98.1016C177.203 98.1016 177.773 97.9609 178.164 97.6797C178.555 97.3906 178.75 97.0156 178.75 96.5547ZM193.047 100H190.199V87.3203H193.047V100ZM190.023 84.0273C190.023 83.5898 190.16 83.2266 190.434 82.9375C190.715 82.6484 191.113 82.5039 191.629 82.5039C192.145 82.5039 192.543 82.6484 192.824 82.9375C193.105 83.2266 193.246 83.5898 193.246 84.0273C193.246 84.457 193.105 84.8164 192.824 85.1055C192.543 85.3867 192.145 85.5273 191.629 85.5273C191.113 85.5273 190.715 85.3867 190.434 85.1055C190.16 84.8164 190.023 84.457 190.023 84.0273ZM203.266 96.5547C203.266 96.0469 203.055 95.6602 202.633 95.3945C202.219 95.1289 201.527 94.8945 200.559 94.6914C199.59 94.4883 198.781 94.2305 198.133 93.918C196.711 93.2305 196 92.2344 196 90.9297C196 89.8359 196.461 88.9219 197.383 88.1875C198.305 87.4531 199.477 87.0859 200.898 87.0859C202.414 87.0859 203.637 87.4609 204.566 88.2109C205.504 88.9609 205.973 89.9336 205.973 91.1289H203.125C203.125 90.582 202.922 90.1289 202.516 89.7695C202.109 89.4023 201.57 89.2188 200.898 89.2188C200.273 89.2188 199.762 89.3633 199.363 89.6523C198.973 89.9414 198.777 90.3281 198.777 90.8125C198.777 91.25 198.961 91.5898 199.328 91.832C199.695 92.0742 200.438 92.3203 201.555 92.5703C202.672 92.8125 203.547 93.1055 204.18 93.4492C204.82 93.7852 205.293 94.1914 205.598 94.668C205.91 95.1445 206.066 95.7227 206.066 96.4023C206.066 97.543 205.594 98.4688 204.648 99.1797C203.703 99.8828 202.465 100.234 200.934 100.234C199.895 100.234 198.969 100.047 198.156 99.6719C197.344 99.2969 196.711 98.7812 196.258 98.125C195.805 97.4688 195.578 96.7617 195.578 96.0039H198.344C198.383 96.6758 198.637 97.1953 199.105 97.5625C199.574 97.9219 200.195 98.1016 200.969 98.1016C201.719 98.1016 202.289 97.9609 202.68 97.6797C203.07 97.3906 203.266 97.0156 203.266 96.5547ZM219.742 97.9609C220.453 97.9609 221.043 97.7539 221.512 97.3398C221.98 96.9258 222.23 96.4141 222.262 95.8047H224.945C224.914 96.5938 224.668 97.332 224.207 98.0195C223.746 98.6992 223.121 99.2383 222.332 99.6367C221.543 100.035 220.691 100.234 219.777 100.234C218.004 100.234 216.598 99.6602 215.559 98.5117C214.52 97.3633 214 95.7773 214 93.7539V93.4609C214 91.5312 214.516 89.9883 215.547 88.832C216.578 87.668 217.984 87.0859 219.766 87.0859C221.273 87.0859 222.5 87.5273 223.445 88.4102C224.398 89.2852 224.898 90.4375 224.945 91.8672H222.262C222.23 91.1406 221.98 90.543 221.512 90.0742C221.051 89.6055 220.461 89.3711 219.742 89.3711C218.82 89.3711 218.109 89.707 217.609 90.3789C217.109 91.043 216.855 92.0547 216.848 93.4141V93.8711C216.848 95.2461 217.094 96.2734 217.586 96.9531C218.086 97.625 218.805 97.9609 219.742 97.9609ZM226.562 93.543C226.562 92.3008 226.809 91.1836 227.301 90.1914C227.793 89.1914 228.484 88.4258 229.375 87.8945C230.266 87.3555 231.289 87.0859 232.445 87.0859C234.156 87.0859 235.543 87.6367 236.605 88.7383C237.676 89.8398 238.254 91.3008 238.34 93.1211L238.352 93.7891C238.352 95.0391 238.109 96.1562 237.625 97.1406C237.148 98.125 236.461 98.8867 235.562 99.4258C234.672 99.9648 233.641 100.234 232.469 100.234C230.68 100.234 229.246 99.6406 228.168 98.4531C227.098 97.2578 226.562 95.668 226.562 93.6836V93.543ZM229.41 93.7891C229.41 95.0938 229.68 96.1172 230.219 96.8594C230.758 97.5938 231.508 97.9609 232.469 97.9609C233.43 97.9609 234.176 97.5859 234.707 96.8359C235.246 96.0859 235.516 94.9883 235.516 93.543C235.516 92.2617 235.238 91.2461 234.684 90.4961C234.137 89.7461 233.391 89.3711 232.445 89.3711C231.516 89.3711 230.777 89.7422 230.23 90.4844C229.684 91.2188 229.41 92.3203 229.41 93.7891ZM243.438 87.3203L243.52 88.6445C244.41 87.6055 245.629 87.0859 247.176 87.0859C248.871 87.0859 250.031 87.7344 250.656 89.0312C251.578 87.7344 252.875 87.0859 254.547 87.0859C255.945 87.0859 256.984 87.4727 257.664 88.2461C258.352 89.0195 258.703 90.1602 258.719 91.668V100H255.871V91.75C255.871 90.9453 255.695 90.3555 255.344 89.9805C254.992 89.6055 254.41 89.418 253.598 89.418C252.949 89.418 252.418 89.5938 252.004 89.9453C251.598 90.2891 251.312 90.7422 251.148 91.3047L251.16 100H248.312V91.6562C248.273 90.1641 247.512 89.418 246.027 89.418C244.887 89.418 244.078 89.8828 243.602 90.8125V100H240.754V87.3203H243.438ZM272.746 93.7891C272.746 95.75 272.301 97.3164 271.41 98.4883C270.52 99.6523 269.324 100.234 267.824 100.234C266.434 100.234 265.32 99.7773 264.484 98.8633V104.875H261.637V87.3203H264.262L264.379 88.6094C265.215 87.5938 266.352 87.0859 267.789 87.0859C269.336 87.0859 270.547 87.6641 271.422 88.8203C272.305 89.9688 272.746 91.5664 272.746 93.6133V93.7891ZM269.91 93.543C269.91 92.2773 269.656 91.2734 269.148 90.5312C268.648 89.7891 267.93 89.418 266.992 89.418C265.828 89.418 264.992 89.8984 264.484 90.8594V96.4844C265 97.4688 265.844 97.9609 267.016 97.9609C267.922 97.9609 268.629 97.5977 269.137 96.8711C269.652 96.1367 269.91 95.0273 269.91 93.543ZM278.195 100H275.348V82H278.195V100ZM286.891 100.234C285.086 100.234 283.621 99.668 282.496 98.5352C281.379 97.3945 280.82 95.8789 280.82 93.9883V93.6367C280.82 92.3711 281.062 91.2422 281.547 90.25C282.039 89.25 282.727 88.4727 283.609 87.918C284.492 87.3633 285.477 87.0859 286.562 87.0859C288.289 87.0859 289.621 87.6367 290.559 88.7383C291.504 89.8398 291.977 91.3984 291.977 93.4141V94.5625H283.691C283.777 95.6094 284.125 96.4375 284.734 97.0469C285.352 97.6562 286.125 97.9609 287.055 97.9609C288.359 97.9609 289.422 97.4336 290.242 96.3789L291.777 97.8438C291.27 98.6016 290.59 99.1914 289.738 99.6133C288.895 100.027 287.945 100.234 286.891 100.234ZM286.551 89.3711C285.77 89.3711 285.137 89.6445 284.652 90.1914C284.176 90.7383 283.871 91.5 283.738 92.4766H289.164V92.2656C289.102 91.3125 288.848 90.5938 288.402 90.1094C287.957 89.6172 287.34 89.3711 286.551 89.3711ZM297.766 84.2383V87.3203H300.004V89.4297H297.766V96.5078C297.766 96.9922 297.859 97.3438 298.047 97.5625C298.242 97.7734 298.586 97.8789 299.078 97.8789C299.406 97.8789 299.738 97.8398 300.074 97.7617V99.9648C299.426 100.145 298.801 100.234 298.199 100.234C296.012 100.234 294.918 99.0273 294.918 96.6133V89.4297H292.832V87.3203H294.918V84.2383H297.766ZM307.773 100.234C305.969 100.234 304.504 99.668 303.379 98.5352C302.262 97.3945 301.703 95.8789 301.703 93.9883V93.6367C301.703 92.3711 301.945 91.2422 302.43 90.25C302.922 89.25 303.609 88.4727 304.492 87.918C305.375 87.3633 306.359 87.0859 307.445 87.0859C309.172 87.0859 310.504 87.6367 311.441 88.7383C312.387 89.8398 312.859 91.3984 312.859 93.4141V94.5625H304.574C304.66 95.6094 305.008 96.4375 305.617 97.0469C306.234 97.6562 307.008 97.9609 307.938 97.9609C309.242 97.9609 310.305 97.4336 311.125 96.3789L312.66 97.8438C312.152 98.6016 311.473 99.1914 310.621 99.6133C309.777 100.027 308.828 100.234 307.773 100.234ZM307.434 89.3711C306.652 89.3711 306.02 89.6445 305.535 90.1914C305.059 90.7383 304.754 91.5 304.621 92.4766H310.047V92.2656C309.984 91.3125 309.73 90.5938 309.285 90.1094C308.84 89.6172 308.223 89.3711 307.434 89.3711ZM318.109 100H315.262V82H318.109V100ZM325.656 95.9219L328.234 87.3203H331.27L326.23 101.922C325.457 104.055 324.145 105.121 322.293 105.121C321.879 105.121 321.422 105.051 320.922 104.91V102.707L321.461 102.742C322.18 102.742 322.719 102.609 323.078 102.344C323.445 102.086 323.734 101.648 323.945 101.031L324.355 99.9414L319.902 87.3203H322.973L325.656 95.9219ZM48.7773 128C48.6523 127.758 48.543 127.363 48.4492 126.816C47.543 127.762 46.4336 128.234 45.1211 128.234C43.8477 128.234 42.8086 127.871 42.0039 127.145C41.1992 126.418 40.7969 125.52 40.7969 124.449C40.7969 123.098 41.2969 122.062 42.2969 121.344C43.3047 120.617 44.7422 120.254 46.6094 120.254H48.3555V119.422C48.3555 118.766 48.1719 118.242 47.8047 117.852C47.4375 117.453 46.8789 117.254 46.1289 117.254C45.4805 117.254 44.9492 117.418 44.5352 117.746C44.1211 118.066 43.9141 118.477 43.9141 118.977H41.0664C41.0664 118.281 41.2969 117.633 41.7578 117.031C42.2188 116.422 42.8438 115.945 43.6328 115.602C44.4297 115.258 45.3164 115.086 46.293 115.086C47.7773 115.086 48.9609 115.461 49.8438 116.211C50.7266 116.953 51.1797 118 51.2031 119.352V125.07C51.2031 126.211 51.3633 127.121 51.6836 127.801V128H48.7773ZM45.6484 125.949C46.2109 125.949 46.7383 125.812 47.2305 125.539C47.7305 125.266 48.1055 124.898 48.3555 124.438V122.047H46.8203C45.7656 122.047 44.9727 122.23 44.4414 122.598C43.9102 122.965 43.6445 123.484 43.6445 124.156C43.6445 124.703 43.8242 125.141 44.1836 125.469C44.5508 125.789 45.0391 125.949 45.6484 125.949ZM56.8281 115.32L56.9102 116.785C57.8477 115.652 59.0781 115.086 60.6016 115.086C63.2422 115.086 64.5859 116.598 64.6328 119.621V128H61.7852V119.785C61.7852 118.98 61.6094 118.387 61.2578 118.004C60.9141 117.613 60.3477 117.418 59.5586 117.418C58.4102 117.418 57.5547 117.938 56.9922 118.977V128H54.1445V115.32H56.8281ZM67.0117 121.543C67.0117 120.301 67.2578 119.184 67.75 118.191C68.2422 117.191 68.9336 116.426 69.8242 115.895C70.7148 115.355 71.7383 115.086 72.8945 115.086C74.6055 115.086 75.9922 115.637 77.0547 116.738C78.125 117.84 78.7031 119.301 78.7891 121.121L78.8008 121.789C78.8008 123.039 78.5586 124.156 78.0742 125.141C77.5977 126.125 76.9102 126.887 76.0117 127.426C75.1211 127.965 74.0898 128.234 72.918 128.234C71.1289 128.234 69.6953 127.641 68.6172 126.453C67.5469 125.258 67.0117 123.668 67.0117 121.684V121.543ZM69.8594 121.789C69.8594 123.094 70.1289 124.117 70.668 124.859C71.207 125.594 71.957 125.961 72.918 125.961C73.8789 125.961 74.625 125.586 75.1562 124.836C75.6953 124.086 75.9648 122.988 75.9648 121.543C75.9648 120.262 75.6875 119.246 75.1328 118.496C74.5859 117.746 73.8398 117.371 72.8945 117.371C71.9648 117.371 71.2266 117.742 70.6797 118.484C70.1328 119.219 69.8594 120.32 69.8594 121.789ZM83.8516 115.32L83.9336 116.785C84.8711 115.652 86.1016 115.086 87.625 115.086C90.2656 115.086 91.6094 116.598 91.6562 119.621V128H88.8086V119.785C88.8086 118.98 88.6328 118.387 88.2812 118.004C87.9375 117.613 87.3711 117.418 86.582 117.418C85.4336 117.418 84.5781 117.938 84.0156 118.977V128H81.168V115.32H83.8516ZM99.0039 123.922L101.582 115.32H104.617L99.5781 129.922C98.8047 132.055 97.4922 133.121 95.6406 133.121C95.2266 133.121 94.7695 133.051 94.2695 132.91V130.707L94.8086 130.742C95.5273 130.742 96.0664 130.609 96.4258 130.344C96.793 130.086 97.082 129.648 97.293 129.031L97.7031 127.941L93.25 115.32H96.3203L99.0039 123.922ZM108.941 115.32L109.023 116.645C109.914 115.605 111.133 115.086 112.68 115.086C114.375 115.086 115.535 115.734 116.16 117.031C117.082 115.734 118.379 115.086 120.051 115.086C121.449 115.086 122.488 115.473 123.168 116.246C123.855 117.02 124.207 118.16 124.223 119.668V128H121.375V119.75C121.375 118.945 121.199 118.355 120.848 117.98C120.496 117.605 119.914 117.418 119.102 117.418C118.453 117.418 117.922 117.594 117.508 117.945C117.102 118.289 116.816 118.742 116.652 119.305L116.664 128H113.816V119.656C113.777 118.164 113.016 117.418 111.531 117.418C110.391 117.418 109.582 117.883 109.105 118.812V128H106.258V115.32H108.941ZM126.613 121.543C126.613 120.301 126.859 119.184 127.352 118.191C127.844 117.191 128.535 116.426 129.426 115.895C130.316 115.355 131.34 115.086 132.496 115.086C134.207 115.086 135.594 115.637 136.656 116.738C137.727 117.84 138.305 119.301 138.391 121.121L138.402 121.789C138.402 123.039 138.16 124.156 137.676 125.141C137.199 126.125 136.512 126.887 135.613 127.426C134.723 127.965 133.691 128.234 132.52 128.234C130.73 128.234 129.297 127.641 128.219 126.453C127.148 125.258 126.613 123.668 126.613 121.684V121.543ZM129.461 121.789C129.461 123.094 129.73 124.117 130.27 124.859C130.809 125.594 131.559 125.961 132.52 125.961C133.48 125.961 134.227 125.586 134.758 124.836C135.297 124.086 135.566 122.988 135.566 121.543C135.566 120.262 135.289 119.246 134.734 118.496C134.188 117.746 133.441 117.371 132.496 117.371C131.566 117.371 130.828 117.742 130.281 118.484C129.734 119.219 129.461 120.32 129.461 121.789ZM148.492 126.758C147.656 127.742 146.469 128.234 144.93 128.234C143.555 128.234 142.512 127.832 141.801 127.027C141.098 126.223 140.746 125.059 140.746 123.535V115.32H143.594V123.5C143.594 125.109 144.262 125.914 145.598 125.914C146.98 125.914 147.914 125.418 148.398 124.426V115.32H151.246V128H148.562L148.492 126.758ZM161.254 124.555C161.254 124.047 161.043 123.66 160.621 123.395C160.207 123.129 159.516 122.895 158.547 122.691C157.578 122.488 156.77 122.23 156.121 121.918C154.699 121.23 153.988 120.234 153.988 118.93C153.988 117.836 154.449 116.922 155.371 116.188C156.293 115.453 157.465 115.086 158.887 115.086C160.402 115.086 161.625 115.461 162.555 116.211C163.492 116.961 163.961 117.934 163.961 119.129H161.113C161.113 118.582 160.91 118.129 160.504 117.77C160.098 117.402 159.559 117.219 158.887 117.219C158.262 117.219 157.75 117.363 157.352 117.652C156.961 117.941 156.766 118.328 156.766 118.812C156.766 119.25 156.949 119.59 157.316 119.832C157.684 120.074 158.426 120.32 159.543 120.57C160.66 120.812 161.535 121.105 162.168 121.449C162.809 121.785 163.281 122.191 163.586 122.668C163.898 123.145 164.055 123.723 164.055 124.402C164.055 125.543 163.582 126.469 162.637 127.18C161.691 127.883 160.453 128.234 158.922 128.234C157.883 128.234 156.957 128.047 156.145 127.672C155.332 127.297 154.699 126.781 154.246 126.125C153.793 125.469 153.566 124.762 153.566 124.004H156.332C156.371 124.676 156.625 125.195 157.094 125.562C157.562 125.922 158.184 126.102 158.957 126.102C159.707 126.102 160.277 125.961 160.668 125.68C161.059 125.391 161.254 125.016 161.254 124.555ZM173.523 128V117.43H171.59V115.32H173.523V114.16C173.523 112.754 173.914 111.668 174.695 110.902C175.477 110.137 176.57 109.754 177.977 109.754C178.477 109.754 179.008 109.824 179.57 109.965L179.5 112.191C179.188 112.129 178.824 112.098 178.41 112.098C177.051 112.098 176.371 112.797 176.371 114.195V115.32H178.949V117.43H176.371V128H173.523ZM180.496 121.543C180.496 120.301 180.742 119.184 181.234 118.191C181.727 117.191 182.418 116.426 183.309 115.895C184.199 115.355 185.223 115.086 186.379 115.086C188.09 115.086 189.477 115.637 190.539 116.738C191.609 117.84 192.188 119.301 192.273 121.121L192.285 121.789C192.285 123.039 192.043 124.156 191.559 125.141C191.082 126.125 190.395 126.887 189.496 127.426C188.605 127.965 187.574 128.234 186.402 128.234C184.613 128.234 183.18 127.641 182.102 126.453C181.031 125.258 180.496 123.668 180.496 121.684V121.543ZM183.344 121.789C183.344 123.094 183.613 124.117 184.152 124.859C184.691 125.594 185.441 125.961 186.402 125.961C187.363 125.961 188.109 125.586 188.641 124.836C189.18 124.086 189.449 122.988 189.449 121.543C189.449 120.262 189.172 119.246 188.617 118.496C188.07 117.746 187.324 117.371 186.379 117.371C185.449 117.371 184.711 117.742 184.164 118.484C183.617 119.219 183.344 120.32 183.344 121.789ZM201.332 117.922C200.957 117.859 200.57 117.828 200.172 117.828C198.867 117.828 197.988 118.328 197.535 119.328V128H194.688V115.32H197.406L197.477 116.738C198.164 115.637 199.117 115.086 200.336 115.086C200.742 115.086 201.078 115.141 201.344 115.25L201.332 117.922ZM220.234 121.789C220.234 123.758 219.793 125.324 218.91 126.488C218.035 127.652 216.828 128.234 215.289 128.234C213.805 128.234 212.648 127.699 211.82 126.629L211.68 128H209.102V110H211.949V116.539C212.77 115.57 213.875 115.086 215.266 115.086C216.812 115.086 218.027 115.66 218.91 116.809C219.793 117.957 220.234 119.562 220.234 121.625V121.789ZM217.387 121.543C217.387 120.168 217.145 119.137 216.66 118.449C216.176 117.762 215.473 117.418 214.551 117.418C213.316 117.418 212.449 117.957 211.949 119.035V124.262C212.457 125.363 213.332 125.914 214.574 125.914C215.465 125.914 216.152 125.582 216.637 124.918C217.121 124.254 217.371 123.25 217.387 121.906V121.543ZM222.098 121.543C222.098 120.301 222.344 119.184 222.836 118.191C223.328 117.191 224.02 116.426 224.91 115.895C225.801 115.355 226.824 115.086 227.98 115.086C229.691 115.086 231.078 115.637 232.141 116.738C233.211 117.84 233.789 119.301 233.875 121.121L233.887 121.789C233.887 123.039 233.645 124.156 233.16 125.141C232.684 126.125 231.996 126.887 231.098 127.426C230.207 127.965 229.176 128.234 228.004 128.234C226.215 128.234 224.781 127.641 223.703 126.453C222.633 125.258 222.098 123.668 222.098 121.684V121.543ZM224.945 121.789C224.945 123.094 225.215 124.117 225.754 124.859C226.293 125.594 227.043 125.961 228.004 125.961C228.965 125.961 229.711 125.586 230.242 124.836C230.781 124.086 231.051 122.988 231.051 121.543C231.051 120.262 230.773 119.246 230.219 118.496C229.672 117.746 228.926 117.371 227.98 117.371C227.051 117.371 226.312 117.742 225.766 118.484C225.219 119.219 224.945 120.32 224.945 121.789ZM239.863 112.238V115.32H242.102V117.43H239.863V124.508C239.863 124.992 239.957 125.344 240.145 125.562C240.34 125.773 240.684 125.879 241.176 125.879C241.504 125.879 241.836 125.84 242.172 125.762V127.965C241.523 128.145 240.898 128.234 240.297 128.234C238.109 128.234 237.016 127.027 237.016 124.613V117.43H234.93V115.32H237.016V112.238H239.863ZM247.094 116.703C248.023 115.625 249.199 115.086 250.621 115.086C253.324 115.086 254.695 116.629 254.734 119.715V128H251.887V119.82C251.887 118.945 251.695 118.328 251.312 117.969C250.938 117.602 250.383 117.418 249.648 117.418C248.508 117.418 247.656 117.926 247.094 118.941V128H244.246V110H247.094V116.703ZM264.602 128V117.43H262.668V115.32H264.602V114.16C264.602 112.754 264.992 111.668 265.773 110.902C266.555 110.137 267.648 109.754 269.055 109.754C269.555 109.754 270.086 109.824 270.648 109.965L270.578 112.191C270.266 112.129 269.902 112.098 269.488 112.098C268.129 112.098 267.449 112.797 267.449 114.195V115.32H270.027V117.43H267.449V128H264.602ZM279.684 128C279.559 127.758 279.449 127.363 279.355 126.816C278.449 127.762 277.34 128.234 276.027 128.234C274.754 128.234 273.715 127.871 272.91 127.145C272.105 126.418 271.703 125.52 271.703 124.449C271.703 123.098 272.203 122.062 273.203 121.344C274.211 120.617 275.648 120.254 277.516 120.254H279.262V119.422C279.262 118.766 279.078 118.242 278.711 117.852C278.344 117.453 277.785 117.254 277.035 117.254C276.387 117.254 275.855 117.418 275.441 117.746C275.027 118.066 274.82 118.477 274.82 118.977H271.973C271.973 118.281 272.203 117.633 272.664 117.031C273.125 116.422 273.75 115.945 274.539 115.602C275.336 115.258 276.223 115.086 277.199 115.086C278.684 115.086 279.867 115.461 280.75 116.211C281.633 116.953 282.086 118 282.109 119.352V125.07C282.109 126.211 282.27 127.121 282.59 127.801V128H279.684ZM276.555 125.949C277.117 125.949 277.645 125.812 278.137 125.539C278.637 125.266 279.012 124.898 279.262 124.438V122.047H277.727C276.672 122.047 275.879 122.23 275.348 122.598C274.816 122.965 274.551 123.484 274.551 124.156C274.551 124.703 274.73 125.141 275.09 125.469C275.457 125.789 275.945 125.949 276.555 125.949ZM287.734 115.32L287.816 116.785C288.754 115.652 289.984 115.086 291.508 115.086C294.148 115.086 295.492 116.598 295.539 119.621V128H292.691V119.785C292.691 118.98 292.516 118.387 292.164 118.004C291.82 117.613 291.254 117.418 290.465 117.418C289.316 117.418 288.461 117.938 287.898 118.977V128H285.051V115.32H287.734ZM305.559 124.555C305.559 124.047 305.348 123.66 304.926 123.395C304.512 123.129 303.82 122.895 302.852 122.691C301.883 122.488 301.074 122.23 300.426 121.918C299.004 121.23 298.293 120.234 298.293 118.93C298.293 117.836 298.754 116.922 299.676 116.188C300.598 115.453 301.77 115.086 303.191 115.086C304.707 115.086 305.93 115.461 306.859 116.211C307.797 116.961 308.266 117.934 308.266 119.129H305.418C305.418 118.582 305.215 118.129 304.809 117.77C304.402 117.402 303.863 117.219 303.191 117.219C302.566 117.219 302.055 117.363 301.656 117.652C301.266 117.941 301.07 118.328 301.07 118.812C301.07 119.25 301.254 119.59 301.621 119.832C301.988 120.074 302.73 120.32 303.848 120.57C304.965 120.812 305.84 121.105 306.473 121.449C307.113 121.785 307.586 122.191 307.891 122.668C308.203 123.145 308.359 123.723 308.359 124.402C308.359 125.543 307.887 126.469 306.941 127.18C305.996 127.883 304.758 128.234 303.227 128.234C302.188 128.234 301.262 128.047 300.449 127.672C299.637 127.297 299.004 126.781 298.551 126.125C298.098 125.469 297.871 124.762 297.871 124.004H300.637C300.676 124.676 300.93 125.195 301.398 125.562C301.867 125.922 302.488 126.102 303.262 126.102C304.012 126.102 304.582 125.961 304.973 125.68C305.363 125.391 305.559 125.016 305.559 124.555ZM324.402 128C324.277 127.758 324.168 127.363 324.074 126.816C323.168 127.762 322.059 128.234 320.746 128.234C319.473 128.234 318.434 127.871 317.629 127.145C316.824 126.418 316.422 125.52 316.422 124.449C316.422 123.098 316.922 122.062 317.922 121.344C318.93 120.617 320.367 120.254 322.234 120.254H323.98V119.422C323.98 118.766 323.797 118.242 323.43 117.852C323.062 117.453 322.504 117.254 321.754 117.254C321.105 117.254 320.574 117.418 320.16 117.746C319.746 118.066 319.539 118.477 319.539 118.977H316.691C316.691 118.281 316.922 117.633 317.383 117.031C317.844 116.422 318.469 115.945 319.258 115.602C320.055 115.258 320.941 115.086 321.918 115.086C323.402 115.086 324.586 115.461 325.469 116.211C326.352 116.953 326.805 118 326.828 119.352V125.07C326.828 126.211 326.988 127.121 327.309 127.801V128H324.402ZM321.273 125.949C321.836 125.949 322.363 125.812 322.855 125.539C323.355 125.266 323.73 124.898 323.98 124.438V122.047H322.445C321.391 122.047 320.598 122.23 320.066 122.598C319.535 122.965 319.27 123.484 319.27 124.156C319.27 124.703 319.449 125.141 319.809 125.469C320.176 125.789 320.664 125.949 321.273 125.949ZM332.453 115.32L332.535 116.785C333.473 115.652 334.703 115.086 336.227 115.086C338.867 115.086 340.211 116.598 340.258 119.621V128H337.41V119.785C337.41 118.98 337.234 118.387 336.883 118.004C336.539 117.613 335.973 117.418 335.184 117.418C334.035 117.418 333.18 117.938 332.617 118.977V128H329.77V115.32H332.453ZM342.637 121.566C342.637 119.613 343.09 118.047 343.996 116.867C344.902 115.68 346.117 115.086 347.641 115.086C348.984 115.086 350.07 115.555 350.898 116.492V110H353.746V128H351.168L351.027 126.688C350.176 127.719 349.039 128.234 347.617 128.234C346.133 128.234 344.93 127.637 344.008 126.441C343.094 125.246 342.637 123.621 342.637 121.566ZM345.484 121.812C345.484 123.102 345.73 124.109 346.223 124.836C346.723 125.555 347.43 125.914 348.344 125.914C349.508 125.914 350.359 125.395 350.898 124.355V118.941C350.375 117.926 349.531 117.418 348.367 117.418C347.445 117.418 346.734 117.785 346.234 118.52C345.734 119.246 345.484 120.344 345.484 121.812ZM156.426 153.961C157.137 153.961 157.727 153.754 158.195 153.34C158.664 152.926 158.914 152.414 158.945 151.805H161.629C161.598 152.594 161.352 153.332 160.891 154.02C160.43 154.699 159.805 155.238 159.016 155.637C158.227 156.035 157.375 156.234 156.461 156.234C154.688 156.234 153.281 155.66 152.242 154.512C151.203 153.363 150.684 151.777 150.684 149.754V149.461C150.684 147.531 151.199 145.988 152.23 144.832C153.262 143.668 154.668 143.086 156.449 143.086C157.957 143.086 159.184 143.527 160.129 144.41C161.082 145.285 161.582 146.438 161.629 147.867H158.945C158.914 147.141 158.664 146.543 158.195 146.074C157.734 145.605 157.145 145.371 156.426 145.371C155.504 145.371 154.793 145.707 154.293 146.379C153.793 147.043 153.539 148.055 153.531 149.414V149.871C153.531 151.246 153.777 152.273 154.27 152.953C154.77 153.625 155.488 153.961 156.426 153.961ZM170.418 145.922C170.043 145.859 169.656 145.828 169.258 145.828C167.953 145.828 167.074 146.328 166.621 147.328V156H163.773V143.32H166.492L166.562 144.738C167.25 143.637 168.203 143.086 169.422 143.086C169.828 143.086 170.164 143.141 170.43 143.25L170.418 145.922ZM177.566 156.234C175.762 156.234 174.297 155.668 173.172 154.535C172.055 153.395 171.496 151.879 171.496 149.988V149.637C171.496 148.371 171.738 147.242 172.223 146.25C172.715 145.25 173.402 144.473 174.285 143.918C175.168 143.363 176.152 143.086 177.238 143.086C178.965 143.086 180.297 143.637 181.234 144.738C182.18 145.84 182.652 147.398 182.652 149.414V150.562H174.367C174.453 151.609 174.801 152.438 175.41 153.047C176.027 153.656 176.801 153.961 177.73 153.961C179.035 153.961 180.098 153.434 180.918 152.379L182.453 153.844C181.945 154.602 181.266 155.191 180.414 155.613C179.57 156.027 178.621 156.234 177.566 156.234ZM177.227 145.371C176.445 145.371 175.812 145.645 175.328 146.191C174.852 146.738 174.547 147.5 174.414 148.477H179.84V148.266C179.777 147.312 179.523 146.594 179.078 146.109C178.633 145.617 178.016 145.371 177.227 145.371ZM192.449 156C192.324 155.758 192.215 155.363 192.121 154.816C191.215 155.762 190.105 156.234 188.793 156.234C187.52 156.234 186.48 155.871 185.676 155.145C184.871 154.418 184.469 153.52 184.469 152.449C184.469 151.098 184.969 150.062 185.969 149.344C186.977 148.617 188.414 148.254 190.281 148.254H192.027V147.422C192.027 146.766 191.844 146.242 191.477 145.852C191.109 145.453 190.551 145.254 189.801 145.254C189.152 145.254 188.621 145.418 188.207 145.746C187.793 146.066 187.586 146.477 187.586 146.977H184.738C184.738 146.281 184.969 145.633 185.43 145.031C185.891 144.422 186.516 143.945 187.305 143.602C188.102 143.258 188.988 143.086 189.965 143.086C191.449 143.086 192.633 143.461 193.516 144.211C194.398 144.953 194.852 146 194.875 147.352V153.07C194.875 154.211 195.035 155.121 195.355 155.801V156H192.449ZM189.32 153.949C189.883 153.949 190.41 153.812 190.902 153.539C191.402 153.266 191.777 152.898 192.027 152.438V150.047H190.492C189.438 150.047 188.645 150.23 188.113 150.598C187.582 150.965 187.316 151.484 187.316 152.156C187.316 152.703 187.496 153.141 187.855 153.469C188.223 153.789 188.711 153.949 189.32 153.949ZM201.426 140.238V143.32H203.664V145.43H201.426V152.508C201.426 152.992 201.52 153.344 201.707 153.562C201.902 153.773 202.246 153.879 202.738 153.879C203.066 153.879 203.398 153.84 203.734 153.762V155.965C203.086 156.145 202.461 156.234 201.859 156.234C199.672 156.234 198.578 155.027 198.578 152.613V145.43H196.492V143.32H198.578V140.238H201.426ZM204.965 149.543C204.965 148.301 205.211 147.184 205.703 146.191C206.195 145.191 206.887 144.426 207.777 143.895C208.668 143.355 209.691 143.086 210.848 143.086C212.559 143.086 213.945 143.637 215.008 144.738C216.078 145.84 216.656 147.301 216.742 149.121L216.754 149.789C216.754 151.039 216.512 152.156 216.027 153.141C215.551 154.125 214.863 154.887 213.965 155.426C213.074 155.965 212.043 156.234 210.871 156.234C209.082 156.234 207.648 155.641 206.57 154.453C205.5 153.258 204.965 151.668 204.965 149.684V149.543ZM207.812 149.789C207.812 151.094 208.082 152.117 208.621 152.859C209.16 153.594 209.91 153.961 210.871 153.961C211.832 153.961 212.578 153.586 213.109 152.836C213.648 152.086 213.918 150.988 213.918 149.543C213.918 148.262 213.641 147.246 213.086 146.496C212.539 145.746 211.793 145.371 210.848 145.371C209.918 145.371 209.18 145.742 208.633 146.484C208.086 147.219 207.812 148.32 207.812 149.789ZM225.801 145.922C225.426 145.859 225.039 145.828 224.641 145.828C223.336 145.828 222.457 146.328 222.004 147.328V156H219.156V143.32H221.875L221.945 144.738C222.633 143.637 223.586 143.086 224.805 143.086C225.211 143.086 225.547 143.141 225.812 143.25L225.801 145.922ZM234.707 152.555C234.707 152.047 234.496 151.66 234.074 151.395C233.66 151.129 232.969 150.895 232 150.691C231.031 150.488 230.223 150.23 229.574 149.918C228.152 149.23 227.441 148.234 227.441 146.93C227.441 145.836 227.902 144.922 228.824 144.188C229.746 143.453 230.918 143.086 232.34 143.086C233.855 143.086 235.078 143.461 236.008 144.211C236.945 144.961 237.414 145.934 237.414 147.129H234.566C234.566 146.582 234.363 146.129 233.957 145.77C233.551 145.402 233.012 145.219 232.34 145.219C231.715 145.219 231.203 145.363 230.805 145.652C230.414 145.941 230.219 146.328 230.219 146.812C230.219 147.25 230.402 147.59 230.77 147.832C231.137 148.074 231.879 148.32 232.996 148.57C234.113 148.812 234.988 149.105 235.621 149.449C236.262 149.785 236.734 150.191 237.039 150.668C237.352 151.145 237.508 151.723 237.508 152.402C237.508 153.543 237.035 154.469 236.09 155.18C235.145 155.883 233.906 156.234 232.375 156.234C231.336 156.234 230.41 156.047 229.598 155.672C228.785 155.297 228.152 154.781 227.699 154.125C227.246 153.469 227.02 152.762 227.02 152.004H229.785C229.824 152.676 230.078 153.195 230.547 153.562C231.016 153.922 231.637 154.102 232.41 154.102C233.16 154.102 233.73 153.961 234.121 153.68C234.512 153.391 234.707 153.016 234.707 152.555ZM241.773 153C242.305 153 242.715 153.152 243.004 153.457C243.293 153.754 243.438 154.129 243.438 154.582C243.438 155.027 243.293 155.398 243.004 155.695C242.715 155.984 242.305 156.129 241.773 156.129C241.266 156.129 240.863 155.984 240.566 155.695C240.27 155.406 240.121 155.035 240.121 154.582C240.121 154.129 240.266 153.754 240.555 153.457C240.844 153.152 241.25 153 241.773 153Z" fill="#403468"/>
<path d="M47.695 42H43.87C43.24 42 42.925 41.685 42.925 41.055V14.01C42.925 13.38 43.24 13.065 43.87 13.065H54.85C57.19 13.065 59.005 13.71 60.295 15C61.585 16.26 62.23 18.06 62.23 20.4V24.72C62.23 27.06 61.585 28.875 60.295 30.165C59.005 31.425 57.19 32.055 54.85 32.055H49.18C48.82 32.055 48.64 32.22 48.64 32.55V41.055C48.64 41.685 48.325 42 47.695 42ZM49.135 27.06H53.905C54.865 27.06 55.54 26.865 55.93 26.475C56.32 26.055 56.515 25.38 56.515 24.45V20.67C56.515 19.71 56.32 19.035 55.93 18.645C55.54 18.225 54.865 18.015 53.905 18.015H49.135C48.805 18.015 48.64 18.18 48.64 18.51V26.565C48.64 26.895 48.805 27.06 49.135 27.06ZM71.1073 42H67.2823C66.6523 42 66.3373 41.685 66.3373 41.055V19.995C66.3373 19.365 66.6523 19.05 67.2823 19.05H71.1073C71.7373 19.05 72.0523 19.365 72.0523 19.995V21.525H72.2323C72.5623 20.715 73.1473 20.1 73.9873 19.68C74.8273 19.26 75.7123 19.05 76.6423 19.05H78.2623C78.8623 19.05 79.1623 19.365 79.1623 19.995V23.1C79.1623 23.46 79.0873 23.715 78.9373 23.865C78.8173 23.985 78.5923 24.03 78.2623 24H75.1573C73.0873 24 72.0523 25.17 72.0523 27.51V41.055C72.0523 41.685 71.7373 42 71.1073 42ZM82.2508 15.18V11.265C82.2508 10.665 82.5508 10.365 83.1508 10.365H87.0658C87.6658 10.365 87.9658 10.65 87.9658 11.22V15.18C87.9658 15.78 87.6658 16.08 87.0658 16.08H83.1508C82.5508 16.08 82.2508 15.78 82.2508 15.18ZM82.2508 41.055V19.995C82.2508 19.365 82.5508 19.05 83.1508 19.05H87.0208C87.6508 19.05 87.9658 19.365 87.9658 19.995V41.055C87.9658 41.445 87.8908 41.7 87.7408 41.82C87.6208 41.94 87.3958 42 87.0658 42H83.1958C82.5658 42 82.2508 41.685 82.2508 41.055ZM92.1539 19.05H96.1139C96.7139 19.05 97.0739 19.365 97.1939 19.995L101.064 36.915H101.379L105.159 19.995C105.279 19.365 105.654 19.05 106.284 19.05H110.244C110.874 19.05 111.099 19.365 110.919 19.995L105.249 41.01C105.129 41.67 104.724 42 104.034 42H98.3189C97.6889 42 97.2839 41.67 97.1039 41.01L91.4789 19.995C91.2989 19.365 91.5239 19.05 92.1539 19.05ZM122.249 42H121.169C118.799 42 116.969 41.37 115.679 40.11C114.389 38.85 113.744 37.035 113.744 34.665V26.385C113.744 24.015 114.389 22.2 115.679 20.94C116.969 19.68 118.799 19.05 121.169 19.05H131.564C132.224 19.05 132.554 19.365 132.554 19.995V41.055C132.554 41.685 132.224 42 131.564 42H127.784C127.154 42 126.839 41.685 126.839 41.055V39.57H126.659C126.329 40.38 125.744 40.995 124.904 41.415C124.064 41.805 123.179 42 122.249 42ZM126.839 33.63V24.495C126.839 24.165 126.659 24 126.299 24H122.069C121.109 24 120.434 24.21 120.044 24.63C119.654 25.02 119.459 25.695 119.459 26.655V34.395C119.459 35.355 119.654 36.045 120.044 36.465C120.434 36.855 121.109 37.05 122.069 37.05H123.734C125.804 37.05 126.839 35.91 126.839 33.63ZM152.11 37.995V41.1C152.11 41.43 152.035 41.67 151.885 41.82C151.765 41.94 151.525 42 151.165 42H144.46C142.09 42 140.26 41.37 138.97 40.11C137.68 38.85 137.035 37.035 137.035 34.665V26.385C137.035 24.015 137.68 22.2 138.97 20.94C140.26 19.68 142.09 19.05 144.46 19.05H151.165C151.795 19.05 152.11 19.365 152.11 19.995V23.1C152.11 23.43 152.035 23.67 151.885 23.82C151.765 23.94 151.525 24 151.165 24H145.36C144.43 24 143.755 24.21 143.335 24.63C142.945 25.02 142.75 25.695 142.75 26.655V34.395C142.75 35.355 142.945 36.045 143.335 36.465C143.755 36.855 144.43 37.05 145.36 37.05H151.165C151.795 37.05 152.11 37.365 152.11 37.995ZM159.721 49.605H156.841C156.241 49.605 155.941 49.275 155.941 48.615V45.6C155.941 44.94 156.241 44.61 156.841 44.61H157.786C159.676 44.61 160.951 44.34 161.611 43.8C162.301 43.29 162.826 42.285 163.186 40.785H160.801C160.231 40.785 159.856 40.47 159.676 39.84L154.411 19.995C154.231 19.365 154.456 19.05 155.086 19.05H159.091C159.691 19.05 160.066 19.365 160.216 19.995L164.086 36.6H164.266L168.091 19.995C168.211 19.365 168.586 19.05 169.216 19.05H172.996C173.746 19.05 174.046 19.38 173.896 20.04L168.406 42C167.746 44.49 166.726 46.38 165.346 47.67C163.966 48.96 162.091 49.605 159.721 49.605ZM194.57 37.005H196.46C197.72 37.005 198.44 36.405 198.62 35.205L193.715 29.445C192.995 29.475 192.485 29.715 192.185 30.165C191.915 30.615 191.78 31.38 191.78 32.46V34.395C191.78 35.325 191.99 36 192.41 36.42C192.86 36.81 193.58 37.005 194.57 37.005ZM196.46 42H193.715C191.345 42 189.515 41.37 188.225 40.11C186.935 38.85 186.29 37.05 186.29 34.71V32.1C186.29 30.6 186.68 29.28 187.46 28.14C188.27 26.97 189.395 26.295 190.835 26.115C189.665 24.585 189.08 22.83 189.08 20.85V20.355C189.08 18.045 189.77 16.26 191.15 15C192.56 13.71 194.465 13.065 196.865 13.065H198.35C200.72 13.065 202.55 13.695 203.84 14.955C205.13 16.215 205.775 18.015 205.775 20.355V21.885C205.775 22.545 205.46 22.875 204.83 22.875H201.005C200.375 22.875 200.06 22.545 200.06 21.885V20.445C200.06 19.515 199.88 18.855 199.52 18.465C199.16 18.045 198.59 17.835 197.81 17.835H197.45C196.58 17.835 195.95 18.045 195.56 18.465C195.17 18.855 194.975 19.515 194.975 20.445V21.03C194.975 22.2 195.635 23.535 196.955 25.035L199.07 27.465H209.06C209.69 27.465 210.005 27.795 210.005 28.455V31.515C210.005 32.145 209.69 32.46 209.06 32.46H203.21L210.545 41.19C210.695 41.37 210.74 41.55 210.68 41.73C210.62 41.91 210.485 42 210.275 42H205.46C204.74 42 204.215 41.79 203.885 41.37L201.905 39.03C201.575 40.08 200.975 40.845 200.105 41.325C199.265 41.775 198.05 42 196.46 42ZM224.49 34.62V33.72C224.49 33.09 224.805 32.775 225.435 32.775H229.26C229.89 32.775 230.205 33.09 230.205 33.72V34.08C230.205 35.22 230.43 36 230.88 36.42C231.33 36.84 232.155 37.05 233.355 37.05H235.47C236.64 37.05 237.45 36.825 237.9 36.375C238.38 35.925 238.62 35.085 238.62 33.855V33.315C238.62 32.445 238.26 31.785 237.54 31.335C236.85 30.855 235.98 30.57 234.93 30.48C233.88 30.39 232.74 30.225 231.51 29.985C230.31 29.715 229.185 29.385 228.135 28.995C227.085 28.575 226.2 27.78 225.48 26.61C224.79 25.41 224.445 23.88 224.445 22.02V20.445C224.445 18.105 225.105 16.29 226.425 15C227.745 13.71 229.575 13.065 231.915 13.065H236.415C238.785 13.065 240.63 13.71 241.95 15C243.27 16.29 243.93 18.105 243.93 20.445V21.3C243.93 21.93 243.615 22.245 242.985 22.245H239.16C238.53 22.245 238.215 21.93 238.215 21.3V21.03C238.215 19.86 237.99 19.065 237.54 18.645C237.09 18.225 236.265 18.015 235.065 18.015H233.31C232.08 18.015 231.24 18.255 230.79 18.735C230.37 19.185 230.16 20.085 230.16 21.435V22.29C230.16 23.7 231.39 24.51 233.85 24.72C236.4 24.93 238.665 25.44 240.645 26.25C241.695 26.7 242.565 27.51 243.255 28.68C243.975 29.82 244.335 31.29 244.335 33.09V34.62C244.335 36.96 243.675 38.775 242.355 40.065C241.035 41.355 239.205 42 236.865 42H231.96C229.62 42 227.79 41.355 226.47 40.065C225.15 38.775 224.49 36.96 224.49 34.62ZM265.938 42H255.993C253.623 42 251.793 41.37 250.503 40.11C249.213 38.85 248.568 37.035 248.568 34.665V26.385C248.568 24.015 249.213 22.2 250.503 20.94C251.793 19.68 253.623 19.05 255.993 19.05H259.548C261.918 19.05 263.748 19.68 265.038 20.94C266.328 22.2 266.973 24.015 266.973 26.385V32.1C266.973 32.73 266.658 33.045 266.028 33.045H254.733C254.373 33.045 254.193 33.21 254.193 33.54V34.53C254.193 35.46 254.388 36.135 254.778 36.555C255.198 36.945 255.888 37.14 256.848 37.14H265.938C266.568 37.14 266.883 37.47 266.883 38.13V41.1C266.883 41.43 266.808 41.67 266.658 41.82C266.538 41.94 266.298 42 265.938 42ZM254.733 29.22H260.853C261.183 29.22 261.348 29.055 261.348 28.725V26.565C261.348 25.605 261.153 24.93 260.763 24.54C260.373 24.15 259.698 23.955 258.738 23.955H256.848C255.888 23.955 255.213 24.15 254.823 24.54C254.433 24.93 254.238 25.605 254.238 26.565V28.725C254.238 29.055 254.403 29.22 254.733 29.22ZM285.879 37.995V41.1C285.879 41.43 285.804 41.67 285.654 41.82C285.534 41.94 285.294 42 284.934 42H278.229C275.859 42 274.029 41.37 272.739 40.11C271.449 38.85 270.804 37.035 270.804 34.665V26.385C270.804 24.015 271.449 22.2 272.739 20.94C274.029 19.68 275.859 19.05 278.229 19.05H284.934C285.564 19.05 285.879 19.365 285.879 19.995V23.1C285.879 23.43 285.804 23.67 285.654 23.82C285.534 23.94 285.294 24 284.934 24H279.129C278.199 24 277.524 24.21 277.104 24.63C276.714 25.02 276.519 25.695 276.519 26.655V34.395C276.519 35.355 276.714 36.045 277.104 36.465C277.524 36.855 278.199 37.05 279.129 37.05H284.934C285.564 37.05 285.879 37.365 285.879 37.995ZM298.035 42H296.55C294.24 42 292.485 41.37 291.285 40.11C290.115 38.85 289.53 37.035 289.53 34.665V19.995C289.53 19.365 289.845 19.05 290.475 19.05H294.3C294.93 19.05 295.245 19.365 295.245 19.995V34.395C295.245 35.355 295.44 36.045 295.83 36.465C296.25 36.855 296.925 37.05 297.855 37.05H299.52C301.59 37.05 302.625 35.91 302.625 33.63V19.995C302.625 19.365 302.94 19.05 303.57 19.05H307.35C308.01 19.05 308.34 19.365 308.34 19.995V41.055C308.34 41.685 308.01 42 307.35 42H303.57C302.94 42 302.625 41.685 302.625 41.055V39.57H302.445C302.115 40.38 301.53 40.995 300.69 41.415C299.85 41.805 298.965 42 298.035 42ZM318.08 42H314.255C313.625 42 313.31 41.685 313.31 41.055V19.995C313.31 19.365 313.625 19.05 314.255 19.05H318.08C318.71 19.05 319.025 19.365 319.025 19.995V21.525H319.205C319.535 20.715 320.12 20.1 320.96 19.68C321.8 19.26 322.685 19.05 323.615 19.05H325.235C325.835 19.05 326.135 19.365 326.135 19.995V23.1C326.135 23.46 326.06 23.715 325.91 23.865C325.79 23.985 325.565 24.03 325.235 24H322.13C320.06 24 319.025 25.17 319.025 27.51V41.055C319.025 41.685 318.71 42 318.08 42ZM329.223 15.18V11.265C329.223 10.665 329.523 10.365 330.123 10.365H334.038C334.638 10.365 334.938 10.65 334.938 11.22V15.18C334.938 15.78 334.638 16.08 334.038 16.08H330.123C329.523 16.08 329.223 15.78 329.223 15.18ZM329.223 41.055V19.995C329.223 19.365 329.523 19.05 330.123 19.05H333.993C334.623 19.05 334.938 19.365 334.938 19.995V41.055C334.938 41.445 334.863 41.7 334.713 41.82C334.593 41.94 334.368 42 334.038 42H330.168C329.538 42 329.223 41.685 329.223 41.055ZM340.612 24H338.812C338.452 24 338.197 23.94 338.047 23.82C337.927 23.7 337.867 23.46 337.867 23.1V19.995C337.867 19.365 338.182 19.05 338.812 19.05H340.612C340.942 19.05 341.107 18.885 341.107 18.555V14.28C341.107 13.65 341.437 13.335 342.097 13.335H345.877C346.507 13.335 346.822 13.65 346.822 14.28V18.555C346.822 18.885 347.002 19.05 347.362 19.05H350.872C351.502 19.05 351.817 19.365 351.817 19.995V23.1C351.817 23.43 351.742 23.67 351.592 23.82C351.472 23.94 351.232 24 350.872 24H347.362C347.002 24 346.822 24.165 346.822 24.495V34.44C346.822 35.37 347.032 36.045 347.452 36.465C347.872 36.855 348.562 37.05 349.522 37.05H351.322C351.952 37.05 352.267 37.365 352.267 37.995V41.1C352.267 41.43 352.192 41.67 352.042 41.82C351.922 41.94 351.682 42 351.322 42H348.577C346.207 42 344.362 41.37 343.042 40.11C341.752 38.85 341.107 37.05 341.107 34.71V24.495C341.107 24.165 340.942 24 340.612 24ZM359.716 49.605H356.836C356.236 49.605 355.936 49.275 355.936 48.615V45.6C355.936 44.94 356.236 44.61 356.836 44.61H357.781C359.671 44.61 360.946 44.34 361.606 43.8C362.296 43.29 362.821 42.285 363.181 40.785H360.796C360.226 40.785 359.851 40.47 359.671 39.84L354.406 19.995C354.226 19.365 354.451 19.05 355.081 19.05H359.086C359.686 19.05 360.061 19.365 360.211 19.995L364.081 36.6H364.261L368.086 19.995C368.206 19.365 368.581 19.05 369.211 19.05H372.991C373.741 19.05 374.041 19.38 373.891 20.04L368.401 42C367.741 44.49 366.721 46.38 365.341 47.67C363.961 48.96 362.086 49.605 359.716 49.605Z" fill="#5D2CFF"/>
</svg>
