<svg width="132" height="81" viewBox="0 0 132 81" fill="none" xmlns="http://www.w3.org/2000/svg">
<g opacity="0.25">
<path opacity="0.25" d="M0 80.689L132 80.689V59.689L0 59.689V80.689Z" fill="#5D2CFF"/>
<path opacity="0.25" d="M0.5 80.189L131.5 80.189V60.189L0.5 60.189V80.189Z" stroke="#707070"/>
</g>
<path d="M40.215 29.232C40.8971 29.9158 41.8218 30.3024 42.7877 30.3077C43.7536 30.3129 44.6825 29.9363 45.372 29.26L62.44 12.248L62.44 77.074C62.4558 78.0298 62.8467 78.9412 63.5282 79.6115C64.2098 80.2819 65.1275 80.6576 66.0835 80.6576C67.0395 80.6576 67.9572 80.2819 68.6388 79.6115C69.3203 78.9412 69.7112 78.0298 69.727 77.074V12.248L86.795 29.288C87.4879 29.9579 88.4154 30.33 89.3792 30.3248C90.343 30.3196 91.2664 29.9374 91.952 29.26C92.6279 28.5758 93.0046 27.6514 92.9993 26.6897C92.9941 25.728 92.6073 24.8077 91.924 24.131L68.662 1.03696C68.3245 0.721581 67.936 0.46563 67.513 0.279961C67.0707 0.0907898 66.594 -0.00456238 66.113 -4.57764e-05C65.1603 -0.00012207 64.2453 0.371994 63.563 1.03696L40.299 24.131C39.9541 24.4577 39.6778 24.8501 39.4865 25.285C39.2952 25.72 39.1926 26.1887 39.1848 26.6638C39.1769 27.1389 39.264 27.6108 39.4409 28.0518C39.6178 28.4927 39.881 28.894 40.215 29.232Z" fill="#5D2CFF"/>
</svg>
