<svg width="135" height="128" viewBox="0 0 135 128" fill="none" xmlns="http://www.w3.org/2000/svg">
<path d="M84.1938 113.918V103.201H51.04V113.918C51.0401 117.41 49.8022 120.8 47.5266 123.54L46.0669 125.294H89.1669L87.7195 123.54C85.4351 120.804 84.1923 117.413 84.1938 113.918Z" fill="white" stroke="#263238" stroke-linecap="round" stroke-linejoin="round"/>
<g style="mix-blend-mode:multiply">
<path d="M49.0111 121.42H86.2349C84.8946 119.125 84.192 116.543 84.1937 113.918V103.201H51.0399V113.918C51.04 116.542 50.342 119.122 49.0111 121.42Z" fill="#92E3A9"/>
</g>
<path d="M84.1938 104.815H51.04V109.337H84.1938V104.815Z" fill="#263238" stroke="#263238" stroke-width="1.09543" stroke-linecap="round" stroke-linejoin="round"/>
<path d="M122.741 11.45H12.4925C6.14538 11.45 1 16.3482 1 22.3904V95.6408C1 101.683 6.14538 106.581 12.4925 106.581H122.741C129.088 106.581 134.234 101.683 134.234 95.6408V22.3904C134.234 16.3482 129.088 11.45 122.741 11.45Z" fill="#263238" stroke="#263238" stroke-width="1.09543" stroke-linecap="round" stroke-linejoin="round"/>
<path d="M1 91.7898H134.234V95.629C134.234 98.5305 133.023 101.313 130.868 103.365C128.712 105.417 125.789 106.569 122.741 106.569H12.4925C9.44451 106.569 6.52134 105.417 4.36607 103.365C2.21081 101.313 1 98.5305 1 95.629V91.7898Z" fill="white" stroke="#263238" stroke-linecap="round" stroke-linejoin="round"/>
<path d="M127.541 17.3618H7.70496V84.5708H127.541V17.3618Z" fill="#92E3A9" stroke="#263238" stroke-width="1.09543" stroke-linecap="round" stroke-linejoin="round"/>
<path d="M67.6168 101.529C68.9764 101.529 70.0786 100.48 70.0786 99.1853C70.0786 97.891 68.9764 96.8418 67.6168 96.8418C66.2572 96.8418 65.155 97.891 65.155 99.1853C65.155 100.48 66.2572 101.529 67.6168 101.529Z" fill="#263238" stroke="#263238" stroke-width="1.09543" stroke-linecap="round" stroke-linejoin="round"/>
<path d="M89.1669 125.294H46.0669V127.202H89.1669V125.294Z" fill="white" stroke="#263238" stroke-linecap="round" stroke-linejoin="round"/>
<path d="M109.48 84.2762L96.3172 57.6257H36.8878L25.754 84.2762H109.48Z" fill="white" stroke="#263238" stroke-linecap="round" stroke-linejoin="round"/>
<path d="M46.5989 24.2865C46.5989 24.2865 44.4587 33.7902 46.5989 37.6647C48.739 41.5392 51.7575 46.1792 50.1246 49.5355C48.4916 52.8918 46.8711 53.6573 46.3267 60.1344C45.7824 66.6115 56.6316 79.4834 69.1014 78.1879C81.5712 76.8925 88.8947 67.0944 86.7175 59.0981C84.5402 51.1018 81.0269 50.0654 82.1031 44.9662C83.1794 39.8669 85.901 36.4517 84.5773 29.4917C83.2536 22.5318 76.7219 11.1673 68.8664 8.58827C61.0109 6.0092 56.0626 9.62461 53.1431 14.4766C50.2235 19.3285 47.1185 22.2727 46.5989 24.2865Z" fill="#263238" stroke="#263238" stroke-linecap="round" stroke-linejoin="round"/>
<path d="M87.2865 84.2762L96.3173 57.6258L66.4912 42.1631L36.8878 57.6258L43.9144 84.2762H87.2865Z" fill="white" stroke="#263238" stroke-linecap="round" stroke-linejoin="round"/>
<path d="M54.8626 48.2398L51.7699 57.2725L58.8213 59.0743L52.5864 63.467L65.6005 75.5851L77.7981 64.7506L71.8354 59.3334L80.2352 57.2725L78.0332 48.1574L66.4912 42.1631L54.8626 48.2398Z" fill="white" stroke="#263238" stroke-linecap="round" stroke-linejoin="round"/>
<path d="M58.3264 34.9443V46.7326L66.0334 68.1072L73.3941 46.556V34.2612L58.3264 34.9443Z" fill="white" stroke="#263238" stroke-linecap="round" stroke-linejoin="round"/>
<path d="M55.0729 21.6483C55.0729 21.6483 51.9431 16.3606 50.2112 19.293C48.4792 22.2254 50.9039 28.5259 51.9431 30.1864C52.9822 31.8469 54.7265 29.1853 54.7265 29.1853" fill="white"/>
<path d="M55.0729 21.6483C55.0729 21.6483 51.9431 16.3606 50.2112 19.293C48.4792 22.2254 50.9039 28.5259 51.9431 30.1864C52.9822 31.8469 54.7265 29.1853 54.7265 29.1853" stroke="#263238" stroke-linecap="round" stroke-linejoin="round"/>
<path d="M77.4146 21.6483C77.4146 21.6483 80.5444 16.3606 82.2763 19.293C84.0082 22.2254 81.5835 28.5259 80.5444 30.1864C79.5052 31.8469 77.7609 29.1853 77.7609 29.1853" fill="white"/>
<path d="M77.4146 21.6483C77.4146 21.6483 80.5444 16.3606 82.2763 19.293C84.0082 22.2254 81.5835 28.5259 80.5444 30.1864C79.5052 31.8469 77.7609 29.1853 77.7609 29.1853" stroke="#263238" stroke-linecap="round" stroke-linejoin="round"/>
<path d="M78.9857 20.6474C78.9857 29.9392 73.2457 42.7639 66.1572 42.7639C59.0687 42.7639 53.3286 29.9509 53.3286 20.6474C53.3286 11.3439 59.0811 3.80688 66.1572 3.80688C73.2333 3.80688 78.9857 11.3557 78.9857 20.6474Z" fill="white" stroke="#263238" stroke-linecap="round" stroke-linejoin="round"/>
<path d="M63.6953 8.50568C63.6953 5.77351 62.8294 2.09921 58.846 3.37108C54.1574 4.89026 51.0647 14.4293 48.8009 18.3156C47.6404 20.1392 46.8905 22.1724 46.5988 24.2863C45.4855 30.8812 51.2379 36.3691 51.2379 36.3691C51.2379 36.3691 49.8771 29.4091 50.6936 24.7574C51.1513 22.1665 52.5245 21.2244 54.9244 20.294C60.4171 18.292 63.6953 14.4293 63.6953 8.50568Z" fill="#263238" stroke="#263238" stroke-linecap="round" stroke-linejoin="round"/>
<path d="M88.5731 21.4718C86.8221 18.667 84.6461 16.1234 82.1155 13.923C79.1341 11.0848 77.5135 4.12486 70.7343 1.7931C63.9551 -0.538668 60.9738 2.57035 61.2459 7.22211C61.2879 7.96603 61.3871 8.70602 61.5428 9.43612C61.537 9.47123 61.537 9.50699 61.5428 9.5421C61.5428 9.5421 61.5428 9.65987 61.6665 9.88362C61.8682 11.1276 62.4942 12.2739 63.4479 13.1457L63.6211 13.2635C65.0099 15.1701 66.5838 16.9484 68.322 18.5747C74.0126 23.992 81.064 28.891 81.3361 34.5674C81.5464 39.2073 79.8021 42.811 78.862 47.5216H78.6269C78.0902 50.0417 76.9843 52.4206 75.3858 54.4934C72.9116 57.3315 72.6642 59.3924 78.3671 59.6515C85.9876 59.993 89.7854 50.3716 90.8369 44.5304C91.8799 39.1264 91.9218 33.5904 90.9606 28.1727C90.5431 25.8326 89.7372 23.5707 88.5731 21.4718Z" fill="#263238" stroke="#263238" stroke-linecap="round" stroke-linejoin="round"/>
</svg>
