<svg width="47" height="47" viewBox="0 0 47 47" fill="none" xmlns="http://www.w3.org/2000/svg">
<g clip-path="url(#clip0)">
<path d="M36.564 31.8246C36.158 31.8246 35.6517 31.6983 35.1012 31.272L28.7776 26.6513V19.8095L35.1069 15.1831C36.1428 14.3612 37.0316 14.6404 37.3697 14.8011C37.7935 15.0025 38.5043 15.538 38.5043 16.862V29.5988C38.5043 30.8983 37.8107 31.4332 37.3969 31.6357C37.2351 31.715 36.9429 31.8246 36.564 31.8246ZM31.9094 25.0611L35.373 27.5928L35.3736 18.867L31.9094 21.3992V25.0611Z" fill="black"/>
<path d="M13.3932 31.8226C10.4013 31.8226 7.95525 29.3917 7.9422 26.3915L7.94272 16.8626C7.97195 15.6346 8.9562 14.6498 10.1842 14.6211L24.0697 14.6206C24.0775 14.6206 24.0853 14.6206 24.0932 14.6206C27.0856 14.6206 29.5316 17.052 29.5442 20.0518V29.553C29.5144 30.8212 28.4926 31.8232 27.2657 31.8232H13.4167C13.4088 31.8226 13.401 31.8226 13.3932 31.8226ZM11.0729 17.7513V26.3842C11.0787 27.6586 12.1188 28.6903 13.4099 28.6909H26.4129L26.4124 20.0575C26.4066 18.7867 25.3639 17.7513 24.0859 17.7513C24.0822 17.7513 24.0791 17.7513 24.0754 17.7513H11.0729Z" fill="black"/>
<path d="M23.2233 46.7075C10.274 46.7075 -0.261108 36.1724 -0.261108 23.2231C-0.261108 10.2739 10.274 -0.26123 23.2233 -0.26123C36.1725 -0.26123 46.7076 10.2739 46.7076 23.2231C46.7076 36.1724 36.1725 46.7075 23.2233 46.7075ZM23.2233 2.87002C12.0003 2.87002 2.87014 12.0002 2.87014 23.2231C2.87014 34.446 12.0003 43.5762 23.2233 43.5762C34.4462 43.5762 43.5764 34.446 43.5764 23.2231C43.5764 12.0002 34.4462 2.87002 23.2233 2.87002Z" fill="black"/>
</g>
<defs>
<clipPath id="clip0">
<rect width="47" height="47" fill="white"/>
</clipPath>
</defs>
</svg>
