<svg width="716" height="224" viewBox="0 0 716 224" fill="none" xmlns="http://www.w3.org/2000/svg">
<path d="M18.5039 74.9733H28.4394C30.384 74.9733 31.7513 74.5783 32.5413 73.7883C33.392 72.9375 33.8174 71.5399 33.8174 69.5953V41.7939C33.8174 39.8493 33.392 38.4821 32.5413 37.6921C31.7513 36.8413 30.384 36.4159 28.4394 36.4159H18.5039C17.8354 36.4159 17.5012 36.7502 17.5012 37.4186V73.9706C17.5012 74.639 17.8354 74.9733 18.5039 74.9733ZM5.92489 83.0858V28.3034C5.92489 27.0273 6.56295 26.3892 7.83908 26.3892H30.3536C35.0936 26.3892 38.77 27.6957 41.383 30.3088C44.0568 32.861 45.3937 36.5071 45.3937 41.247V70.1422C45.3937 74.8821 44.0568 78.5586 41.383 81.1716C38.77 83.7239 35.0936 85 30.3536 85H7.83908C6.56295 85 5.92489 84.3619 5.92489 83.0858ZM89.6694 85H69.5248C64.7241 85 61.0173 83.7239 58.4043 81.1716C55.7912 78.6194 54.4847 74.9429 54.4847 70.1422V53.3702C54.4847 48.5696 55.7912 44.8931 58.4043 42.3408C61.0173 39.7886 64.7241 38.5124 69.5248 38.5124H76.7258C81.5265 38.5124 85.2334 39.7886 87.8464 42.3408C90.4594 44.8931 91.7659 48.5696 91.7659 53.3702V64.9465C91.7659 66.2227 91.1279 66.8607 89.8517 66.8607H66.9726C66.2433 66.8607 65.8787 67.195 65.8787 67.8634V69.8688C65.8787 71.7526 66.2737 73.1198 67.0637 73.9706C67.9145 74.7606 69.3121 75.1556 71.2567 75.1556H89.6694C90.9456 75.1556 91.5836 75.824 91.5836 77.1609V83.177C91.5836 83.8454 91.4317 84.3316 91.1279 84.6354C90.8848 84.8785 90.3986 85 89.6694 85ZM66.9726 59.1128H79.3692C80.0377 59.1128 80.3719 58.7786 80.3719 58.1101V53.7348C80.3719 51.7903 79.9769 50.423 79.1869 49.633C78.397 48.843 77.0297 48.448 75.0851 48.448H71.2567C69.3121 48.448 67.9449 48.843 67.1549 49.633C66.3649 50.423 65.9699 51.7903 65.9699 53.7348V58.1101C65.9699 58.7786 66.3041 59.1128 66.9726 59.1128ZM130.063 76.8875V83.177C130.063 83.8454 129.911 84.3316 129.607 84.6354C129.364 84.8785 128.878 85 128.148 85H114.567C109.766 85 106.059 83.7239 103.446 81.1716C100.833 78.6194 99.5267 74.9429 99.5267 70.1422V53.3702C99.5267 48.5696 100.833 44.8931 103.446 42.3408C106.059 39.7886 109.766 38.5124 114.567 38.5124H128.148C129.425 38.5124 130.063 39.1505 130.063 40.4266V46.7161C130.063 47.3846 129.911 47.8707 129.607 48.1746C129.364 48.4176 128.878 48.5392 128.148 48.5392H116.39C114.506 48.5392 113.139 48.9645 112.288 49.8153C111.498 50.6053 111.103 51.9726 111.103 53.9171V69.5953C111.103 71.5399 111.498 72.9375 112.288 73.7883C113.139 74.5783 114.506 74.9733 116.39 74.9733H128.148C129.425 74.9733 130.063 75.6113 130.063 76.8875ZM172.187 85H152.042C147.242 85 143.535 83.7239 140.922 81.1716C138.309 78.6194 137.002 74.9429 137.002 70.1422V53.3702C137.002 48.5696 138.309 44.8931 140.922 42.3408C143.535 39.7886 147.242 38.5124 152.042 38.5124H159.243C164.044 38.5124 167.751 39.7886 170.364 42.3408C172.977 44.8931 174.283 48.5696 174.283 53.3702V64.9465C174.283 66.2227 173.645 66.8607 172.369 66.8607H149.49C148.761 66.8607 148.396 67.195 148.396 67.8634V69.8688C148.396 71.7526 148.791 73.1198 149.581 73.9706C150.432 74.7606 151.83 75.1556 153.774 75.1556H172.187C173.463 75.1556 174.101 75.824 174.101 77.1609V83.177C174.101 83.8454 173.949 84.3316 173.645 84.6354C173.402 84.8785 172.916 85 172.187 85ZM149.49 59.1128H161.887C162.555 59.1128 162.889 58.7786 162.889 58.1101V53.7348C162.889 51.7903 162.494 50.423 161.704 49.633C160.915 48.843 159.547 48.448 157.603 48.448H153.774C151.83 48.448 150.462 48.843 149.672 49.633C148.882 50.423 148.487 51.7903 148.487 53.7348V58.1101C148.487 58.7786 148.822 59.1128 149.49 59.1128ZM192.618 85H184.87C183.594 85 182.956 84.3619 182.956 83.0858V40.4266C182.956 39.1505 183.594 38.5124 184.87 38.5124H192.618C193.894 38.5124 194.532 39.1505 194.532 40.4266V43.4347H194.897C196.234 40.1532 199.211 38.5124 203.83 38.5124H206.746C216.287 38.5124 221.057 43.465 221.057 53.3702V83.0858C221.057 84.3619 220.389 85 219.052 85H211.395C210.119 85 209.481 84.3619 209.481 83.0858V53.9171C209.481 51.9726 209.056 50.6053 208.205 49.8153C207.415 48.9645 206.048 48.5392 204.103 48.5392H200.822C196.629 48.5392 194.532 50.8484 194.532 55.4667V83.0858C194.532 84.3619 193.894 85 192.618 85ZM231.671 48.5392H228.025C227.296 48.5392 226.779 48.4176 226.475 48.1746C226.232 47.9315 226.111 47.4453 226.111 46.7161V40.4266C226.111 39.1505 226.749 38.5124 228.025 38.5124H231.671C232.339 38.5124 232.673 38.1782 232.673 37.5098V28.8503C232.673 27.5742 233.342 26.9361 234.679 26.9361H242.336C243.612 26.9361 244.25 27.5742 244.25 28.8503V37.5098C244.25 38.1782 244.614 38.5124 245.344 38.5124H252.453C253.73 38.5124 254.368 39.1505 254.368 40.4266V46.7161C254.368 47.3846 254.216 47.8707 253.912 48.1746C253.669 48.4176 253.183 48.5392 252.453 48.5392H245.344C244.614 48.5392 244.25 48.8734 244.25 49.5418V69.6864C244.25 71.5703 244.675 72.9375 245.526 73.7883C246.377 74.5783 247.774 74.9733 249.719 74.9733H253.365C254.641 74.9733 255.279 75.6113 255.279 76.8875V83.177C255.279 83.8454 255.127 84.3316 254.823 84.6354C254.58 84.8785 254.094 85 253.365 85H247.805C243.004 85 239.267 83.7239 236.593 81.1716C233.98 78.6194 232.673 74.9733 232.673 70.2334V49.5418C232.673 48.8734 232.339 48.5392 231.671 48.5392ZM272.465 85H264.717C263.441 85 262.803 84.3619 262.803 83.0858V40.4266C262.803 39.1505 263.441 38.5124 264.717 38.5124H272.465C273.741 38.5124 274.379 39.1505 274.379 40.4266V43.5258H274.744C275.412 41.8851 276.597 40.6393 278.299 39.7886C280 38.9378 281.793 38.5124 283.677 38.5124H286.958C288.173 38.5124 288.781 39.1505 288.781 40.4266V46.7161C288.781 47.4453 288.629 47.9619 288.325 48.2657C288.082 48.5088 287.627 48.5999 286.958 48.5392H280.669C276.476 48.5392 274.379 50.9091 274.379 55.649V83.0858C274.379 84.3619 273.741 85 272.465 85ZM310.898 85H308.71C303.909 85 300.202 83.7239 297.589 81.1716C294.976 78.6194 293.67 74.9429 293.67 70.1422V53.3702C293.67 48.5696 294.976 44.8931 297.589 42.3408C300.202 39.7886 303.909 38.5124 308.71 38.5124H329.766C331.103 38.5124 331.771 39.1505 331.771 40.4266V83.0858C331.771 84.3619 331.103 85 329.766 85H322.109C320.833 85 320.195 84.3619 320.195 83.0858V80.0778H319.831C319.162 81.7185 317.977 82.9643 316.276 83.815C314.574 84.605 312.781 85 310.898 85ZM320.195 68.0457V49.5418C320.195 48.8734 319.831 48.5392 319.101 48.5392H310.533C308.588 48.5392 307.221 48.9645 306.431 49.8153C305.641 50.6053 305.246 51.9726 305.246 53.9171V69.5953C305.246 71.5399 305.641 72.9375 306.431 73.7883C307.221 74.5783 308.588 74.9733 310.533 74.9733H313.906C318.099 74.9733 320.195 72.6641 320.195 68.0457ZM351.878 85H344.13C342.854 85 342.216 84.3619 342.216 83.0858V22.8343C342.216 21.5582 342.854 20.9201 344.13 20.9201H351.878C353.154 20.9201 353.792 21.5582 353.792 22.8343V83.0858C353.792 84.3619 353.154 85 351.878 85ZM364.736 30.6734V22.7431C364.736 21.5278 365.344 20.9201 366.56 20.9201H374.49C375.705 20.9201 376.313 21.4974 376.313 22.652V30.6734C376.313 31.8887 375.705 32.4964 374.49 32.4964H366.56C365.344 32.4964 364.736 31.8887 364.736 30.6734ZM364.736 83.0858V40.4266C364.736 39.1505 365.344 38.5124 366.56 38.5124H374.399C375.675 38.5124 376.313 39.1505 376.313 40.4266V83.0858C376.313 83.8758 376.161 84.3923 375.857 84.6354C375.614 84.8785 375.158 85 374.49 85H366.651C365.375 85 364.736 84.3619 364.736 83.0858ZM384.614 83.0858V80.0778C384.614 78.0117 385.191 76.2494 386.346 74.791L405.67 48.8126V48.448H387.349C386.072 48.448 385.434 47.7796 385.434 46.4427V40.4266C385.434 39.1505 386.072 38.5124 387.349 38.5124H417.064C418.34 38.5124 418.978 39.1505 418.978 40.4266V45.8958C418.978 47.8403 418.492 49.4203 417.52 50.6357L399.654 74.6998V75.0644H418.067C419.343 75.0644 419.981 75.7329 419.981 77.0698V83.0858C419.981 84.3619 419.343 85 418.067 85H386.528C385.252 85 384.614 84.3619 384.614 83.0858ZM462.022 85H441.878C437.077 85 433.37 83.7239 430.757 81.1716C428.144 78.6194 426.837 74.9429 426.837 70.1422V53.3702C426.837 48.5696 428.144 44.8931 430.757 42.3408C433.37 39.7886 437.077 38.5124 441.878 38.5124H449.079C453.879 38.5124 457.586 39.7886 460.199 42.3408C462.812 44.8931 464.119 48.5696 464.119 53.3702V64.9465C464.119 66.2227 463.481 66.8607 462.204 66.8607H439.325C438.596 66.8607 438.231 67.195 438.231 67.8634V69.8688C438.231 71.7526 438.626 73.1198 439.416 73.9706C440.267 74.7606 441.665 75.1556 443.609 75.1556H462.022C463.298 75.1556 463.936 75.824 463.936 77.1609V83.177C463.936 83.8454 463.784 84.3316 463.481 84.6354C463.237 84.8785 462.751 85 462.022 85ZM439.325 59.1128H451.722C452.39 59.1128 452.725 58.7786 452.725 58.1101V53.7348C452.725 51.7903 452.33 50.423 451.54 49.633C450.75 48.843 449.382 48.448 447.438 48.448H443.609C441.665 48.448 440.298 48.843 439.508 49.633C438.718 50.423 438.323 51.7903 438.323 53.7348V58.1101C438.323 58.7786 438.657 59.1128 439.325 59.1128ZM489.836 85H486.099C481.42 85 477.865 83.7239 475.434 81.1716C473.064 78.6194 471.879 74.9429 471.879 70.1422V53.3702C471.879 48.5696 473.064 44.8931 475.434 42.3408C477.865 39.7886 481.42 38.5124 486.099 38.5124H489.836C491.72 38.5124 493.513 38.9378 495.214 39.7886C496.916 40.5786 498.101 41.7939 498.769 43.4347H499.134V22.8343C499.134 21.5582 499.772 20.9201 501.048 20.9201H508.796C510.072 20.9201 510.71 21.5582 510.71 22.8343V83.0858C510.71 84.3619 510.072 85 508.796 85H501.048C499.772 85 499.134 84.3619 499.134 83.0858V80.0778H498.769C498.101 81.7185 496.916 82.9643 495.214 83.815C493.513 84.605 491.72 85 489.836 85ZM499.134 68.0457V55.4667C499.134 50.8484 497.037 48.5392 492.844 48.5392H488.742C486.798 48.5392 485.431 48.9645 484.641 49.8153C483.851 50.6053 483.456 51.9726 483.456 53.9171V69.5953C483.456 71.5399 483.851 72.9375 484.641 73.7883C485.431 74.5783 486.798 74.9733 488.742 74.9733H492.844C497.037 74.9733 499.134 72.6641 499.134 68.0457ZM530.888 71.8741V78.984C530.888 80.6247 530.189 82.5085 528.792 84.6354L522.502 93.8418C522.077 94.4494 521.5 94.7533 520.77 94.7533C519.737 94.7533 519.221 94.1456 519.221 92.9302V71.9653C519.221 70.7499 519.828 70.1422 521.044 70.1422H529.156C530.311 70.1422 530.888 70.7195 530.888 71.8741ZM12.0321 201H3.28147C2.18765 201 1.82304 200.362 2.18765 199.086L16.5897 144.303C17.0151 143.027 17.9266 142.389 19.3242 142.389H31.4475C32.9667 142.389 33.8782 143.027 34.182 144.303L48.5841 199.086C48.9487 200.362 48.5841 201 47.4902 201H38.7396C38.0712 201 37.6154 200.878 37.3724 200.635C37.1293 200.332 36.947 199.815 36.8254 199.086L34.2732 189.059H16.4985L13.9463 199.086C13.8247 199.815 13.612 200.332 13.3082 200.635C13.0651 200.878 12.6398 201 12.0321 201ZM25.2491 153.419L18.6862 179.762H32.1767L25.6137 153.419H25.2491ZM65.4144 201H57.6665C56.3904 201 55.7523 200.362 55.7523 199.086V156.427C55.7523 155.151 56.3904 154.512 57.6665 154.512H65.4144C66.6906 154.512 67.3286 155.151 67.3286 156.427V159.435H67.6932C69.0301 156.153 72.0078 154.512 76.6261 154.512H79.543C89.0836 154.512 93.8539 159.465 93.8539 169.37V199.086C93.8539 200.362 93.1854 201 91.8485 201H84.1918C82.9156 201 82.2776 200.362 82.2776 199.086V169.917C82.2776 167.973 81.8522 166.605 81.0014 165.815C80.2115 164.965 78.8442 164.539 76.8996 164.539H73.6181C69.4251 164.539 67.3286 166.848 67.3286 171.467V199.086C67.3286 200.362 66.6906 201 65.4144 201ZM125.706 201H117.593C112.793 201 109.086 199.724 106.473 197.172C103.86 194.619 102.553 190.943 102.553 186.142V169.37C102.553 164.57 103.86 160.893 106.473 158.341C109.086 155.789 112.793 154.512 117.593 154.512H125.706C130.446 154.512 134.122 155.819 136.735 158.432C139.409 160.984 140.746 164.63 140.746 169.37V186.142C140.746 190.882 139.409 194.559 136.735 197.172C134.122 199.724 130.446 201 125.706 201ZM119.325 191.064H123.974C125.919 191.064 127.286 190.669 128.076 189.879C128.927 189.089 129.352 187.722 129.352 185.778V169.735C129.352 167.79 128.927 166.423 128.076 165.633C127.286 164.843 125.919 164.448 123.974 164.448H119.325C117.381 164.448 116.013 164.843 115.223 165.633C114.433 166.423 114.038 167.79 114.038 169.735V185.778C114.038 187.722 114.433 189.089 115.223 189.879C116.013 190.669 117.381 191.064 119.325 191.064ZM159.504 201H151.756C150.48 201 149.842 200.362 149.842 199.086V156.427C149.842 155.151 150.48 154.512 151.756 154.512H159.504C160.78 154.512 161.418 155.151 161.418 156.427V159.435H161.783C163.12 156.153 166.097 154.512 170.716 154.512H173.633C183.173 154.512 187.943 159.465 187.943 169.37V199.086C187.943 200.362 187.275 201 185.938 201H178.281C177.005 201 176.367 200.362 176.367 199.086V169.917C176.367 167.973 175.942 166.605 175.091 165.815C174.301 164.965 172.934 164.539 170.989 164.539H167.708C163.515 164.539 161.418 166.848 161.418 171.467V199.086C161.418 200.362 160.78 201 159.504 201ZM205.12 216.405H199.286C198.071 216.405 197.463 215.736 197.463 214.399V208.292C197.463 206.955 198.071 206.287 199.286 206.287H201.2C205.029 206.287 207.611 205.74 208.948 204.646C210.346 203.613 211.409 201.577 212.139 198.539H207.308C206.153 198.539 205.393 197.901 205.029 196.625L194.364 156.427C193.999 155.151 194.455 154.512 195.731 154.512H203.844C205.059 154.512 205.819 155.151 206.123 156.427L213.962 190.062H214.326L222.074 156.427C222.317 155.151 223.077 154.512 224.353 154.512H232.01C233.529 154.512 234.137 155.181 233.833 156.518L222.712 201C221.375 206.044 219.309 209.872 216.514 212.485C213.719 215.098 209.921 216.405 205.12 216.405ZM250.122 201H242.374C241.098 201 240.46 200.362 240.46 199.086V156.427C240.46 155.151 241.098 154.512 242.374 154.512H250.122C251.398 154.512 252.036 155.151 252.036 156.427V159.435H252.401C253.13 157.976 254.345 156.791 256.047 155.88C257.809 154.968 259.815 154.512 262.063 154.512H264.615C269.902 154.512 273.7 156.457 276.009 160.346C278.075 156.457 281.63 154.512 286.674 154.512H289.317C293.997 154.512 297.521 155.789 299.891 158.341C302.322 160.893 303.537 164.57 303.537 169.37V199.086C303.537 200.362 302.899 201 301.623 201H293.875C292.599 201 291.961 200.362 291.961 199.086V169.917C291.961 167.973 291.566 166.605 290.776 165.815C289.986 164.965 288.619 164.539 286.674 164.539H284.395C280.202 164.539 278.106 166.879 278.106 171.558V199.086C278.106 200.362 277.437 201 276.1 201H268.444C267.167 201 266.529 200.362 266.529 199.086V169.917C266.529 167.973 266.104 166.605 265.253 165.815C264.463 164.965 263.096 164.539 261.151 164.539H258.326C254.133 164.539 252.036 166.848 252.036 171.467V199.086C252.036 200.362 251.398 201 250.122 201ZM335.427 201H327.314C322.514 201 318.807 199.724 316.194 197.172C313.581 194.619 312.274 190.943 312.274 186.142V169.37C312.274 164.57 313.581 160.893 316.194 158.341C318.807 155.789 322.514 154.512 327.314 154.512H335.427C340.167 154.512 343.843 155.819 346.456 158.432C349.13 160.984 350.467 164.63 350.467 169.37V186.142C350.467 190.882 349.13 194.559 346.456 197.172C343.843 199.724 340.167 201 335.427 201ZM329.046 191.064H333.695C335.64 191.064 337.007 190.669 337.797 189.879C338.648 189.089 339.073 187.722 339.073 185.778V169.735C339.073 167.79 338.648 166.423 337.797 165.633C337.007 164.843 335.64 164.448 333.695 164.448H329.046C327.102 164.448 325.734 164.843 324.944 165.633C324.154 166.423 323.759 167.79 323.759 169.735V185.778C323.759 187.722 324.154 189.089 324.944 189.879C325.734 190.669 327.102 191.064 329.046 191.064ZM376.335 201H373.327C368.648 201 365.093 199.724 362.662 197.172C360.292 194.619 359.107 190.943 359.107 186.142V156.427C359.107 155.151 359.745 154.512 361.021 154.512H368.769C370.045 154.512 370.683 155.151 370.683 156.427V185.595C370.683 187.54 371.078 188.938 371.868 189.788C372.719 190.578 374.086 190.973 375.97 190.973H379.343C383.536 190.973 385.632 188.664 385.632 184.046V156.427C385.632 155.151 386.27 154.512 387.547 154.512H395.203C396.54 154.512 397.209 155.151 397.209 156.427V199.086C397.209 200.362 396.54 201 395.203 201H387.547C386.27 201 385.632 200.362 385.632 199.086V196.078H385.268C384.599 197.719 383.414 198.964 381.713 199.815C380.011 200.605 378.219 201 376.335 201ZM424.868 201H407.549C406.333 201 405.726 200.362 405.726 199.086V193.252C405.726 192.584 405.847 192.128 406.09 191.885C406.333 191.581 406.82 191.429 407.549 191.429H422.771C425.749 191.429 427.238 190.518 427.238 188.694V188.239C427.238 186.78 425.992 185.383 423.5 184.046L414.476 179.032C411.377 177.452 409.098 175.751 407.64 173.928C406.181 172.105 405.452 169.765 405.452 166.909C405.452 162.655 406.576 159.526 408.825 157.52C411.073 155.515 414.598 154.512 419.399 154.512H434.621C435.836 154.512 436.444 155.151 436.444 156.427V162.352C436.444 163.02 436.322 163.506 436.079 163.81C435.836 164.053 435.35 164.175 434.621 164.175H421.951C418.973 164.175 417.484 164.934 417.484 166.453V166.909C417.484 168.246 418.791 169.613 421.404 171.011L430.61 176.48C433.77 178.182 435.988 179.944 437.264 181.767C438.54 183.529 439.179 185.869 439.179 188.786C439.179 196.929 434.408 201 424.868 201ZM482.494 190.882H486.323C488.875 190.882 490.333 189.667 490.698 187.236L480.762 175.569C479.304 175.629 478.271 176.115 477.663 177.027C477.116 177.939 476.843 179.488 476.843 181.676V185.595C476.843 187.479 477.268 188.846 478.119 189.697C479.03 190.487 480.489 190.882 482.494 190.882ZM486.323 201H480.762C475.962 201 472.255 199.724 469.642 197.172C467.029 194.619 465.722 190.973 465.722 186.233V180.947C465.722 177.908 466.512 175.234 468.092 172.925C469.733 170.555 472.012 169.188 474.929 168.823C472.559 165.724 471.374 162.169 471.374 158.159V157.156C471.374 152.477 472.771 148.861 475.567 146.309C478.423 143.696 482.282 142.389 487.143 142.389H490.151C494.952 142.389 498.659 143.665 501.272 146.218C503.885 148.77 505.191 152.416 505.191 157.156V160.255C505.191 161.592 504.553 162.26 503.277 162.26H495.529C494.253 162.26 493.615 161.592 493.615 160.255V157.338C493.615 155.454 493.25 154.117 492.521 153.327C491.792 152.477 490.637 152.051 489.057 152.051H488.328C486.566 152.051 485.29 152.477 484.5 153.327C483.71 154.117 483.315 155.454 483.315 157.338V158.523C483.315 160.893 484.652 163.597 487.325 166.636L491.609 171.558H511.845C513.121 171.558 513.759 172.226 513.759 173.563V179.762C513.759 181.038 513.121 181.676 511.845 181.676H499.995L514.853 199.359C515.157 199.724 515.248 200.088 515.127 200.453C515.005 200.818 514.732 201 514.306 201H504.553C503.095 201 502.031 200.575 501.363 199.724L497.352 194.984C496.684 197.111 495.468 198.66 493.706 199.633C492.004 200.544 489.543 201 486.323 201ZM554.221 201H546.473C545.197 201 544.559 200.362 544.559 199.086V144.303C544.559 143.027 545.197 142.389 546.473 142.389H575.551C576.766 142.389 577.374 143.027 577.374 144.303V150.502C577.374 151.778 576.766 152.416 575.551 152.416H557.229C556.5 152.416 556.135 152.75 556.135 153.419V167.547C556.135 168.276 556.5 168.641 557.229 168.641H572.816C574.092 168.641 574.73 169.279 574.73 170.555V176.662C574.73 177.999 574.092 178.668 572.816 178.668H557.229C556.5 178.668 556.135 179.002 556.135 179.67V199.086C556.135 200.362 555.497 201 554.221 201ZM601.456 201H598.448C593.768 201 590.213 199.724 587.783 197.172C585.413 194.619 584.228 190.943 584.228 186.142V156.427C584.228 155.151 584.866 154.512 586.142 154.512H593.89C595.166 154.512 595.804 155.151 595.804 156.427V185.595C595.804 187.54 596.199 188.938 596.989 189.788C597.84 190.578 599.207 190.973 601.091 190.973H604.464C608.657 190.973 610.753 188.664 610.753 184.046V156.427C610.753 155.151 611.391 154.512 612.667 154.512H620.324C621.661 154.512 622.329 155.151 622.329 156.427V199.086C622.329 200.362 621.661 201 620.324 201H612.667C611.391 201 610.753 200.362 610.753 199.086V196.078H610.388C609.72 197.719 608.535 198.964 606.834 199.815C605.132 200.605 603.339 201 601.456 201ZM642.058 201H634.31C633.034 201 632.396 200.362 632.396 199.086V156.427C632.396 155.151 633.034 154.512 634.31 154.512H642.058C643.334 154.512 643.972 155.151 643.972 156.427V159.435H644.337C645.674 156.153 648.651 154.512 653.27 154.512H656.187C665.727 154.512 670.498 159.465 670.498 169.37V199.086C670.498 200.362 669.829 201 668.492 201H660.835C659.559 201 658.921 200.362 658.921 199.086V169.917C658.921 167.973 658.496 166.605 657.645 165.815C656.855 164.965 655.488 164.539 653.543 164.539H650.262C646.069 164.539 643.972 166.848 643.972 171.467V199.086C643.972 200.362 643.334 201 642.058 201Z" fill="#5D2CFF"/>
</svg>
