<svg width="472" height="30" viewBox="0 0 472 30" fill="none" xmlns="http://www.w3.org/2000/svg">
<path opacity="0.5" d="M12.6338 13.4785H3.87402V20.041H14.1133V23H0.167969V1.67188H14.0107V4.66016H3.87402V10.5488H12.6338V13.4785ZM22.4775 12.3652L25.4951 7.15039H29.4502L24.6016 14.958L29.6113 23H25.6855L22.5215 17.5801L19.3721 23H15.417L20.4268 14.958L15.5928 7.15039H19.5186L22.4775 12.3652ZM45.7539 15.2363C45.7539 17.6875 45.1973 19.6455 44.084 21.1104C42.9707 22.5654 41.4766 23.293 39.6016 23.293C37.8633 23.293 36.4717 22.7217 35.4268 21.5791V29.0938H31.8672V7.15039H35.1484L35.2949 8.76172C36.3398 7.49219 37.7607 6.85742 39.5576 6.85742C41.4912 6.85742 43.0049 7.58008 44.0986 9.02539C45.2021 10.4609 45.7539 12.458 45.7539 15.0166V15.2363ZM42.209 14.9287C42.209 13.3467 41.8916 12.0918 41.2568 11.1641C40.6318 10.2363 39.7334 9.77246 38.5615 9.77246C37.1064 9.77246 36.0615 10.373 35.4268 11.5742V18.6055C36.0713 19.8359 37.126 20.4512 38.5908 20.4512C39.7236 20.4512 40.6074 19.9971 41.2422 19.0889C41.8867 18.1709 42.209 16.7842 42.209 14.9287ZM52.5654 23H49.0059V0.5H52.5654V23ZM55.7881 14.9287C55.7881 13.376 56.0957 11.9795 56.7109 10.7393C57.3262 9.48926 58.1904 8.53223 59.3037 7.86816C60.417 7.19434 61.6963 6.85742 63.1416 6.85742C65.2803 6.85742 67.0137 7.5459 68.3418 8.92285C69.6797 10.2998 70.4023 12.126 70.5098 14.4014L70.5244 15.2363C70.5244 16.7988 70.2217 18.1953 69.6162 19.4258C69.0205 20.6562 68.1611 21.6084 67.0381 22.2822C65.9248 22.9561 64.6357 23.293 63.1709 23.293C60.9346 23.293 59.1426 22.5508 57.7949 21.0664C56.457 19.5723 55.7881 17.585 55.7881 15.1045V14.9287ZM59.3477 15.2363C59.3477 16.8672 59.6846 18.1465 60.3584 19.0742C61.0322 19.9922 61.9697 20.4512 63.1709 20.4512C64.3721 20.4512 65.3047 19.9824 65.9688 19.0449C66.6426 18.1074 66.9795 16.7354 66.9795 14.9287C66.9795 13.3271 66.6328 12.0576 65.9395 11.1201C65.2559 10.1826 64.3232 9.71387 63.1416 9.71387C61.9795 9.71387 61.0566 10.1777 60.373 11.1055C59.6895 12.0234 59.3477 13.4004 59.3477 15.2363ZM81.833 10.4023C81.3643 10.3242 80.8809 10.2852 80.3828 10.2852C78.752 10.2852 77.6533 10.9102 77.0869 12.1602V23H73.5273V7.15039H76.9258L77.0137 8.92285C77.873 7.5459 79.0645 6.85742 80.5879 6.85742C81.0957 6.85742 81.5156 6.92578 81.8477 7.0625L81.833 10.4023ZM90.7686 23.293C88.5127 23.293 86.6816 22.585 85.2754 21.1689C83.8789 19.7432 83.1807 17.8486 83.1807 15.4854V15.0459C83.1807 13.4639 83.4834 12.0527 84.0889 10.8125C84.7041 9.5625 85.5635 8.59082 86.667 7.89746C87.7705 7.2041 89.001 6.85742 90.3584 6.85742C92.5166 6.85742 94.1816 7.5459 95.3535 8.92285C96.5352 10.2998 97.126 12.248 97.126 14.7676V16.2031H86.7695C86.877 17.5117 87.3115 18.5469 88.0732 19.3086C88.8447 20.0703 89.8115 20.4512 90.9736 20.4512C92.6045 20.4512 93.9326 19.792 94.958 18.4736L96.877 20.3047C96.2422 21.252 95.3926 21.9893 94.3281 22.5166C93.2734 23.0342 92.0869 23.293 90.7686 23.293ZM90.3438 9.71387C89.3672 9.71387 88.5762 10.0557 87.9707 10.7393C87.375 11.4229 86.9941 12.375 86.8281 13.5957H93.6104V13.332C93.5322 12.1406 93.2148 11.2422 92.6582 10.6367C92.1016 10.0215 91.3301 9.71387 90.3438 9.71387ZM121.296 18.0928L123.815 7.15039H127.287L122.966 23H120.036L116.638 12.1162L113.298 23H110.368L106.032 7.15039H109.504L112.067 17.9756L115.319 7.15039H118L121.296 18.0928ZM133.176 8.87891C134.338 7.53125 135.808 6.85742 137.585 6.85742C140.964 6.85742 142.678 8.78613 142.727 12.6436V23H139.167V12.7754C139.167 11.6816 138.928 10.9102 138.449 10.4609C137.98 10.002 137.287 9.77246 136.369 9.77246C134.943 9.77246 133.879 10.4072 133.176 11.6768V23H129.616V0.5H133.176V8.87891ZM151.882 17.9023L155.104 7.15039H158.898L152.6 25.4023C151.633 28.0684 149.992 29.4014 147.678 29.4014C147.16 29.4014 146.589 29.3135 145.964 29.1377V26.3838L146.638 26.4277C147.536 26.4277 148.21 26.2617 148.659 25.9297C149.118 25.6074 149.479 25.0605 149.743 24.2891L150.256 22.9268L144.689 7.15039H148.527L151.882 17.9023ZM174.938 20.4512C175.827 20.4512 176.564 20.1924 177.15 19.6748C177.736 19.1572 178.049 18.5176 178.088 17.7559H181.442C181.403 18.7422 181.096 19.665 180.52 20.5244C179.943 21.374 179.162 22.0479 178.176 22.5459C177.189 23.0439 176.125 23.293 174.982 23.293C172.766 23.293 171.008 22.5752 169.709 21.1396C168.41 19.7041 167.761 17.7217 167.761 15.1924V14.8262C167.761 12.4141 168.405 10.4854 169.694 9.04004C170.983 7.58496 172.741 6.85742 174.968 6.85742C176.853 6.85742 178.386 7.40918 179.567 8.5127C180.759 9.60645 181.384 11.0469 181.442 12.834H178.088C178.049 11.9258 177.736 11.1787 177.15 10.5928C176.574 10.0068 175.837 9.71387 174.938 9.71387C173.786 9.71387 172.897 10.1338 172.272 10.9736C171.647 11.8037 171.33 13.0684 171.32 14.7676V15.3389C171.32 17.0576 171.628 18.3418 172.243 19.1914C172.868 20.0312 173.767 20.4512 174.938 20.4512ZM192.429 10.4023C191.96 10.3242 191.477 10.2852 190.979 10.2852C189.348 10.2852 188.249 10.9102 187.683 12.1602V23H184.123V7.15039H187.521L187.609 8.92285C188.469 7.5459 189.66 6.85742 191.184 6.85742C191.691 6.85742 192.111 6.92578 192.443 7.0625L192.429 10.4023ZM201.364 23.293C199.108 23.293 197.277 22.585 195.871 21.1689C194.475 19.7432 193.776 17.8486 193.776 15.4854V15.0459C193.776 13.4639 194.079 12.0527 194.685 10.8125C195.3 9.5625 196.159 8.59082 197.263 7.89746C198.366 7.2041 199.597 6.85742 200.954 6.85742C203.112 6.85742 204.777 7.5459 205.949 8.92285C207.131 10.2998 207.722 12.248 207.722 14.7676V16.2031H197.365C197.473 17.5117 197.907 18.5469 198.669 19.3086C199.44 20.0703 200.407 20.4512 201.569 20.4512C203.2 20.4512 204.528 19.792 205.554 18.4736L207.473 20.3047C206.838 21.252 205.988 21.9893 204.924 22.5166C203.869 23.0342 202.683 23.293 201.364 23.293ZM200.939 9.71387C199.963 9.71387 199.172 10.0557 198.566 10.7393C197.971 11.4229 197.59 12.375 197.424 13.5957H204.206V13.332C204.128 12.1406 203.811 11.2422 203.254 10.6367C202.697 10.0215 201.926 9.71387 200.939 9.71387ZM219.968 23C219.812 22.6973 219.675 22.2041 219.558 21.5205C218.425 22.7021 217.038 23.293 215.397 23.293C213.806 23.293 212.507 22.8389 211.501 21.9307C210.495 21.0225 209.992 19.8994 209.992 18.5615C209.992 16.8721 210.617 15.5781 211.867 14.6797C213.127 13.7715 214.924 13.3174 217.258 13.3174H219.44V12.2773C219.44 11.457 219.211 10.8027 218.752 10.3145C218.293 9.81641 217.595 9.56738 216.657 9.56738C215.847 9.56738 215.183 9.77246 214.665 10.1826C214.147 10.583 213.889 11.0957 213.889 11.7207H210.329C210.329 10.8516 210.617 10.041 211.193 9.28906C211.77 8.52734 212.551 7.93164 213.537 7.50195C214.533 7.07227 215.642 6.85742 216.862 6.85742C218.718 6.85742 220.197 7.32617 221.301 8.26367C222.404 9.19141 222.971 10.5 223 12.1895V19.3379C223 20.7637 223.2 21.9014 223.601 22.751V23H219.968ZM216.057 20.4365C216.76 20.4365 217.419 20.2656 218.034 19.9238C218.659 19.582 219.128 19.123 219.44 18.5469V15.5586H217.521C216.203 15.5586 215.212 15.7881 214.548 16.2471C213.884 16.7061 213.552 17.3555 213.552 18.1953C213.552 18.8789 213.776 19.4258 214.226 19.8359C214.685 20.2363 215.295 20.4365 216.057 20.4365ZM231.188 3.29785V7.15039H233.986V9.78711H231.188V18.6348C231.188 19.2402 231.306 19.6797 231.54 19.9531C231.784 20.2168 232.214 20.3486 232.829 20.3486C233.239 20.3486 233.654 20.2998 234.074 20.2021V22.9561C233.264 23.1807 232.482 23.293 231.73 23.293C228.996 23.293 227.629 21.7842 227.629 18.7666V9.78711H225.021V7.15039H227.629V3.29785H231.188ZM235.612 14.9287C235.612 13.376 235.92 11.9795 236.535 10.7393C237.15 9.48926 238.015 8.53223 239.128 7.86816C240.241 7.19434 241.521 6.85742 242.966 6.85742C245.104 6.85742 246.838 7.5459 248.166 8.92285C249.504 10.2998 250.227 12.126 250.334 14.4014L250.349 15.2363C250.349 16.7988 250.046 18.1953 249.44 19.4258C248.845 20.6562 247.985 21.6084 246.862 22.2822C245.749 22.9561 244.46 23.293 242.995 23.293C240.759 23.293 238.967 22.5508 237.619 21.0664C236.281 19.5723 235.612 17.585 235.612 15.1045V14.9287ZM239.172 15.2363C239.172 16.8672 239.509 18.1465 240.183 19.0742C240.856 19.9922 241.794 20.4512 242.995 20.4512C244.196 20.4512 245.129 19.9824 245.793 19.0449C246.467 18.1074 246.804 16.7354 246.804 14.9287C246.804 13.3271 246.457 12.0576 245.764 11.1201C245.08 10.1826 244.147 9.71387 242.966 9.71387C241.804 9.71387 240.881 10.1777 240.197 11.1055C239.514 12.0234 239.172 13.4004 239.172 15.2363ZM261.657 10.4023C261.188 10.3242 260.705 10.2852 260.207 10.2852C258.576 10.2852 257.478 10.9102 256.911 12.1602V23H253.352V7.15039H256.75L256.838 8.92285C257.697 7.5459 258.889 6.85742 260.412 6.85742C260.92 6.85742 261.34 6.92578 261.672 7.0625L261.657 10.4023ZM272.79 18.6934C272.79 18.0586 272.526 17.5752 271.999 17.2432C271.481 16.9111 270.617 16.6182 269.406 16.3643C268.195 16.1104 267.185 15.7881 266.374 15.3975C264.597 14.5381 263.708 13.293 263.708 11.6621C263.708 10.2949 264.284 9.15234 265.437 8.23438C266.589 7.31641 268.054 6.85742 269.831 6.85742C271.726 6.85742 273.254 7.32617 274.416 8.26367C275.588 9.20117 276.174 10.417 276.174 11.9111H272.614C272.614 11.2275 272.36 10.6611 271.853 10.2119C271.345 9.75293 270.671 9.52344 269.831 9.52344C269.05 9.52344 268.41 9.7041 267.912 10.0654C267.424 10.4268 267.18 10.9102 267.18 11.5156C267.18 12.0625 267.409 12.4873 267.868 12.79C268.327 13.0928 269.255 13.4004 270.651 13.7129C272.048 14.0156 273.142 14.3818 273.933 14.8115C274.733 15.2314 275.324 15.7393 275.705 16.335C276.096 16.9307 276.291 17.6533 276.291 18.5029C276.291 19.9287 275.7 21.0859 274.519 21.9746C273.337 22.8535 271.789 23.293 269.875 23.293C268.576 23.293 267.419 23.0586 266.403 22.5898C265.388 22.1211 264.597 21.4766 264.03 20.6562C263.464 19.8359 263.181 18.9521 263.181 18.0049H266.638C266.687 18.8447 267.004 19.4941 267.59 19.9531C268.176 20.4023 268.952 20.627 269.919 20.627C270.856 20.627 271.569 20.4512 272.058 20.0996C272.546 19.7383 272.79 19.2695 272.79 18.6934ZM286.311 17.2432C286.311 16.2568 286.579 15.3535 287.116 14.5332C287.653 13.7031 288.713 12.7217 290.295 11.5889C289.465 10.5439 288.884 9.65527 288.552 8.92285C288.229 8.19043 288.068 7.48242 288.068 6.79883C288.068 5.12891 288.576 3.81055 289.592 2.84375C290.607 1.86719 291.975 1.37891 293.693 1.37891C295.246 1.37891 296.516 1.83789 297.502 2.75586C298.498 3.66406 298.996 4.79199 298.996 6.13965C298.996 7.02832 298.771 7.84863 298.322 8.60059C297.873 9.34277 297.136 10.085 296.11 10.8271L294.66 11.8818L298.776 16.7451C299.372 15.5732 299.67 14.2695 299.67 12.834H302.761C302.761 15.4609 302.146 17.6143 300.915 19.2939L304.05 23H299.919L298.718 21.5791C297.194 22.7217 295.378 23.293 293.269 23.293C291.159 23.293 289.47 22.7363 288.2 21.623C286.94 20.5 286.311 19.04 286.311 17.2432ZM293.371 20.4512C294.572 20.4512 295.695 20.0508 296.74 19.25L292.082 13.7568L291.628 14.0791C290.456 14.9678 289.87 15.9834 289.87 17.126C289.87 18.1123 290.188 18.9131 290.822 19.5283C291.457 20.1436 292.307 20.4512 293.371 20.4512ZM291.408 6.71094C291.408 7.53125 291.911 8.56152 292.917 9.80176L294.543 8.68848L294.997 8.32227C295.603 7.78516 295.905 7.09668 295.905 6.25684C295.905 5.7002 295.695 5.22656 295.275 4.83594C294.855 4.43555 294.323 4.23535 293.679 4.23535C292.985 4.23535 292.434 4.46973 292.023 4.93848C291.613 5.40723 291.408 5.99805 291.408 6.71094ZM314.787 23V9.78711H312.37V7.15039H314.787V5.7002C314.787 3.94238 315.275 2.58496 316.252 1.62793C317.229 0.670898 318.596 0.192383 320.354 0.192383C320.979 0.192383 321.643 0.280273 322.346 0.456055L322.258 3.23926C321.867 3.16113 321.413 3.12207 320.896 3.12207C319.196 3.12207 318.347 3.99609 318.347 5.74414V7.15039H321.569V9.78711H318.347V23H314.787ZM333.64 23C333.483 22.6973 333.347 22.2041 333.229 21.5205C332.097 22.7021 330.71 23.293 329.069 23.293C327.478 23.293 326.179 22.8389 325.173 21.9307C324.167 21.0225 323.664 19.8994 323.664 18.5615C323.664 16.8721 324.289 15.5781 325.539 14.6797C326.799 13.7715 328.596 13.3174 330.93 13.3174H333.112V12.2773C333.112 11.457 332.883 10.8027 332.424 10.3145C331.965 9.81641 331.267 9.56738 330.329 9.56738C329.519 9.56738 328.854 9.77246 328.337 10.1826C327.819 10.583 327.561 11.0957 327.561 11.7207H324.001C324.001 10.8516 324.289 10.041 324.865 9.28906C325.441 8.52734 326.223 7.93164 327.209 7.50195C328.205 7.07227 329.313 6.85742 330.534 6.85742C332.39 6.85742 333.869 7.32617 334.973 8.26367C336.076 9.19141 336.643 10.5 336.672 12.1895V19.3379C336.672 20.7637 336.872 21.9014 337.272 22.751V23H333.64ZM329.729 20.4365C330.432 20.4365 331.091 20.2656 331.706 19.9238C332.331 19.582 332.8 19.123 333.112 18.5469V15.5586H331.193C329.875 15.5586 328.884 15.7881 328.22 16.2471C327.556 16.7061 327.224 17.3555 327.224 18.1953C327.224 18.8789 327.448 19.4258 327.897 19.8359C328.356 20.2363 328.967 20.4365 329.729 20.4365ZM343.703 7.15039L343.806 8.98145C344.978 7.56543 346.516 6.85742 348.42 6.85742C351.721 6.85742 353.4 8.74707 353.459 12.5264V23H349.899V12.7314C349.899 11.7256 349.68 10.9834 349.24 10.5049C348.811 10.0166 348.103 9.77246 347.116 9.77246C345.681 9.77246 344.611 10.4219 343.908 11.7207V23H340.349V7.15039H343.703ZM365.983 18.6934C365.983 18.0586 365.72 17.5752 365.192 17.2432C364.675 16.9111 363.811 16.6182 362.6 16.3643C361.389 16.1104 360.378 15.7881 359.567 15.3975C357.79 14.5381 356.901 13.293 356.901 11.6621C356.901 10.2949 357.478 9.15234 358.63 8.23438C359.782 7.31641 361.247 6.85742 363.024 6.85742C364.919 6.85742 366.447 7.32617 367.609 8.26367C368.781 9.20117 369.367 10.417 369.367 11.9111H365.808C365.808 11.2275 365.554 10.6611 365.046 10.2119C364.538 9.75293 363.864 9.52344 363.024 9.52344C362.243 9.52344 361.604 9.7041 361.105 10.0654C360.617 10.4268 360.373 10.9102 360.373 11.5156C360.373 12.0625 360.603 12.4873 361.062 12.79C361.521 13.0928 362.448 13.4004 363.845 13.7129C365.241 14.0156 366.335 14.3818 367.126 14.8115C367.927 15.2314 368.518 15.7393 368.898 16.335C369.289 16.9307 369.484 17.6533 369.484 18.5029C369.484 19.9287 368.894 21.0859 367.712 21.9746C366.53 22.8535 364.982 23.293 363.068 23.293C361.77 23.293 360.612 23.0586 359.597 22.5898C358.581 22.1211 357.79 21.4766 357.224 20.6562C356.657 19.8359 356.374 18.9521 356.374 18.0049H359.831C359.88 18.8447 360.197 19.4941 360.783 19.9531C361.369 20.4023 362.146 20.627 363.112 20.627C364.05 20.627 364.763 20.4512 365.251 20.0996C365.739 19.7383 365.983 19.2695 365.983 18.6934ZM383.854 23H380.295V0.5H383.854V23ZM387.077 14.9287C387.077 13.376 387.385 11.9795 388 10.7393C388.615 9.48926 389.479 8.53223 390.593 7.86816C391.706 7.19434 392.985 6.85742 394.431 6.85742C396.569 6.85742 398.303 7.5459 399.631 8.92285C400.969 10.2998 401.691 12.126 401.799 14.4014L401.813 15.2363C401.813 16.7988 401.511 18.1953 400.905 19.4258C400.31 20.6562 399.45 21.6084 398.327 22.2822C397.214 22.9561 395.925 23.293 394.46 23.293C392.224 23.293 390.432 22.5508 389.084 21.0664C387.746 19.5723 387.077 17.585 387.077 15.1045V14.9287ZM390.637 15.2363C390.637 16.8672 390.974 18.1465 391.647 19.0742C392.321 19.9922 393.259 20.4512 394.46 20.4512C395.661 20.4512 396.594 19.9824 397.258 19.0449C397.932 18.1074 398.269 16.7354 398.269 14.9287C398.269 13.3271 397.922 12.0576 397.229 11.1201C396.545 10.1826 395.612 9.71387 394.431 9.71387C393.269 9.71387 392.346 10.1777 391.662 11.1055C390.979 12.0234 390.637 13.4004 390.637 15.2363ZM410.178 18.4883L413.532 7.15039H417.209L411.716 23H408.625L403.088 7.15039H406.779L410.178 18.4883ZM426.218 23.293C423.962 23.293 422.131 22.585 420.725 21.1689C419.328 19.7432 418.63 17.8486 418.63 15.4854V15.0459C418.63 13.4639 418.933 12.0527 419.538 10.8125C420.153 9.5625 421.013 8.59082 422.116 7.89746C423.22 7.2041 424.45 6.85742 425.808 6.85742C427.966 6.85742 429.631 7.5459 430.803 8.92285C431.984 10.2998 432.575 12.248 432.575 14.7676V16.2031H422.219C422.326 17.5117 422.761 18.5469 423.522 19.3086C424.294 20.0703 425.261 20.4512 426.423 20.4512C428.054 20.4512 429.382 19.792 430.407 18.4736L432.326 20.3047C431.691 21.252 430.842 21.9893 429.777 22.5166C428.723 23.0342 427.536 23.293 426.218 23.293ZM425.793 9.71387C424.816 9.71387 424.025 10.0557 423.42 10.7393C422.824 11.4229 422.443 12.375 422.277 13.5957H429.06V13.332C428.981 12.1406 428.664 11.2422 428.107 10.6367C427.551 10.0215 426.779 9.71387 425.793 9.71387ZM452.424 21.4473C451.379 22.6777 449.895 23.293 447.971 23.293C446.252 23.293 444.948 22.79 444.06 21.7842C443.181 20.7783 442.741 19.3232 442.741 17.4189V7.15039H446.301V17.375C446.301 19.3867 447.136 20.3926 448.806 20.3926C450.534 20.3926 451.701 19.7725 452.307 18.5322V7.15039H455.866V23H452.512L452.424 21.4473ZM468.376 18.6934C468.376 18.0586 468.112 17.5752 467.585 17.2432C467.067 16.9111 466.203 16.6182 464.992 16.3643C463.781 16.1104 462.771 15.7881 461.96 15.3975C460.183 14.5381 459.294 13.293 459.294 11.6621C459.294 10.2949 459.87 9.15234 461.022 8.23438C462.175 7.31641 463.64 6.85742 465.417 6.85742C467.312 6.85742 468.84 7.32617 470.002 8.26367C471.174 9.20117 471.76 10.417 471.76 11.9111H468.2C468.2 11.2275 467.946 10.6611 467.438 10.2119C466.931 9.75293 466.257 9.52344 465.417 9.52344C464.636 9.52344 463.996 9.7041 463.498 10.0654C463.01 10.4268 462.766 10.9102 462.766 11.5156C462.766 12.0625 462.995 12.4873 463.454 12.79C463.913 13.0928 464.841 13.4004 466.237 13.7129C467.634 14.0156 468.728 14.3818 469.519 14.8115C470.319 15.2314 470.91 15.7393 471.291 16.335C471.682 16.9307 471.877 17.6533 471.877 18.5029C471.877 19.9287 471.286 21.0859 470.104 21.9746C468.923 22.8535 467.375 23.293 465.461 23.293C464.162 23.293 463.005 23.0586 461.989 22.5898C460.974 22.1211 460.183 21.4766 459.616 20.6562C459.05 19.8359 458.767 18.9521 458.767 18.0049H462.224C462.272 18.8447 462.59 19.4941 463.176 19.9531C463.762 20.4023 464.538 20.627 465.505 20.627C466.442 20.627 467.155 20.4512 467.644 20.0996C468.132 19.7383 468.376 19.2695 468.376 18.6934Z" fill="#5D2CFF"/>
</svg>
