<svg width="135" height="130" viewBox="0 0 135 130" fill="none" xmlns="http://www.w3.org/2000/svg">
<path d="M84.1938 115.275V104.558H51.04V115.275C51.0365 118.772 49.7943 122.166 47.5143 124.908L46.0669 126.698H89.1545L87.7071 124.955C85.4201 122.199 84.1816 118.787 84.1938 115.275Z" fill="white" stroke="#263238" stroke-linecap="round" stroke-linejoin="round"/>
<g style="mix-blend-mode:multiply">
<path d="M48.9741 122.777H86.1979C84.867 120.479 84.1691 117.899 84.1691 115.275V104.558H51.0153V115.275C51.011 117.9 50.3088 120.48 48.9741 122.777Z" fill="#92E3A9"/>
</g>
<path d="M84.1939 106.172H51.04V110.694H84.1939V106.172Z" fill="#263238" stroke="#263238" stroke-width="1.09543" stroke-linecap="round" stroke-linejoin="round"/>
<path d="M122.741 12.8069H12.4925C6.14537 12.8069 1 17.7051 1 23.7474V96.9978C1 103.04 6.14537 107.938 12.4925 107.938H122.741C129.088 107.938 134.234 103.04 134.234 96.9978V23.7474C134.234 17.7051 129.088 12.8069 122.741 12.8069Z" fill="#263238" stroke="#263238" stroke-width="1.09543" stroke-linecap="round" stroke-linejoin="round"/>
<path d="M1 93.1469H134.234V96.986C134.234 98.4227 133.937 99.8454 133.359 101.173C132.781 102.5 131.935 103.706 130.868 104.722C129.801 105.738 128.534 106.544 127.139 107.094C125.745 107.643 124.251 107.926 122.741 107.926H12.4925C10.9833 107.926 9.48884 107.643 8.09451 107.094C6.70017 106.544 5.43325 105.738 4.36607 104.722C3.2989 103.706 2.45237 102.5 1.87482 101.173C1.29726 99.8454 1 98.4227 1 96.986V93.1469Z" fill="white" stroke="#263238" stroke-linecap="round" stroke-linejoin="round"/>
<path d="M127.529 18.7307H7.69263V85.9397H127.529V18.7307Z" fill="#92E3A9" stroke="#263238" stroke-width="1.09543" stroke-linecap="round" stroke-linejoin="round"/>
<path d="M70.0663 100.543C70.0663 100.077 69.9211 99.6214 69.6493 99.234C69.3774 98.8467 68.991 98.5448 68.5389 98.3665C68.0868 98.1883 67.5893 98.1416 67.1094 98.2325C66.6295 98.3234 66.1886 98.5477 65.8426 98.8771C65.4966 99.2065 65.2609 99.6262 65.1655 100.083C65.07 100.54 65.119 101.014 65.3063 101.444C65.4935 101.874 65.8106 102.242 66.2175 102.501C66.6244 102.76 67.1027 102.898 67.5921 102.898C68.2483 102.898 68.8776 102.65 69.3416 102.208C69.8056 101.766 70.0663 101.167 70.0663 100.543Z" fill="#263238" stroke="#263238" stroke-width="1.09543" stroke-linecap="round" stroke-linejoin="round"/>
<path d="M89.1669 126.651H46.0669V128.559H89.1669V126.651Z" fill="white" stroke="#263238" stroke-linecap="round" stroke-linejoin="round"/>
<path d="M109.467 85.6451L96.3048 58.9829H36.8754L25.754 85.6451H109.467Z" fill="white" stroke="#263238" stroke-linecap="round" stroke-linejoin="round"/>
<path d="M96.3048 85.6452V58.9829L77.0558 46.4291L66.4787 43.5203L55.9017 46.4291L36.8754 58.9829V85.6452H96.3048Z" fill="white" stroke="#263238" stroke-linecap="round" stroke-linejoin="round"/>
<path d="M60.1078 41.1885C60.1078 41.1885 55.877 42.3661 55.0234 43.2023C54.1698 44.0384 53.5389 48.2427 52.6977 50.4566C51.8565 52.6706 49.0978 56.498 49.9513 56.6982C50.8049 56.8985 57.9924 53.4715 57.9924 53.4715L66.2437 62.3746L74.0745 53.0711C74.0745 53.0711 80.2599 57.5108 80.631 56.8984C81.0021 56.2861 77.8847 49.0435 77.6744 46.0169C77.4641 42.9903 72.8003 41.9893 70.0539 41.7891C67.3076 41.5889 60.1078 41.1885 60.1078 41.1885Z" fill="white" stroke="#263238" stroke-linecap="round" stroke-linejoin="round"/>
<path d="M58.3141 36.313V48.0896L66.0335 61.6209L73.3941 47.9247V35.6182L58.3141 36.313Z" fill="white" stroke="#263238" stroke-linecap="round" stroke-linejoin="round"/>
<path d="M55.0605 23.0645C55.0605 23.0645 51.9431 17.7886 50.2112 20.7092C48.4792 23.6298 50.9039 29.9538 51.9431 31.6026C52.9822 33.2513 54.7141 30.6133 54.7141 30.6133" fill="white"/>
<path d="M55.0605 23.0645C55.0605 23.0645 51.9431 17.7886 50.2112 20.7092C48.4792 23.6298 50.9039 29.9538 51.9431 31.6026C52.9822 33.2513 54.7141 30.6133 54.7141 30.6133" stroke="#263238" stroke-linecap="round" stroke-linejoin="round"/>
<path d="M77.427 23.0645C77.427 23.0645 80.5444 17.7886 82.2764 20.7092C84.0083 23.6298 81.5836 29.9538 80.5445 31.6026C79.5053 33.2513 77.7734 30.6133 77.7734 30.6133" fill="white"/>
<path d="M77.427 23.0645C77.427 23.0645 80.5444 17.7886 82.2764 20.7092C84.0083 23.6298 81.5836 29.9538 80.5445 31.6026C79.5053 33.2513 77.7734 30.6133 77.7734 30.6133" stroke="#263238" stroke-linecap="round" stroke-linejoin="round"/>
<path d="M78.9856 22.0162C78.9856 31.308 73.2455 44.1327 66.157 44.1327C59.0686 44.1327 53.3285 31.308 53.3285 22.0162C53.3285 12.7245 59.0686 5.1875 66.157 5.1875C73.2455 5.1875 78.9856 12.7245 78.9856 22.0162Z" fill="white" stroke="#263238" stroke-linecap="round" stroke-linejoin="round"/>
<path d="M76.2641 17.3527C76.2641 17.3527 75.3611 19.708 76.4373 20.7679C77.5136 21.8278 77.3404 23.3234 77.1548 25.3726C76.9693 27.4217 77.5136 28.6229 78.2311 27.9398C78.9486 27.2568 79.6661 17.6942 79.6661 17.0112C79.6661 16.3281 76.2641 17.3527 76.2641 17.3527Z" fill="#263238" stroke="#263238" stroke-linecap="round" stroke-linejoin="round"/>
<path d="M53.477 20.5912L53.8357 25.8907C53.9769 25.9384 54.1267 25.9585 54.2762 25.9497C54.4258 25.941 54.5719 25.9036 54.7059 25.8398C54.8398 25.776 54.9589 25.6872 55.056 25.5786C55.1531 25.4699 55.2261 25.3438 55.2707 25.2077C55.6295 24.1831 54.7264 20.9328 55.6295 19.2252C56.5326 17.5176 59.9345 16.6697 60.1077 15.4684C60.2809 14.2672 58.314 12.0532 58.314 11.2053C58.314 10.3574 58.8583 9.49769 63.3365 13.5606C67.8148 17.6235 76.0785 18.5068 80.3835 17.4822C84.6886 16.4577 79.4928 10.3103 78.4166 8.9442C77.3403 7.57811 81.2866 8.60269 79.1341 5.18748C76.9815 1.77227 69.4353 -0.453511 61.9015 2.11379C54.3677 4.68108 50.0626 8.26116 51.1389 11.853C52.2151 15.4449 53.477 20.5912 53.477 20.5912Z" fill="#263238" stroke="#263238" stroke-linecap="round" stroke-linejoin="round"/>
</svg>
