<svg width="135" height="130" viewBox="0 0 135 130" fill="none" xmlns="http://www.w3.org/2000/svg">
<path d="M84.1938 115.936V105.231H51.04V115.936C51.0429 119.433 49.8048 122.827 47.5266 125.57L46.0669 127.324H89.1669L87.7195 125.57C85.4325 122.831 84.1895 119.435 84.1938 115.936Z" fill="white" stroke="#263238" stroke-linecap="round" stroke-linejoin="round"/>
<g style="mix-blend-mode:multiply">
<path d="M49.0112 123.45H86.235C84.8932 121.152 84.1906 118.566 84.1938 115.936V105.231H51.04V115.936C51.0417 118.564 50.3436 121.149 49.0112 123.45Z" fill="#92E3A9"/>
</g>
<path d="M84.1937 106.845H51.0399V111.367H84.1937V106.845Z" fill="#263238" stroke="#263238" stroke-width="1.09543" stroke-linecap="round" stroke-linejoin="round"/>
<path d="M122.741 13.4797H12.4925C6.14538 13.4797 1 18.378 1 24.4202V97.6706C1 103.713 6.14538 108.611 12.4925 108.611H122.741C129.088 108.611 134.234 103.713 134.234 97.6706V24.4202C134.234 18.378 129.088 13.4797 122.741 13.4797Z" fill="#263238" stroke="#263238" stroke-width="1.09543" stroke-linecap="round" stroke-linejoin="round"/>
<path d="M1 93.8198H134.234V97.7179C134.234 99.1546 133.937 100.577 133.359 101.905C132.781 103.232 131.935 104.438 130.868 105.454C129.801 106.47 128.534 107.276 127.139 107.826C125.745 108.375 124.251 108.658 122.741 108.658H12.4925C10.9833 108.658 9.48885 108.375 8.09452 107.826C6.70018 107.276 5.43325 106.47 4.36607 105.454C3.2989 104.438 2.45238 103.232 1.87483 101.905C1.29727 100.577 1 99.1546 1 97.7179V93.8787V93.8198Z" fill="white" stroke="#263238" stroke-linecap="round" stroke-linejoin="round"/>
<path d="M127.541 19.3914H7.70496V86.6004H127.541V19.3914Z" fill="#92E3A9" stroke="#263238" stroke-width="1.09543" stroke-linecap="round" stroke-linejoin="round"/>
<path d="M70.0787 101.251C70.0787 100.785 69.9336 100.329 69.6618 99.942C69.3899 99.5547 69.0035 99.2528 68.5514 99.0746C68.0993 98.8963 67.6018 98.8496 67.1219 98.9405C66.6419 99.0314 66.2011 99.2557 65.855 99.5851C65.509 99.9145 65.2734 100.334 65.1779 100.791C65.0824 101.248 65.1314 101.722 65.3187 102.152C65.506 102.582 65.8231 102.95 66.23 103.209C66.6368 103.468 67.1152 103.606 67.6045 103.606C68.2607 103.606 68.89 103.358 69.354 102.916C69.818 102.474 70.0787 101.875 70.0787 101.251Z" fill="#263238" stroke="#263238" stroke-width="1.09543" stroke-linecap="round" stroke-linejoin="round"/>
<path d="M89.1669 127.324H46.0669V129.232H89.1669V127.324Z" fill="white" stroke="#263238" stroke-linecap="round" stroke-linejoin="round"/>
<path d="M52.4255 18.3318C52.4255 18.3318 46.5988 16.789 42.3804 19.8745C38.1619 22.96 37.8526 30.9681 40.4382 34.9839C43.0237 38.9997 46.6236 41.4492 42.0587 44.2285C37.4939 47.0078 34.2899 48.8567 34.9331 53.7793C35.5764 58.7019 40.4381 65.1909 48.207 65.497C55.9759 65.8032 65.3777 59.3379 65.3777 52.2484C65.3777 45.1589 59.8727 40.5307 61.8149 36.5266C63.7572 32.5226 69.5838 27.2702 65.0561 21.7234C60.5284 16.1766 52.4255 18.3318 52.4255 18.3318Z" fill="#263238" stroke="#263238" stroke-linecap="round" stroke-linejoin="round"/>
<path d="M109.48 85.5762L96.3171 58.9258H36.8877L25.7539 85.5762H109.48Z" fill="white" stroke="#263238" stroke-linecap="round" stroke-linejoin="round"/>
<path d="M87.2864 85.576L96.3172 58.9256L66.4911 43.4629L36.8877 58.9256L43.9143 85.576H87.2864Z" fill="white" stroke="#263238" stroke-linecap="round" stroke-linejoin="round"/>
<path d="M61.382 46.1246L52.9079 50.6115C51.3492 54.6273 49.9513 60.7865 54.145 64.3195C56.7429 66.557 66.7633 59.3969 66.7633 59.3969C66.7633 59.3969 73.8889 66.7926 79.7155 64.3195C83.8474 62.5766 81.967 55.593 79.4805 50.1876L70.2395 45.4062L61.382 46.1246Z" fill="white" stroke="#263238" stroke-linecap="round" stroke-linejoin="round"/>
<path d="M58.3263 36.2438V48.0204L61.4809 56.7822C61.7967 57.6696 62.3985 58.4395 63.2008 58.9823C64.003 59.525 64.9647 59.813 65.9488 59.8052C66.933 59.7974 67.8895 59.4941 68.682 58.9387C69.4746 58.3832 70.0629 57.6038 70.3631 56.7115L73.394 47.8438V35.5608L58.3263 36.2438Z" fill="white" stroke="#263238" stroke-linecap="round" stroke-linejoin="round"/>
<path d="M55.0729 22.9479C55.0729 22.9479 51.9431 17.6602 50.2112 20.5926C48.4792 23.5249 50.9039 29.8372 51.9431 31.4859C52.9822 33.1346 54.7265 30.4967 54.7265 30.4967" fill="white"/>
<path d="M55.0729 22.9479C55.0729 22.9479 51.9431 17.6602 50.2112 20.5926C48.4792 23.5249 50.9039 29.8372 51.9431 31.4859C52.9822 33.1346 54.7265 30.4967 54.7265 30.4967" stroke="#263238" stroke-linecap="round" stroke-linejoin="round"/>
<path d="M77.4144 22.9479C77.4144 22.9479 80.5442 17.6602 82.2762 20.5926C84.0081 23.5249 81.5834 29.8372 80.5442 31.4859C79.5051 33.1346 77.7608 30.4967 77.7608 30.4967" fill="white"/>
<path d="M77.4144 22.9479C77.4144 22.9479 80.5442 17.6602 82.2762 20.5926C84.0081 23.5249 81.5834 29.8372 80.5442 31.4859C79.5051 33.1346 77.7608 30.4967 77.7608 30.4967" stroke="#263238" stroke-linecap="round" stroke-linejoin="round"/>
<path d="M78.9858 21.959C78.9858 31.2507 73.2458 44.0636 66.1573 44.0636C59.0688 44.0636 53.3287 31.2507 53.3287 21.959C53.3287 12.6672 59.0812 5.11841 66.1573 5.11841C73.2334 5.11841 78.9858 12.6554 78.9858 21.959Z" fill="white" stroke="#263238" stroke-linecap="round" stroke-linejoin="round"/>
<path d="M61.1963 14.6339C61.1963 14.6339 63.7942 9.08714 68.0002 14.6339C72.2063 20.1807 70.2641 24.1965 73.8269 25.4212C74.7405 25.8062 75.7699 25.8619 76.7234 25.5781C77.677 25.2943 78.4897 24.6903 79.0103 23.8785C79.0103 23.8785 89.0554 17.4132 79.0103 6.93201C77.0496 4.90464 74.6352 3.32283 71.9457 2.3036C69.2562 1.28437 66.3604 0.853791 63.4725 1.04371C58.2891 1.36168 57.6459 7.52084 57.6459 7.52084C57.6459 7.52084 53.7491 6.60227 52.1408 10.9125C50.5326 15.2227 53.7491 27.2466 53.7491 24.1729C53.7491 21.0992 57.9675 11.5484 61.1963 14.6339Z" fill="#263238" stroke="#263238" stroke-linecap="round" stroke-linejoin="round"/>
</svg>
