<svg width="135" height="130" viewBox="0 0 135 130" fill="none" xmlns="http://www.w3.org/2000/svg">
<path d="M84.1938 115.865V105.148H51.04V115.865C51.0423 119.363 49.7995 122.758 47.5143 125.498L46.0669 127.288H89.1669L87.7071 125.545C85.4201 122.789 84.1816 119.377 84.1938 115.865Z" fill="white" stroke="#263238" stroke-linecap="round" stroke-linejoin="round"/>
<g style="mix-blend-mode:multiply">
<path d="M48.9988 123.366H86.2226C84.8917 121.069 84.1937 118.488 84.1938 115.865V105.148H51.04V115.865C51.0417 118.49 50.3391 121.072 48.9988 123.366Z" fill="#92E3A9"/>
</g>
<path d="M84.1938 106.761H51.04V111.283H84.1938V106.761Z" fill="#263238" stroke="#263238" stroke-width="1.09543" stroke-linecap="round" stroke-linejoin="round"/>
<path d="M122.741 13.3967H12.4925C6.14538 13.3967 1 18.2949 1 24.3372V97.5876C1 103.63 6.14538 108.528 12.4925 108.528H122.741C129.088 108.528 134.234 103.63 134.234 97.5876V24.3372C134.234 18.2949 129.088 13.3967 122.741 13.3967Z" fill="#263238" stroke="#263238" stroke-width="1.09543" stroke-linecap="round" stroke-linejoin="round"/>
<path d="M1 93.7366H134.234V97.5757C134.234 99.0124 133.937 100.435 133.359 101.762C132.781 103.09 131.935 104.296 130.868 105.312C129.801 106.328 128.534 107.134 127.139 107.683C125.745 108.233 124.251 108.516 122.741 108.516H12.4925C10.9833 108.516 9.48883 108.233 8.0945 107.683C6.70017 107.134 5.43325 106.328 4.36607 105.312C3.2989 104.296 2.45236 103.09 1.87481 101.762C1.29726 100.435 1 99.0124 1 97.5757V93.7366Z" fill="white" stroke="#263238" stroke-linecap="round" stroke-linejoin="round"/>
<path d="M127.529 19.3203H7.69263V86.5293H127.529V19.3203Z" fill="#92E3A9" stroke="#263238" stroke-width="1.09543" stroke-linecap="round" stroke-linejoin="round"/>
<path d="M70.0664 101.132C70.0664 100.666 69.9213 100.211 69.6494 99.8236C69.3775 99.4363 68.9911 99.1344 68.539 98.9561C68.0869 98.7779 67.5895 98.7312 67.1095 98.8221C66.6296 98.913 66.1887 99.1373 65.8427 99.4667C65.4967 99.7961 65.2611 100.216 65.1656 100.673C65.0701 101.13 65.1191 101.603 65.3064 102.034C65.4936 102.464 65.8108 102.832 66.2176 103.091C66.6245 103.349 67.1029 103.488 67.5922 103.488C68.2484 103.488 68.8777 103.239 69.3417 102.798C69.8057 102.356 70.0664 101.757 70.0664 101.132Z" fill="#263238" stroke="#263238" stroke-width="1.09543" stroke-linecap="round" stroke-linejoin="round"/>
<path d="M89.1669 127.241H46.0669V129.149H89.1669V127.241Z" fill="white" stroke="#263238" stroke-linecap="round" stroke-linejoin="round"/>
<path d="M109.245 86.0464L96.3049 59.8552H36.8754L25.952 86.0464H109.245Z" fill="white" stroke="#263238" stroke-linecap="round" stroke-linejoin="round"/>
<path d="M96.3048 86.0466V59.8555L73.2951 47.2899L66.4787 44.3928L58.8089 47.2899L36.8754 59.8555V86.0466H96.3048Z" fill="white" stroke="#263238" stroke-linecap="round" stroke-linejoin="round"/>
<path d="M61.1222 63.6943L65.1798 69.771L63.151 85.7754H70.4003L66.9241 69.771L71.5632 63.4234L65.4767 56.7932L61.1222 63.6943Z" fill="#263238" stroke="#263238" stroke-linecap="round" stroke-linejoin="round"/>
<path d="M66.0334 62.0338L59.6748 66.7327L55.0358 49.8922L58.8089 47.2896H73.2951L76.4868 49.3505L73.8765 67.0036L66.0334 62.0338Z" fill="white" stroke="#263238" stroke-linecap="round" stroke-linejoin="round"/>
<path d="M58.3141 37.1738V48.9622L66.0335 62.0342L73.3941 48.7973V36.4907L58.3141 37.1738Z" fill="white" stroke="#263238" stroke-linecap="round" stroke-linejoin="round"/>
<path d="M55.0605 23.8778C55.0605 23.8778 51.9431 18.5901 50.2112 21.5225C48.4792 24.4549 50.9039 30.7553 51.9431 32.4158C52.9822 34.0763 54.7142 31.4266 54.7142 31.4266" fill="white"/>
<path d="M55.0605 23.8778C55.0605 23.8778 51.9431 18.5901 50.2112 21.5225C48.4792 24.4549 50.9039 30.7553 51.9431 32.4158C52.9822 34.0763 54.7142 31.4266 54.7142 31.4266" stroke="#263238" stroke-linecap="round" stroke-linejoin="round"/>
<path d="M77.4147 23.8778C77.4147 23.8778 80.5321 18.5901 82.264 21.5225C83.9959 24.4549 81.5713 30.7553 80.5321 32.4158C79.493 34.0763 77.7611 31.4266 77.7611 31.4266" fill="white"/>
<path d="M77.4147 23.8778C77.4147 23.8778 80.5321 18.5901 82.264 21.5225C83.9959 24.4549 81.5713 30.7553 80.5321 32.4158C79.493 34.0763 77.7611 31.4266 77.7611 31.4266" stroke="#263238" stroke-linecap="round" stroke-linejoin="round"/>
<path d="M78.9857 22.8884C78.9857 32.1801 73.2457 45.0048 66.1572 45.0048C59.0687 45.0048 53.3905 32.1801 53.3905 22.8884C53.3905 13.5967 59.1306 6.04785 66.219 6.04785C73.3075 6.04785 78.9857 13.5849 78.9857 22.8884Z" fill="white" stroke="#263238" stroke-linecap="round" stroke-linejoin="round"/>
<path d="M50.6937 73.3513L59.8233 86.0465H72.7508L82.2887 76.6605L76.2023 69.4886L83.7361 68.9351L82.8701 52.9307L76.4868 49.3506L65.7613 85.7756L55.0358 49.8923L49.8153 52.9307L47.7865 67.2863L54.1699 68.3815L50.6937 73.3513Z" fill="white" stroke="#263238" stroke-linecap="round" stroke-linejoin="round"/>
<path d="M53.3039 25.3381C53.3039 25.3381 56.1739 25.6914 55.6172 24.7846C55.0605 23.8778 55.6172 20.651 55.6172 20.651C56.2785 20.1475 56.7797 19.4788 57.0646 18.7196C57.6461 17.3418 56.1987 15.3986 56.1987 13.7499C56.1987 12.1012 65.1799 15.3987 66.6273 15.3987C68.0747 15.3987 76.2023 13.4673 76.2023 13.4673C76.2023 13.4673 74.7425 18.437 75.6209 18.9905C76.4992 19.544 77.0683 22.0289 77.0683 22.0289C77.0683 22.0289 76.2023 26.4451 76.4868 27.2695C76.7714 28.0938 78.5156 28.6473 78.8125 27.8229C79.1094 26.9986 79.0971 19.8149 79.0971 19.8149C79.0971 19.8149 81.1259 20.0975 81.1259 16.2819C81.1259 12.4663 78.8126 3.85758 74.7425 2.20885C70.6725 0.560131 61.4192 0.548368 57.6461 2.47973C53.873 4.41109 51.2627 13.2435 52.141 16.2819C52.7772 19.267 53.1661 22.295 53.3039 25.3381Z" fill="#263238" stroke="#263238" stroke-linecap="round" stroke-linejoin="round"/>
</svg>
