<svg width="788" height="54" viewBox="0 0 788 54" fill="none" xmlns="http://www.w3.org/2000/svg">
<path d="M17.22 43H8.82C7.94 43 7.44 42.58 7.32 41.74L0.9 5.68C0.78 4.84 1.2 4.42 2.16 4.42H8.4C9.32 4.42 9.8 4.84 9.84 5.68L13.32 35.26H13.74L19.5 5.5C19.62 4.78 20.04 4.42 20.76 4.42H27.48C28.24 4.42 28.68 4.76 28.8 5.44L34.68 35.26H35.16L38.58 5.74C38.62 4.86 39.1 4.42 40.02 4.42H46.26C47.22 4.42 47.64 4.86 47.52 5.74L41.04 41.74C40.92 42.58 40.46 43 39.66 43H31.2C30.36 43 29.88 42.58 29.76 41.74L24.36 13.6H24.12L18.66 41.74C18.5 42.58 18.02 43 17.22 43ZM58.0584 43H52.9584C52.1184 43 51.6984 42.58 51.6984 41.74V2.08C51.6984 1.24 52.1184 0.819999 52.9584 0.819999H58.0584C58.8984 0.819999 59.3184 1.24 59.3184 2.08V15.64H59.5584C60.4384 13.48 62.3984 12.4 65.4384 12.4H67.3584C73.6384 12.4 76.7784 15.66 76.7784 22.18V41.74C76.7784 42.58 76.3384 43 75.4584 43H70.4184C69.5784 43 69.1584 42.58 69.1584 41.74V22.54C69.1584 21.26 68.8784 20.36 68.3184 19.84C67.7984 19.28 66.8984 19 65.6184 19H63.4584C60.6984 19 59.3184 20.52 59.3184 23.56V41.74C59.3184 42.58 58.8984 43 58.0584 43ZM88.0847 53.14H84.2447C83.4447 53.14 83.0447 52.7 83.0447 51.82V47.8C83.0447 46.92 83.4447 46.48 84.2447 46.48H85.5047C88.0247 46.48 89.7247 46.12 90.6047 45.4C91.5247 44.72 92.2247 43.38 92.7047 41.38H89.5247C88.7647 41.38 88.2647 40.96 88.0247 40.12L81.0047 13.66C80.7647 12.82 81.0647 12.4 81.9047 12.4H87.2447C88.0447 12.4 88.5447 12.82 88.7447 13.66L93.9047 35.8H94.1447L99.2447 13.66C99.4047 12.82 99.9047 12.4 100.745 12.4H105.785C106.785 12.4 107.185 12.84 106.985 13.72L99.6647 43C98.7847 46.32 97.4247 48.84 95.5847 50.56C93.7447 52.28 91.2447 53.14 88.0847 53.14ZM135.75 43H133.29C130.21 43 127.87 42.16 126.27 40.48C124.71 38.8 123.93 36.38 123.93 33.22V22.18C123.93 19.02 124.71 16.6 126.27 14.92C127.87 13.24 130.21 12.4 133.29 12.4H135.75C136.99 12.4 138.17 12.68 139.29 13.24C140.41 13.76 141.19 14.56 141.63 15.64H141.87V2.08C141.87 1.24 142.29 0.819999 143.13 0.819999H148.23C149.07 0.819999 149.49 1.24 149.49 2.08V41.74C149.49 42.58 149.07 43 148.23 43H143.13C142.29 43 141.87 42.58 141.87 41.74V39.76H141.63C141.19 40.84 140.41 41.66 139.29 42.22C138.17 42.74 136.99 43 135.75 43ZM141.87 31.84V23.56C141.87 20.52 140.49 19 137.73 19H135.03C133.75 19 132.85 19.28 132.33 19.84C131.81 20.36 131.55 21.26 131.55 22.54V32.86C131.55 34.14 131.81 35.06 132.33 35.62C132.85 36.14 133.75 36.4 135.03 36.4H137.73C140.49 36.4 141.87 34.88 141.87 31.84ZM170.753 43H165.413C162.253 43 159.813 42.16 158.093 40.48C156.373 38.8 155.513 36.38 155.513 33.22V22.18C155.513 19.02 156.373 16.6 158.093 14.92C159.813 13.24 162.253 12.4 165.413 12.4H170.753C173.873 12.4 176.293 13.26 178.013 14.98C179.773 16.66 180.653 19.06 180.653 22.18V33.22C180.653 36.34 179.773 38.76 178.013 40.48C176.293 42.16 173.873 43 170.753 43ZM166.553 36.46H169.613C170.893 36.46 171.793 36.2 172.313 35.68C172.873 35.16 173.153 34.26 173.153 32.98V22.42C173.153 21.14 172.873 20.24 172.313 19.72C171.793 19.2 170.893 18.94 169.613 18.94H166.553C165.273 18.94 164.373 19.2 163.853 19.72C163.333 20.24 163.073 21.14 163.073 22.42V32.98C163.073 34.26 163.333 35.16 163.853 35.68C164.373 36.2 165.273 36.46 166.553 36.46ZM219.323 37.66V41.8C219.323 42.24 219.223 42.56 219.023 42.76C218.863 42.92 218.543 43 218.063 43H209.123C205.963 43 203.523 42.16 201.803 40.48C200.083 38.8 199.223 36.38 199.223 33.22V22.18C199.223 19.02 200.083 16.6 201.803 14.92C203.523 13.24 205.963 12.4 209.123 12.4H218.063C218.903 12.4 219.323 12.82 219.323 13.66V17.8C219.323 18.24 219.223 18.56 219.023 18.76C218.863 18.92 218.543 19 218.063 19H210.323C209.083 19 208.183 19.28 207.623 19.84C207.103 20.36 206.843 21.26 206.843 22.54V32.86C206.843 34.14 207.103 35.06 207.623 35.62C208.183 36.14 209.083 36.4 210.323 36.4H218.063C218.903 36.4 219.323 36.82 219.323 37.66ZM230.851 43H225.751C224.911 43 224.491 42.58 224.491 41.74V13.66C224.491 12.82 224.911 12.4 225.751 12.4H230.851C231.691 12.4 232.111 12.82 232.111 13.66V15.7H232.351C232.791 14.62 233.571 13.8 234.691 13.24C235.811 12.68 236.991 12.4 238.231 12.4H240.391C241.191 12.4 241.591 12.82 241.591 13.66V17.8C241.591 18.28 241.491 18.62 241.291 18.82C241.131 18.98 240.831 19.04 240.391 19H236.251C233.491 19 232.111 20.56 232.111 23.68V41.74C232.111 42.58 231.691 43 230.851 43ZM267.969 43H254.709C251.549 43 249.109 42.16 247.389 40.48C245.669 38.8 244.809 36.38 244.809 33.22V22.18C244.809 19.02 245.669 16.6 247.389 14.92C249.109 13.24 251.549 12.4 254.709 12.4H259.449C262.609 12.4 265.049 13.24 266.769 14.92C268.489 16.6 269.349 19.02 269.349 22.18V29.8C269.349 30.64 268.929 31.06 268.089 31.06H253.029C252.549 31.06 252.309 31.28 252.309 31.72V33.04C252.309 34.28 252.569 35.18 253.089 35.74C253.649 36.26 254.569 36.52 255.849 36.52H267.969C268.809 36.52 269.229 36.96 269.229 37.84V41.8C269.229 42.24 269.129 42.56 268.929 42.76C268.769 42.92 268.449 43 267.969 43ZM253.029 25.96H261.189C261.629 25.96 261.849 25.74 261.849 25.3V22.42C261.849 21.14 261.589 20.24 261.069 19.72C260.549 19.2 259.649 18.94 258.369 18.94H255.849C254.569 18.94 253.669 19.2 253.149 19.72C252.629 20.24 252.369 21.14 252.369 22.42V25.3C252.369 25.74 252.589 25.96 253.029 25.96ZM285.798 43H284.358C281.198 43 278.758 42.16 277.038 40.48C275.318 38.8 274.458 36.38 274.458 33.22V22.18C274.458 19.02 275.318 16.6 277.038 14.92C278.758 13.24 281.198 12.4 284.358 12.4H298.218C299.098 12.4 299.538 12.82 299.538 13.66V41.74C299.538 42.58 299.098 43 298.218 43H293.178C292.338 43 291.918 42.58 291.918 41.74V39.76H291.678C291.238 40.84 290.458 41.66 289.338 42.22C288.218 42.74 287.038 43 285.798 43ZM291.918 31.84V19.66C291.918 19.22 291.678 19 291.198 19H285.558C284.278 19 283.378 19.28 282.858 19.84C282.338 20.36 282.078 21.26 282.078 22.54V32.86C282.078 34.14 282.338 35.06 282.858 35.62C283.378 36.14 284.278 36.4 285.558 36.4H287.778C290.538 36.4 291.918 34.88 291.918 31.84ZM306.772 19H304.373C303.893 19 303.553 18.92 303.353 18.76C303.193 18.6 303.113 18.28 303.113 17.8V13.66C303.113 12.82 303.533 12.4 304.373 12.4H306.772C307.213 12.4 307.433 12.18 307.433 11.74V6.04C307.433 5.2 307.873 4.78 308.753 4.78H313.793C314.633 4.78 315.053 5.2 315.053 6.04V11.74C315.053 12.18 315.293 12.4 315.773 12.4H320.452C321.293 12.4 321.713 12.82 321.713 13.66V17.8C321.713 18.24 321.613 18.56 321.413 18.76C321.253 18.92 320.933 19 320.452 19H315.773C315.293 19 315.053 19.22 315.053 19.66V32.92C315.053 34.16 315.333 35.06 315.893 35.62C316.453 36.14 317.373 36.4 318.652 36.4H321.053C321.893 36.4 322.313 36.82 322.313 37.66V41.8C322.313 42.24 322.213 42.56 322.013 42.76C321.853 42.92 321.533 43 321.053 43H317.393C314.233 43 311.773 42.16 310.013 40.48C308.293 38.8 307.433 36.4 307.433 33.28V19.66C307.433 19.22 307.213 19 306.772 19ZM341.905 43H336.565C333.405 43 330.965 42.16 329.245 40.48C327.525 38.8 326.665 36.38 326.665 33.22V22.18C326.665 19.02 327.525 16.6 329.245 14.92C330.965 13.24 333.405 12.4 336.565 12.4H341.905C345.025 12.4 347.445 13.26 349.165 14.98C350.925 16.66 351.805 19.06 351.805 22.18V33.22C351.805 36.34 350.925 38.76 349.165 40.48C347.445 42.16 345.025 43 341.905 43ZM337.705 36.46H340.765C342.045 36.46 342.945 36.2 343.465 35.68C344.025 35.16 344.305 34.26 344.305 32.98V22.42C344.305 21.14 344.025 20.24 343.465 19.72C342.945 19.2 342.045 18.94 340.765 18.94H337.705C336.425 18.94 335.525 19.2 335.005 19.72C334.485 20.24 334.225 21.14 334.225 22.42V32.98C334.225 34.26 334.485 35.16 335.005 35.68C335.525 36.2 336.425 36.46 337.705 36.46ZM364.152 43H359.052C358.212 43 357.792 42.58 357.792 41.74V13.66C357.792 12.82 358.212 12.4 359.052 12.4H364.152C364.992 12.4 365.412 12.82 365.412 13.66V15.7H365.652C366.092 14.62 366.872 13.8 367.992 13.24C369.112 12.68 370.292 12.4 371.532 12.4H373.692C374.492 12.4 374.892 12.82 374.892 13.66V17.8C374.892 18.28 374.792 18.62 374.592 18.82C374.432 18.98 374.132 19.04 373.692 19H369.552C366.792 19 365.412 20.56 365.412 23.68V41.74C365.412 42.58 364.992 43 364.152 43ZM390.29 43H378.89C378.09 43 377.69 42.58 377.69 41.74V37.9C377.69 37.46 377.77 37.16 377.93 37C378.09 36.8 378.41 36.7 378.89 36.7H388.91C390.87 36.7 391.85 36.1 391.85 34.9V34.6C391.85 33.64 391.03 32.72 389.39 31.84L383.45 28.54C381.41 27.5 379.91 26.38 378.95 25.18C377.99 23.98 377.51 22.44 377.51 20.56C377.51 17.76 378.25 15.7 379.73 14.38C381.21 13.06 383.53 12.4 386.69 12.4H396.71C397.51 12.4 397.91 12.82 397.91 13.66V17.56C397.91 18 397.83 18.32 397.67 18.52C397.51 18.68 397.19 18.76 396.71 18.76H388.37C386.41 18.76 385.43 19.26 385.43 20.26V20.56C385.43 21.44 386.29 22.34 388.01 23.26L394.07 26.86C396.15 27.98 397.61 29.14 398.45 30.34C399.29 31.5 399.71 33.04 399.71 34.96C399.71 40.32 396.57 43 390.29 43ZM428.222 36.34H430.742C432.422 36.34 433.382 35.54 433.622 33.94L427.082 26.26C426.122 26.3 425.442 26.62 425.042 27.22C424.682 27.82 424.502 28.84 424.502 30.28V32.86C424.502 34.1 424.782 35 425.342 35.56C425.942 36.08 426.902 36.34 428.222 36.34ZM430.742 43H427.082C423.922 43 421.482 42.16 419.762 40.48C418.042 38.8 417.182 36.4 417.182 33.28V29.8C417.182 27.8 417.702 26.04 418.742 24.52C419.822 22.96 421.322 22.06 423.242 21.82C421.682 19.78 420.902 17.44 420.902 14.8V14.14C420.902 11.06 421.822 8.68 423.662 7C425.542 5.28 428.082 4.42 431.282 4.42H433.262C436.422 4.42 438.862 5.26 440.582 6.94C442.302 8.62 443.162 11.02 443.162 14.14V16.18C443.162 17.06 442.742 17.5 441.902 17.5H436.802C435.962 17.5 435.542 17.06 435.542 16.18V14.26C435.542 13.02 435.302 12.14 434.822 11.62C434.342 11.06 433.582 10.78 432.542 10.78H432.062C430.902 10.78 430.062 11.06 429.542 11.62C429.022 12.14 428.762 13.02 428.762 14.26V15.04C428.762 16.6 429.642 18.38 431.402 20.38L434.222 23.62H447.542C448.382 23.62 448.802 24.06 448.802 24.94V29.02C448.802 29.86 448.382 30.28 447.542 30.28H439.742L449.522 41.92C449.722 42.16 449.782 42.4 449.702 42.64C449.622 42.88 449.442 43 449.162 43H442.742C441.782 43 441.082 42.72 440.642 42.16L438.002 39.04C437.562 40.44 436.762 41.46 435.602 42.1C434.482 42.7 432.862 43 430.742 43ZM479.576 12.4H484.376C484.856 12.4 485.176 12.5 485.336 12.7C485.536 12.86 485.636 13.16 485.636 13.6V17.74C485.636 18.58 485.216 19 484.376 19H479.576C479.136 19 478.916 19.22 478.916 19.66V41.74C478.916 42.58 478.476 43 477.596 43H472.556C471.716 43 471.296 42.58 471.296 41.74V19.66C471.296 19.22 471.056 19 470.576 19H467.816C466.976 19 466.556 18.58 466.556 17.74V13.6C466.556 13.12 466.636 12.8 466.796 12.64C466.996 12.48 467.336 12.4 467.816 12.4H470.576C471.056 12.4 471.296 12.18 471.296 11.74V10.6C471.296 7.44 472.116 5.02 473.756 3.34C475.436 1.66 477.856 0.819999 481.016 0.819999H484.436C484.916 0.819999 485.236 0.919999 485.396 1.12C485.556 1.28 485.636 1.58 485.636 2.02V6.16C485.636 7 485.236 7.42 484.436 7.42H482.216C480.936 7.42 480.056 7.7 479.576 8.26C479.136 8.78 478.916 9.68 478.916 10.96V11.74C478.916 12.18 479.136 12.4 479.576 12.4ZM500.427 43H498.987C495.827 43 493.387 42.16 491.667 40.48C489.947 38.8 489.087 36.38 489.087 33.22V22.18C489.087 19.02 489.947 16.6 491.667 14.92C493.387 13.24 495.827 12.4 498.987 12.4H512.847C513.727 12.4 514.167 12.82 514.167 13.66V41.74C514.167 42.58 513.727 43 512.847 43H507.807C506.967 43 506.547 42.58 506.547 41.74V39.76H506.307C505.867 40.84 505.087 41.66 503.967 42.22C502.847 42.74 501.667 43 500.427 43ZM506.547 31.84V19.66C506.547 19.22 506.307 19 505.827 19H500.187C498.907 19 498.007 19.28 497.487 19.84C496.967 20.36 496.707 21.26 496.707 22.54V32.86C496.707 34.14 496.967 35.06 497.487 35.62C498.007 36.14 498.907 36.4 500.187 36.4H502.407C505.167 36.4 506.547 34.88 506.547 31.84ZM527.101 43H522.001C521.161 43 520.741 42.58 520.741 41.74V13.66C520.741 12.82 521.161 12.4 522.001 12.4H527.101C527.941 12.4 528.361 12.82 528.361 13.66V15.64H528.601C529.481 13.48 531.441 12.4 534.481 12.4H536.401C542.681 12.4 545.821 15.66 545.821 22.18V41.74C545.821 42.58 545.381 43 544.501 43H539.461C538.621 43 538.201 42.58 538.201 41.74V22.54C538.201 21.26 537.921 20.36 537.361 19.84C536.841 19.28 535.941 19 534.661 19H532.501C529.741 19 528.361 20.52 528.361 23.56V41.74C528.361 42.58 527.941 43 527.101 43ZM563.728 43H552.328C551.528 43 551.128 42.58 551.128 41.74V37.9C551.128 37.46 551.208 37.16 551.368 37C551.528 36.8 551.848 36.7 552.328 36.7H562.348C564.308 36.7 565.288 36.1 565.288 34.9V34.6C565.288 33.64 564.468 32.72 562.828 31.84L556.888 28.54C554.848 27.5 553.348 26.38 552.388 25.18C551.428 23.98 550.948 22.44 550.948 20.56C550.948 17.76 551.688 15.7 553.168 14.38C554.648 13.06 556.968 12.4 560.128 12.4H570.148C570.948 12.4 571.348 12.82 571.348 13.66V17.56C571.348 18 571.268 18.32 571.108 18.52C570.948 18.68 570.628 18.76 570.148 18.76H561.808C559.848 18.76 558.868 19.26 558.868 20.26V20.56C558.868 21.44 559.728 22.34 561.448 23.26L567.508 26.86C569.588 27.98 571.048 29.14 571.888 30.34C572.728 31.5 573.148 33.04 573.148 34.96C573.148 40.32 570.008 43 563.728 43ZM598.3 43H593.2C592.36 43 591.94 42.58 591.94 41.74V2.08C591.94 1.24 592.36 0.819999 593.2 0.819999H598.3C599.14 0.819999 599.56 1.24 599.56 2.08V41.74C599.56 42.58 599.14 43 598.3 43ZM621.104 43H615.764C612.604 43 610.164 42.16 608.444 40.48C606.724 38.8 605.864 36.38 605.864 33.22V22.18C605.864 19.02 606.724 16.6 608.444 14.92C610.164 13.24 612.604 12.4 615.764 12.4H621.104C624.224 12.4 626.644 13.26 628.364 14.98C630.124 16.66 631.004 19.06 631.004 22.18V33.22C631.004 36.34 630.124 38.76 628.364 40.48C626.644 42.16 624.224 43 621.104 43ZM616.904 36.46H619.964C621.244 36.46 622.144 36.2 622.664 35.68C623.224 35.16 623.504 34.26 623.504 32.98V22.42C623.504 21.14 623.224 20.24 622.664 19.72C622.144 19.2 621.244 18.94 619.964 18.94H616.904C615.624 18.94 614.724 19.2 614.204 19.72C613.684 20.24 613.424 21.14 613.424 22.42V32.98C613.424 34.26 613.684 35.16 614.204 35.68C614.724 36.2 615.624 36.46 616.904 36.46ZM635.671 12.4H640.951C641.751 12.4 642.231 12.82 642.391 13.66L647.551 36.22H647.971L653.011 13.66C653.171 12.82 653.671 12.4 654.511 12.4H659.791C660.631 12.4 660.931 12.82 660.691 13.66L653.131 41.68C652.971 42.56 652.431 43 651.511 43H643.891C643.051 43 642.511 42.56 642.271 41.68L634.771 13.66C634.531 12.82 634.831 12.4 635.671 12.4ZM687.618 43H674.358C671.198 43 668.758 42.16 667.038 40.48C665.318 38.8 664.458 36.38 664.458 33.22V22.18C664.458 19.02 665.318 16.6 667.038 14.92C668.758 13.24 671.198 12.4 674.358 12.4H679.098C682.258 12.4 684.698 13.24 686.418 14.92C688.138 16.6 688.998 19.02 688.998 22.18V29.8C688.998 30.64 688.578 31.06 687.738 31.06H672.678C672.198 31.06 671.958 31.28 671.958 31.72V33.04C671.958 34.28 672.218 35.18 672.738 35.74C673.298 36.26 674.218 36.52 675.498 36.52H687.618C688.458 36.52 688.878 36.96 688.878 37.84V41.8C688.878 42.24 688.778 42.56 688.578 42.76C688.418 42.92 688.098 43 687.618 43ZM672.678 25.96H680.838C681.278 25.96 681.498 25.74 681.498 25.3V22.42C681.498 21.14 681.238 20.24 680.718 19.72C680.198 19.2 679.298 18.94 678.018 18.94H675.498C674.218 18.94 673.318 19.2 672.798 19.72C672.278 20.24 672.018 21.14 672.018 22.42V25.3C672.018 25.74 672.238 25.96 672.678 25.96ZM718.93 43H716.95C713.87 43 711.53 42.16 709.93 40.48C708.37 38.8 707.59 36.38 707.59 33.22V13.66C707.59 12.82 708.01 12.4 708.85 12.4H713.95C714.79 12.4 715.21 12.82 715.21 13.66V32.86C715.21 34.14 715.47 35.06 715.99 35.62C716.55 36.14 717.45 36.4 718.69 36.4H720.91C723.67 36.4 725.05 34.88 725.05 31.84V13.66C725.05 12.82 725.47 12.4 726.31 12.4H731.35C732.23 12.4 732.67 12.82 732.67 13.66V41.74C732.67 42.58 732.23 43 731.35 43H726.31C725.47 43 725.05 42.58 725.05 41.74V39.76H724.81C724.37 40.84 723.59 41.66 722.47 42.22C721.35 42.74 720.17 43 718.93 43ZM750.876 43H739.476C738.676 43 738.276 42.58 738.276 41.74V37.9C738.276 37.46 738.356 37.16 738.516 37C738.676 36.8 738.996 36.7 739.476 36.7H749.496C751.456 36.7 752.436 36.1 752.436 34.9V34.6C752.436 33.64 751.616 32.72 749.976 31.84L744.036 28.54C741.996 27.5 740.496 26.38 739.536 25.18C738.576 23.98 738.096 22.44 738.096 20.56C738.096 17.76 738.836 15.7 740.316 14.38C741.796 13.06 744.116 12.4 747.276 12.4H757.296C758.096 12.4 758.496 12.82 758.496 13.66V17.56C758.496 18 758.416 18.32 758.256 18.52C758.096 18.68 757.776 18.76 757.296 18.76H748.956C746.996 18.76 746.016 19.26 746.016 20.26V20.56C746.016 21.44 746.876 22.34 748.596 23.26L754.656 26.86C756.736 27.98 758.196 29.14 759.036 30.34C759.876 31.5 760.296 33.04 760.296 34.96C760.296 40.32 757.156 43 750.876 43ZM779.645 34.36V41.74C779.645 42.58 779.265 43 778.505 43H773.165C772.365 43 771.965 42.56 771.965 41.68V34.42C771.965 33.62 772.365 33.22 773.165 33.22H778.505C779.265 33.22 779.645 33.6 779.645 34.36ZM779.585 26.5V28.06C779.585 28.9 779.165 29.32 778.325 29.32H773.585C772.745 29.32 772.325 28.9 772.325 28.06V26.44C772.325 25.12 772.545 24.06 772.985 23.26C773.425 22.42 774.165 21.58 775.205 20.74L778.565 17.98C779.845 16.98 780.485 15.88 780.485 14.68V14.32C780.485 13.08 780.185 12.2 779.585 11.68C779.025 11.12 778.085 10.84 776.765 10.84H775.685C774.445 10.84 773.545 11.1 772.985 11.62C772.465 12.14 772.205 13.04 772.205 14.32V15.58C772.205 16.46 771.785 16.9 770.945 16.9H765.845C765.005 16.9 764.585 16.46 764.585 15.58V14.2C764.585 11.08 765.445 8.68 767.165 7C768.885 5.32 771.325 4.48 774.485 4.48H778.025C781.185 4.48 783.625 5.32 785.345 7C787.065 8.68 787.925 11.08 787.925 14.2V15.04C787.925 17 787.025 18.76 785.225 20.32L781.145 23.62C780.105 24.58 779.585 25.54 779.585 26.5Z" fill="#5D2CFF"/>
</svg>
